<?xml version="1.0" encoding="utf-8"?>
<!-- Generator: Adobe Illustrator 16.0.0, SVG Export Plug-In . SVG Version: 6.00 Build 0)  -->
<!DOCTYPE svg PUBLIC "-//W3C//DTD SVG 1.1//EN" "http://www.w3.org/Graphics/SVG/1.1/DTD/svg11.dtd">
<svg version="1.1" id="圖層_1" xmlns="http://www.w3.org/2000/svg" xmlns:xlink="http://www.w3.org/1999/xlink" x="0px" y="0px"
	 width="100px" height="100px" viewBox="0 0 135.489 136.062" enable-background="new 0 0 135.489 136.062"
	 xml:space="preserve">
<linearGradient id="SVGID_1_" gradientUnits="userSpaceOnUse" x1="115.7969" y1="19.9795" x2="19.6932" y2="116.0832">
	<stop  offset="0.229" style="stop-color:#FADDCD"/>
	<stop  offset="0.4914" style="stop-color:#D59D7E"/>
	<stop  offset="1" style="stop-color:#AA6F50"/>
</linearGradient>
<path fill="url(#SVGID_1_)" d="M28.12,20.305l-6.246-2.515l1.938,6.449c0.713,2.37-1.36,4.646-3.786,4.159l-6.601-1.324l3.088,5.982
	c1.137,2.2-0.482,4.817-2.958,4.786l-6.73-0.089l4.135,5.313c1.521,1.954,0.411,4.824-2.029,5.246l-6.633,1.15l5.042,4.462
	c1.853,1.642,1.29,4.667-1.03,5.53L0,61.805l5.774,3.46c2.125,1.272,2.127,4.349,0.005,5.624l-5.771,3.469l6.314,2.34
	c2.32,0.861,2.89,3.885,1.038,5.53l-5.035,4.469l6.636,1.14c2.44,0.419,3.553,3.288,2.036,5.245l-4.127,5.32l6.731-0.099
	c2.475-0.036,4.098,2.578,2.965,4.779l-3.079,5.987l6.598-1.333c2.428-0.492,4.502,1.782,3.792,4.155l-1.926,6.449l6.242-2.525
	c2.295-0.927,4.751,0.928,4.491,3.39l-0.709,6.693l5.672-3.627c2.086-1.333,4.842,0.036,5.036,2.502l0.535,6.713l4.907-4.607
	c1.806-1.696,4.767-0.855,5.411,1.535l1.758,6.499l3.979-5.433c1.464-1.997,4.527-1.713,5.602,0.515l2.923,6.066l2.911-6.07
	c1.072-2.231,4.135-2.518,5.601-0.524l3.987,5.426l1.747-6.502c0.644-2.39,3.601-3.234,5.409-1.542l4.915,4.598l0.523-6.71
	c0.192-2.469,2.945-3.842,5.033-2.512l5.679,3.618l-0.72-6.694c-0.265-2.462,2.189-4.317,4.485-3.393l6.246,2.515l-1.938-6.449
	c-0.711-2.37,1.359-4.647,3.787-4.159l6.602,1.324l-3.09-5.984c-1.135-2.198,0.482-4.815,2.958-4.782l6.732,0.085l-4.136-5.311
	c-1.521-1.956-0.412-4.825,2.028-5.248l6.633-1.15l-5.04-4.462c-1.854-1.642-1.292-4.667,1.028-5.532l6.309-2.348l-5.774-3.46
	c-2.123-1.272-2.127-4.35-0.005-5.626l5.771-3.469l-6.314-2.34c-2.321-0.86-2.888-3.885-1.038-5.528l5.035-4.471l-6.636-1.141
	c-2.438-0.419-3.553-3.287-2.034-5.243l4.125-5.319l-6.731,0.098c-2.476,0.036-4.096-2.578-2.964-4.779l3.08-5.987l-6.6,1.333
	c-2.428,0.49-4.502-1.782-3.793-4.154l1.926-6.451l-6.24,2.523c-2.296,0.93-4.752-0.924-4.491-3.386l0.708-6.695l-5.672,3.627
	c-2.086,1.335-4.84-0.034-5.036-2.503l-0.533-6.712l-4.909,4.609c-1.806,1.693-4.765,0.854-5.412-1.537l-1.757-6.499l-3.979,5.431
	c-1.463,1.999-4.527,1.716-5.602-0.513L67.691,0l-2.91,6.069c-1.071,2.233-4.136,2.519-5.602,0.523l-3.987-5.425L53.445,7.67
	c-0.643,2.39-3.602,3.235-5.408,1.543l-4.916-4.601l-0.523,6.713c-0.192,2.467-2.945,3.842-5.033,2.51l-5.677-3.619l0.72,6.695
	C32.871,19.372,30.416,21.229,28.12,20.305z M15.405,51.674c0.99-3.177,2.273-6.278,3.849-9.261
	c5.386,0.064,10.789,0.68,16.155,1.858c-1.947,2.644-3.531,5.477-4.749,8.433C25.587,51.801,20.484,51.46,15.405,51.674z
	 M13.1,72.578c-0.279-3.315-0.259-6.672,0.077-10.029c5.014-1.969,10.252-3.432,15.666-4.361c-0.807,3.182-1.208,6.403-1.224,9.599
	C22.58,68.862,17.724,70.467,13.1,72.578z M19.178,93.502c-1.581-3.01-2.86-6.133-3.842-9.324c3.891-3.903,8.164-7.32,12.729-10.19
	c0.474,3.172,1.329,6.303,2.568,9.316C26.479,86.186,22.623,89.604,19.178,93.502z M25.277,102.717
	c2.132-5.083,4.805-9.855,7.954-14.235c1.634,2.761,3.604,5.34,5.886,7.664c-2.764,4.234-5.048,8.852-6.771,13.76
	C29.747,107.714,27.386,105.301,25.277,102.717z M42.186,116.553c0.026-5.453,0.615-10.875,1.782-16.199
	c2.644,1.951,5.48,3.535,8.439,4.756c-0.882,5.03-1.188,10.149-0.938,15.285C48.285,119.407,45.176,118.127,42.186,116.553z
	 M62.338,122.596c-2.026-5.06-3.524-10.308-4.448-15.677c3.185,0.812,6.409,1.211,9.609,1.231c1.079,4.987,2.721,9.846,4.888,14.509
	C69.064,122.946,65.701,122.929,62.338,122.596z M83.761,120.48c-3.819-3.881-7.183-8.166-10.037-12.773
	c3.162-0.475,6.282-1.327,9.289-2.561c2.866,4.211,6.245,8.076,10.062,11.525C90.066,118.239,86.947,119.51,83.761,120.48z
	 M109.525,103.542c-2.194,2.587-4.605,4.938-7.191,7.037c-5-2.159-9.729-4.858-14.109-8.053c2.751-1.63,5.322-3.594,7.641-5.872
	C100.106,99.476,104.692,101.783,109.525,103.542z M120.094,84.351c-0.991,3.195-2.282,6.312-3.866,9.313
	c-5.629,0.013-11.062-0.571-16.245-1.741c1.959-2.639,3.557-5.469,4.787-8.421C109.803,84.393,114.952,84.648,120.094,84.351z
	 M122.388,63.427c0.282,3.332,0.263,6.707-0.075,10.082c-5.212,2.13-10.465,3.636-15.706,4.505c0.822-3.182,1.234-6.405,1.265-9.603
	C112.869,67.34,117.736,65.639,122.388,63.427z M116.361,42.654c1.567,3.002,2.838,6.114,3.813,9.294
	c-3.875,3.815-8.137,7.218-12.749,10.138c-0.472-3.177-1.328-6.311-2.569-9.329C109.058,49.839,112.909,46.453,116.361,42.654z
	 M91.029,93.535c-14.084,12.859-35.929,11.869-48.788-2.219c-12.86-14.085-11.866-35.928,2.218-48.789
	c14.087-12.86,35.93-11.867,48.789,2.218C106.108,58.83,105.115,80.674,91.029,93.535z M110.257,33.379
	c-2.15,4.994-4.817,9.75-7.99,14.192c-1.634-2.766-3.607-5.347-5.895-7.675c2.795-4.284,5.087-8.874,6.854-13.69
	C105.81,28.396,108.159,30.8,110.257,33.379z M93.315,19.514c-0.046,5.555-0.673,10.962-1.856,16.148
	c-2.617-1.923-5.421-3.489-8.344-4.699c0.911-5.026,1.215-10.162,0.967-15.278C87.249,16.671,90.342,17.948,93.315,19.514z
	 M73.164,13.448c2.048,5.162,3.504,10.408,4.36,15.656c-3.147-0.793-6.336-1.188-9.499-1.209c-1.05-5-2.701-9.87-4.857-14.517
	C66.474,13.098,69.817,13.116,73.164,13.448z M51.584,15.628c0.873,0.87,1.721,1.754,2.541,2.652
	c2.916,3.193,5.494,6.555,7.731,10.06c-3.182,0.47-6.32,1.322-9.344,2.563c-2.956-4.191-6.413-8.014-10.241-11.436
	C45.278,17.885,48.396,16.608,51.584,15.628z M33.04,25.561c1.135,0.479,2.256,0.977,3.353,1.5c3.903,1.86,7.559,4.004,10.953,6.408
	c-2.771,1.634-5.358,3.605-7.691,5.893c-4.317-2.771-8.961-5.01-13.797-6.738C28.049,30.028,30.457,27.67,33.04,25.561z"/>
</svg>
