<?xml version="1.0" encoding="utf-8"?>
<!-- Generator: Adobe Illustrator 16.0.0, SVG Export Plug-In . SVG Version: 6.00 Build 0)  -->
<!DOCTYPE svg PUBLIC "-//W3C//DTD SVG 1.1//EN" "http://www.w3.org/Graphics/SVG/1.1/DTD/svg11.dtd">
<svg version="1.1" id="圖層_1" xmlns="http://www.w3.org/2000/svg" xmlns:xlink="http://www.w3.org/1999/xlink" x="0px" y="0px"
	 width="142.914px" height="143.446px" viewBox="0 0 142.914 143.446" enable-background="new 0 0 142.914 143.446"
	 xml:space="preserve">
<linearGradient id="SVGID_1_" gradientUnits="userSpaceOnUse" x1="122.1045" y1="21.0747" x2="20.8094" y2="122.3698">
	<stop  offset="0.229" style="stop-color:#FADDCD"/>
	<stop  offset="0.4914" style="stop-color:#D59D7E"/>
	<stop  offset="1" style="stop-color:#AA6F50"/>
</linearGradient>
<path fill="url(#SVGID_1_)" d="M39.34,14.751l-6.006-3.784l0.797,7.054c0.291,2.593-2.285,4.563-4.712,3.602l-6.599-2.617
	l2.078,6.787c0.763,2.496-1.407,4.907-3.97,4.407l-6.966-1.358l3.288,6.289c1.21,2.313-0.481,5.081-3.091,5.062l-7.099-0.057
	l4.39,5.579c1.614,2.052,0.459,5.083-2.11,5.543l-6.987,1.249l5.341,4.677c1.963,1.721,1.386,4.913-1.055,5.836L0,65.532
	l6.107,3.615c2.247,1.331,2.267,4.575,0.035,5.932L0.08,78.766L6.748,81.2c2.451,0.894,3.066,4.079,1.124,5.822l-5.283,4.742
	l7.001,1.166c2.574,0.427,3.766,3.446,2.175,5.517l-4.32,5.63l7.096-0.139c2.611-0.053,4.334,2.694,3.152,5.022l-3.214,6.33
	l6.95-1.443c2.556-0.53,4.755,1.854,4.021,4.359l-1.996,6.81l6.566-2.694c2.414-0.991,5.015,0.949,4.754,3.546l-0.711,7.062
	l5.961-3.854c2.19-1.418,5.103,0.008,5.323,2.611l0.599,7.073l5.149-4.887c1.896-1.795,5.021-0.927,5.714,1.59l1.89,6.84
	l4.164-5.747c1.531-2.114,4.763-1.834,5.908,0.511l3.114,6.379l3.037-6.416c1.116-2.358,4.344-2.678,5.9-0.583l4.234,5.699
	l1.807-6.865c0.663-2.525,3.779-3.43,5.694-1.657l5.207,4.823l0.515-7.079c0.188-2.603,3.085-4.068,5.293-2.675l6.006,3.782
	l-0.796-7.051c-0.292-2.594,2.285-4.564,4.711-3.604l6.6,2.617l-2.079-6.787c-0.763-2.495,1.407-4.906,3.97-4.407l6.966,1.36
	l-3.288-6.291c-1.21-2.312,0.481-5.081,3.092-5.059l7.098,0.056l-4.39-5.58c-1.613-2.051-0.459-5.081,2.108-5.542l6.987-1.249
	l-5.339-4.679c-1.962-1.72-1.386-4.912,1.057-5.835l6.639-2.513l-6.107-3.616c-2.248-1.331-2.268-4.574-0.036-5.93l6.063-3.689
	l-6.668-2.432c-2.451-0.895-3.066-4.081-1.124-5.823l5.284-4.741l-7.001-1.166c-2.575-0.429-3.766-3.446-2.176-5.516l4.32-5.632
	l-7.096,0.142c-2.61,0.051-4.334-2.696-3.152-5.024l3.214-6.328l-6.95,1.441c-2.557,0.53-4.754-1.854-4.021-4.358l1.996-6.812
	l-6.566,2.696c-2.414,0.99-5.015-0.949-4.754-3.546l0.711-7.062l-5.961,3.855c-2.19,1.418-5.103-0.011-5.322-2.612l-0.601-7.072
	l-5.148,4.885c-1.896,1.795-5.02,0.927-5.714-1.59l-1.89-6.841L80.049,6.89c-1.53,2.113-4.762,1.834-5.907-0.512L71.028,0
	l-3.037,6.414c-1.117,2.36-4.345,2.678-5.901,0.583l-4.234-5.698l-1.807,6.865c-0.663,2.524-3.779,3.43-5.693,1.657l-5.209-4.823
	l-0.513,7.079C44.444,14.681,41.548,16.143,39.34,14.751z M46.362,87.468c-8.696-13.859-4.51-32.144,9.349-40.839
	c13.858-8.697,32.144-4.511,40.84,9.347c8.695,13.859,4.51,32.145-9.348,40.841C73.344,105.513,55.059,101.329,46.362,87.468z
	 M103.045,90.529c1.021-1.719,3.008-2.614,4.955-2.167l8.811,2.018c2.889,0.66,4.401,3.871,3.037,6.501
	c-4.327,8.344-10.868,15.678-19.406,21.036c-21.365,13.405-48.442,10.181-66.082-6.205c-2.202-2.045-1.893-5.614,0.653-7.209
	l7.679-4.82c1.646-1.032,3.781-0.921,5.278,0.322c11.887,9.875,29.224,11.521,43.026,2.858
	C96.113,99.656,100.16,95.388,103.045,90.529z M96.615,23.332c8.343,4.327,15.678,10.869,21.033,19.406
	c5.691,9.068,8.385,19.166,8.347,29.135c-0.01,2.915-2.722,5.071-5.563,4.42l-8.724-1.998c-1.978-0.452-3.438-2.157-3.524-4.183
	c-0.263-6.159-2.076-12.334-5.586-17.93c-3.211-5.116-7.476-9.163-12.334-12.047c-1.721-1.021-2.614-3.006-2.168-4.956l2.017-8.812
	C90.773,23.48,93.984,21.967,96.615,23.332z M71.605,17.184c2.916,0.01,5.072,2.722,4.42,5.563l-1.995,8.724
	c-0.454,1.978-2.159,3.438-4.185,3.524c-6.158,0.262-12.334,2.076-17.929,5.586c-14.424,9.05-20.396,26.468-15.583,41.998
	c0.604,1.951-0.211,4.063-1.941,5.147l-7.565,4.748c-2.462,1.546-5.718,0.414-6.701-2.32c-8.503-23.602,0.228-50.746,22.346-64.624
	C51.54,19.839,61.638,17.146,71.605,17.184z"/>
</svg>
