<?xml version="1.0" encoding="utf-8"?>
<!-- Generator: Adobe Illustrator 16.0.0, SVG Export Plug-In . SVG Version: 6.00 Build 0)  -->
<!DOCTYPE svg PUBLIC "-//W3C//DTD SVG 1.1//EN" "http://www.w3.org/Graphics/SVG/1.1/DTD/svg11.dtd">
<svg version="1.1" id="圖層_1" xmlns="http://www.w3.org/2000/svg" xmlns:xlink="http://www.w3.org/1999/xlink" x="0px" y="0px"
	 width="116.938px" height="116.645px" viewBox="0 0 116.938 116.645" enable-background="new 0 0 116.938 116.645"
	 xml:space="preserve">
<linearGradient id="SVGID_1_" gradientUnits="userSpaceOnUse" x1="99.6426" y1="17.1479" x2="17.2943" y2="99.4962">
	<stop  offset="0.229" style="stop-color:#FADDCD"/>
	<stop  offset="0.4914" style="stop-color:#D59D7E"/>
	<stop  offset="1" style="stop-color:#AA6F50"/>
</linearGradient>
<path fill="url(#SVGID_1_)" d="M17.32,16.756c-1.104,1.096-1.01,2.908,0.191,3.896l1.006,0.826c1.595,1.311,2.108,3.597,1.084,5.389
	c-1.323,2.313-4.356,2.795-6.325,1.178l-0.897-0.738c-1.237-1.017-3.091-0.705-3.923,0.663c-0.41,0.674-0.805,1.354-1.186,2.041
	c-0.757,1.366-0.163,3.089,1.274,3.7l1.211,0.516c1.899,0.809,3.037,2.856,2.558,4.865c-0.617,2.592-3.393,3.91-5.736,2.911
	l-1.063-0.452c-1.476-0.627-3.169,0.196-3.578,1.746c-0.201,0.76-0.387,1.523-0.557,2.29c-0.339,1.522,0.716,3.005,2.265,3.188
	l1.416,0.166c2.294,0.27,3.951,2.367,3.682,4.661c1.493,1.636,0.154,4.248-2.045,3.989l-3.755-0.44
	c-1.591-0.188-2.982,1.078-2.941,2.679c0.02,0.784,0.056,1.569,0.106,2.353C0.21,63.74,1.64,64.868,3.18,64.605l1.401-0.238
	c2.277-0.389,4.458,1.158,4.846,3.436s-1.157,4.458-3.435,4.846l-1.144,0.195c-1.578,0.269-2.558,1.873-2.067,3.397
	c0.24,0.747,0.496,1.491,0.767,2.231c0.538,1.467,2.228,2.146,3.631,1.461l1.288-0.629c2.076-1.014,4.604-0.146,5.618,1.93h-0.001
	c1.015,2.076,0.146,4.604-1.931,5.618l-1.036,0.507c-1.439,0.703-1.927,2.52-1.025,3.844c0.44,0.647,0.896,1.288,1.365,1.922
	c0.93,1.254,2.741,1.43,3.895,0.377l1.052-0.961c1.706-1.557,4.377-1.436,5.935,0.271l0,0c1.558,1.706,1.436,4.376-0.271,5.934
	l-0.851,0.776c-1.182,1.08-1.138,2.959,0.097,3.977c0.608,0.502,1.225,0.99,1.849,1.463c1.245,0.945,3.035,0.604,3.845-0.732
	l0.679-1.119c1.071-1.766,3.26-2.6,5.18-1.84c2.478,0.98,3.387,3.915,2.065,6.094l-0.603,0.994
	c-0.831,1.369-0.257,3.162,1.218,3.789c0.726,0.309,1.455,0.602,2.19,0.879c1.46,0.552,3.077-0.281,3.478-1.789l0.368-1.385
	c0.593-2.232,2.905-3.574,5.138-2.981l0,0c2.232,0.593,3.574,2.905,2.981,5.138l-0.295,1.109c-0.411,1.549,0.645,3.106,2.235,3.293
	c0.78,0.091,1.562,0.166,2.344,0.227c1.557,0.119,2.875-1.135,2.835-2.695l-0.037-1.42c-0.06-2.309,1.78-4.248,4.09-4.309
	c2.31-0.06,4.248,1.781,4.308,4.091l0.03,1.151c0.042,1.601,1.49,2.799,3.068,2.531c0.774-0.131,1.547-0.277,2.316-0.44
	c1.528-0.323,2.442-1.899,1.963-3.386l-0.438-1.359c-0.708-2.199,0.512-4.578,2.711-5.285l0,0c2.199-0.709,4.577,0.512,5.285,2.71
	l0.356,1.104c0.49,1.524,2.22,2.266,3.659,1.563c0.705-0.345,1.404-0.704,2.099-1.079c1.373-0.741,1.805-2.51,0.928-3.801
	l-0.806-1.185c-1.299-1.91-0.799-4.535,1.111-5.835c1.91-1.299,4.536-0.799,5.835,1.112l0.647,0.951
	c0.896,1.318,2.758,1.554,3.936,0.479c0.008-0.007,0.016-0.014,0.022-0.021c0.585-0.533,1.155-1.076,1.712-1.629
	c1.104-1.094,1.009-2.908-0.192-3.895l-1.099-0.903c-1.784-1.468-2.044-4.128-0.577-5.912s4.127-2.044,5.912-0.577l0.897,0.737
	c1.236,1.017,3.09,0.705,3.922-0.663c0.41-0.674,0.806-1.354,1.186-2.041c0.757-1.366,0.163-3.088-1.273-3.699l-1.322-0.563
	c-2.126-0.905-3.125-3.384-2.22-5.51s3.384-3.124,5.51-2.22l1.063,0.452c1.475,0.628,3.168-0.196,3.578-1.745
	c0.201-0.761,0.387-1.524,0.557-2.291c0.338-1.523-0.716-3.006-2.266-3.188l-1.415-0.166c-2.295-0.27-3.951-2.367-3.683-4.661
	c-1.493-1.636-0.153-4.247,2.046-3.989l3.755,0.441c1.591,0.186,2.982-1.078,2.941-2.68c-0.021-0.784-0.056-1.568-0.107-2.352
	c-0.103-1.559-1.532-2.688-3.072-2.426l-1.282,0.219c-2.034,0.348-4.099-0.762-4.781-2.709c-0.882-2.515,0.74-5.124,3.252-5.552
	l1.143-0.194c1.578-0.27,2.558-1.874,2.068-3.398c-0.24-0.748-0.496-1.491-0.768-2.23c-0.537-1.467-2.228-2.146-3.631-1.461
	l-1.195,0.584c-1.831,0.895-4.088,0.428-5.299-1.211c-1.604-2.168-0.788-5.166,1.52-6.293l1.036-0.506
	c1.439-0.703,1.928-2.521,1.025-3.846c-0.44-0.646-0.896-1.287-1.364-1.92c-0.931-1.254-2.742-1.431-3.895-0.378l-1.053,0.96
	c-1.706,1.559-4.376,1.438-5.934-0.27c-1.558-1.705-1.437-4.376,0.27-5.934l0.851-0.777c1.182-1.078,1.138-2.957-0.097-3.976
	c-0.608-0.502-1.225-0.989-1.849-1.464c-1.244-0.944-3.034-0.602-3.845,0.734l-0.679,1.118c-1.07,1.765-3.26,2.599-5.179,1.84
	c-2.478-0.979-3.388-3.915-2.066-6.093l0.603-0.994c0.831-1.37,0.257-3.163-1.218-3.79c-0.725-0.308-1.455-0.601-2.189-0.879
	c-1.46-0.552-3.077,0.281-3.478,1.789l-0.338,1.269c-0.529,1.996-2.396,3.412-4.451,3.225c-2.653-0.242-4.353-2.802-3.698-5.265
	l0.294-1.108c0.412-1.549-0.644-3.107-2.235-3.293c-0.779-0.092-1.561-0.168-2.344-0.227c-1.557-0.119-2.875,1.135-2.834,2.695
	l0.033,1.299c0.054,2.063-1.337,3.949-3.362,4.348c-2.614,0.515-4.966-1.462-5.032-4.01l-0.03-1.152
	c-0.041-1.6-1.49-2.797-3.068-2.529c-0.773,0.131-1.546,0.277-2.315,0.439c-1.529,0.322-2.442,1.898-1.964,3.387l0.438,1.358
	c0.708,2.199-0.512,4.577-2.71,5.286c-1.596,1.457-4.164,0.774-4.826-1.282l-0.815-2.532c-0.491-1.525-2.22-2.266-3.659-1.563
	C32.1,6.096,31.4,6.455,30.706,6.83c-1.374,0.742-1.806,2.51-0.928,3.801l0.806,1.185c1.433,2.106,0.677,5.085-1.747,6.192
	c-1.878,0.857-4.106,0.139-5.268-1.568l-0.58-0.854c-0.896-1.317-2.758-1.553-3.936-0.479c-0.007,0.007-0.015,0.014-0.022,0.021
	C18.447,15.661,17.877,16.205,17.32,16.756z M21.244,43.518l2.488,1.121c-1.117,2.844-1.877,5.8-2.271,8.799l3.36,0.153
	c-0.234,1.679-0.343,3.374-0.326,5.069l-3.356-0.152c0.019,3.828,0.63,7.656,1.825,11.346l-2.558,0.969
	C17.486,61.911,17.793,52.215,21.244,43.518z M37.336,35.176c0.867-0.791,1.769-1.519,2.696-2.194l4.53,4.962
	c1.128-0.771,2.305-1.431,3.515-1.993l1.068,2.821c-1.88,0.896-3.662,2.08-5.279,3.557c-1.785,1.629-3.228,3.49-4.339,5.493
	l-2.752-1.24c1.035-1.915,2.335-3.72,3.908-5.354l-4.508-4.937C36.552,35.912,36.938,35.54,37.336,35.176z M58.01,27.004
	c1.695-0.023,3.391,0.086,5.068,0.334l-0.304,6.693c1.413,0.25,2.806,0.631,4.164,1.127L65.7,37.906
	c-4.241-1.498-8.867-1.642-13.2-0.402l-1.069-2.824c2.05-0.609,4.16-0.949,6.276-1.013L58.01,27.004z M80.84,47.931l-2.82,1.068
	c-0.897-1.88-2.08-3.662-3.558-5.28c-1.629-1.784-3.49-3.227-5.493-4.338l1.243-2.758c1.651,0.893,3.222,1.981,4.67,3.274
	l4.938-4.508c0.615,0.573,1.218,1.168,1.795,1.8s1.114,1.285,1.63,1.951l-4.938,4.508C79.313,45.006,80.15,46.443,80.84,47.931z
	 M79.601,81.467c-0.397,0.364-0.803,0.715-1.215,1.055l-4.507-4.938c-1.572,1.26-3.259,2.294-5.019,3.111l-1.068-2.822
	c1.879-0.898,3.661-2.08,5.279-3.558c1.784-1.629,3.228-3.491,4.338-5.493l2.751,1.239c-0.748,1.384-1.63,2.713-2.659,3.958
	l4.53,4.963C81.274,79.844,80.468,80.676,79.601,81.467z M60.248,89.596c-1.694,0.095-3.393,0.051-5.078-0.127l0.303-6.662
	c-1.861-0.228-3.695-0.678-5.473-1.324l1.237-2.744c4.24,1.497,8.867,1.641,13.2,0.402l1.067,2.818
	c-1.623,0.482-3.281,0.803-4.953,0.943L60.248,89.596z M36.098,68.713l2.82-1.068c0.897,1.881,2.08,3.662,3.557,5.279
	c1.63,1.785,3.491,3.229,5.494,4.339l-1.242,2.757c-1.652-0.893-3.223-1.98-4.671-3.273l-4.938,4.508
	c-0.616-0.573-1.218-1.168-1.795-1.8s-1.114-1.286-1.63-1.95l4.938-4.508C37.624,71.639,36.787,70.2,36.098,68.713z M27.485,53.712
	l6.693,0.304c0.249-1.413,0.632-2.805,1.128-4.163l2.746,1.237c-1.498,4.241-1.642,8.868-0.402,13.201l-2.823,1.068
	c-0.608-2.051-0.949-4.16-1.014-6.275l-6.662-0.304C27.127,57.085,27.237,55.391,27.485,53.712z M67.084,50.455
	c4.345,4.759,4.01,12.139-0.749,16.482c-4.758,4.345-12.138,4.01-16.482-0.749s-4.009-12.138,0.749-16.482
	C55.36,45.361,62.74,45.697,67.084,50.455z M81.63,66.791l-2.745-1.238c1.497-4.24,1.641-8.867,0.402-13.199l2.819-1.068
	c0.481,1.623,0.802,3.281,0.942,4.953l6.693,0.305c0.095,1.693,0.051,3.391-0.127,5.078l-6.662-0.304
	C82.726,63.179,82.277,65.014,81.63,66.791z M28.89,85.328c-3.093-3.389-5.493-7.164-7.212-11.152l2.554-0.968
	c1.276,2.935,2.946,5.745,5.022,8.35l2.47-2.255c0.52,0.66,1.066,1.309,1.642,1.939c0.576,0.63,1.171,1.233,1.782,1.811l-2.47,2.256
	c2.683,2.568,5.667,4.66,8.838,6.276l-1.121,2.488C36.177,91.941,32.266,89.025,28.89,85.328z M43.664,95.546l1.122-2.49
	c3.257,1.28,6.662,2.094,10.11,2.424l0.152-3.355c1.687,0.17,3.384,0.216,5.078,0.134l-0.153,3.361
	c3.388-0.135,6.763-0.734,10.026-1.792l0.969,2.557C62.058,99.305,52.361,98.998,43.664,95.546z M74.322,95.113l-0.968-2.555
	c3.208-1.395,6.268-3.262,9.072-5.611l-2.252-2.467c0.41-0.342,0.815-0.691,1.214-1.056c0.865-0.79,1.68-1.614,2.444-2.47
	l2.26,2.475c2.28-2.503,4.155-5.252,5.636-8.156l2.491,1.123c-2.131,4.218-5.048,8.129-8.745,11.504
	C82.086,90.994,78.311,93.394,74.322,95.113z M95.692,73.127l-2.487-1.121c1.281-3.258,2.091-6.664,2.422-10.112l-3.356-0.152
	c0.17-1.687,0.216-3.384,0.135-5.077l3.361,0.152c-0.136-3.388-0.73-6.764-1.789-10.027l2.553-0.967
	C99.451,54.732,99.145,64.43,95.692,73.127z M88.047,31.316c3.094,3.388,5.493,7.163,7.213,11.152l-2.558,0.969
	c-1.276-2.936-2.943-5.747-5.019-8.352l-2.47,2.256c-0.52-0.662-1.066-1.309-1.643-1.939c-0.575-0.631-1.171-1.234-1.782-1.812
	l2.471-2.255c-2.684-2.569-5.668-4.659-8.839-6.275l1.122-2.49C80.761,24.702,84.672,27.619,88.047,31.316z M73.273,21.098
	L72.15,23.59c-2.844-1.117-5.799-1.881-8.798-2.275l-0.153,3.361c-1.679-0.234-3.374-0.343-5.068-0.327l0.152-3.355
	c-3.829,0.018-7.658,0.626-11.347,1.821l-0.968-2.555C54.88,17.34,64.576,17.646,73.273,21.098z M42.615,21.531l0.968,2.554
	c-2.66,1.157-5.218,2.636-7.612,4.448l2.26,2.475c-0.921,0.685-1.816,1.422-2.682,2.211c-0.398,0.363-0.784,0.735-1.161,1.113
	l-2.252-2.467c-2.869,2.852-5.176,6.069-6.926,9.506l-2.493-1.123c2.132-4.219,5.049-8.129,8.746-11.505
	C34.851,25.65,38.627,23.25,42.615,21.531z"/>
</svg>
