<?xml version="1.0" encoding="utf-8"?>
<!-- Generator: Adobe Illustrator 16.0.0, SVG Export Plug-In . SVG Version: 6.00 Build 0)  -->
<!DOCTYPE svg PUBLIC "-//W3C//DTD SVG 1.1//EN" "http://www.w3.org/Graphics/SVG/1.1/DTD/svg11.dtd">
<svg version="1.1" id="圖層_1" xmlns="http://www.w3.org/2000/svg" xmlns:xlink="http://www.w3.org/1999/xlink" x="0px" y="0px"
	 width="100px" height="100px" viewBox="0 0 111.813 112.23" enable-background="new 0 0 111.813 112.23"
	 xml:space="preserve">
<linearGradient id="SVGID_1_" gradientUnits="userSpaceOnUse" x1="95.5322" y1="16.4888" x2="16.2803" y2="95.7407">
	<stop  offset="0.229" style="stop-color:#FADDCD"/>
	<stop  offset="0.4914" style="stop-color:#D59D7E"/>
	<stop  offset="1" style="stop-color:#AA6F50"/>
</linearGradient>
<path fill="url(#SVGID_1_)" d="M30.778,11.542l-4.697-2.96l0.621,5.518c0.229,2.029-1.787,3.571-3.686,2.818l-5.162-2.047
	l1.625,5.311c0.598,1.953-1.101,3.839-3.105,3.447l-5.45-1.063l2.573,4.92c0.946,1.811-0.377,3.977-2.419,3.96l-5.554-0.044
	l3.435,4.365c1.263,1.604,0.36,3.977-1.65,4.336l-5.467,0.978l4.177,3.659c1.537,1.346,1.086,3.843-0.824,4.566L0,51.271
	l4.778,2.829c1.758,1.04,1.772,3.578,0.027,4.64l-4.744,2.887l5.217,1.902c1.92,0.7,2.4,3.191,0.881,4.556l-4.134,3.709l5.478,0.912
	c2.016,0.335,2.945,2.696,1.702,4.316l-3.382,4.405l5.553-0.11c2.042-0.04,3.391,2.109,2.467,3.931l-2.516,4.951l5.438-1.129
	c2-0.414,3.721,1.451,3.146,3.41l-1.562,5.33l5.138-2.108c1.89-0.775,3.924,0.741,3.719,2.773l-0.555,5.525l4.662-3.017
	c1.715-1.109,3.993,0.009,4.166,2.044l0.469,5.533l4.029-3.821c1.48-1.406,3.926-0.727,4.47,1.242l1.478,5.354l3.258-4.497
	c1.199-1.653,3.727-1.435,4.623,0.4l2.436,4.991l2.377-5.02c0.873-1.846,3.399-2.096,4.617-0.456l3.312,4.458l1.413-5.371
	c0.521-1.975,2.957-2.684,4.455-1.296l4.075,3.773l0.402-5.538c0.148-2.037,2.413-3.182,4.142-2.094l4.697,2.961L85.11,98.13
	c-0.229-2.029,1.787-3.571,3.686-2.818l5.162,2.047l-1.625-5.31c-0.598-1.953,1.102-3.839,3.105-3.448l5.451,1.063l-2.574-4.921
	c-0.946-1.81,0.377-3.976,2.419-3.96l5.554,0.045l-3.434-4.365c-1.264-1.605-0.361-3.977,1.649-4.336l5.467-0.978l-4.177-3.659
	c-1.537-1.346-1.086-3.844,0.824-4.566l5.194-1.965l-4.778-2.83c-1.758-1.04-1.772-3.578-0.027-4.639l4.744-2.887l-5.217-1.903
	c-1.919-0.7-2.4-3.191-0.881-4.556l4.134-3.709l-5.478-0.912c-2.015-0.335-2.945-2.695-1.702-4.316l3.382-4.404l-5.553,0.109
	c-2.042,0.041-3.391-2.109-2.466-3.93l2.515-4.951l-5.438,1.128c-2,0.415-3.721-1.45-3.146-3.41l1.562-5.329l-5.138,2.108
	c-1.889,0.775-3.924-0.742-3.719-2.774l0.556-5.525l-4.663,3.017c-1.715,1.109-3.993-0.009-4.166-2.044l-0.469-5.533L71.836,7.49
	c-1.481,1.405-3.927,0.726-4.47-1.243l-1.479-5.353L62.63,5.391c-1.198,1.654-3.727,1.436-4.623-0.4L55.571,0l-2.377,5.02
	c-0.873,1.846-3.398,2.096-4.617,0.455l-3.312-4.457l-1.413,5.37c-0.52,1.976-2.957,2.685-4.455,1.296L35.323,3.91L34.92,9.449
	C34.772,11.486,32.507,12.631,30.778,11.542z M15.838,35.129c1.271-2.433,2.771-4.761,4.488-6.949
	c4.362,0.846,8.655,2.141,12.837,3.889c-1.969,1.857-3.672,3.925-5.096,6.144C24.083,36.731,19.991,35.703,15.838,35.129z
	 M10.887,51.755c0.262-2.732,0.772-5.454,1.541-8.128c4.359-0.859,8.825-1.275,13.356-1.232c-1.125,2.463-1.924,5.02-2.408,7.611
	C19.128,50.135,14.95,50.722,10.887,51.755z M12.737,69.631c-0.84-2.676-1.418-5.398-1.744-8.133
	c3.732-2.595,7.703-4.738,11.832-6.395c-0.083,2.645,0.149,5.311,0.712,7.939C19.739,64.77,16.108,66.976,12.737,69.631z
	 M16.328,78.007c2.48-3.81,5.353-7.29,8.554-10.38c0.918,2.481,2.138,4.863,3.648,7.088c-2.868,3.029-5.4,6.44-7.523,10.17
	C19.221,82.722,17.659,80.418,16.328,78.007z M28.013,91.729c0.825-4.42,2.103-8.735,3.833-12.885
	c1.859,1.973,3.929,3.678,6.148,5.105c-1.454,3.951-2.459,8.061-3.013,12.266C32.543,94.945,30.208,93.447,28.013,91.729z
	 M43.479,99.604c-0.9-4.406-1.342-8.885-1.302-13.381c2.466,1.127,5.024,1.929,7.618,2.414c0.141,4.209,0.758,8.395,1.829,12.498
	C48.887,100.877,46.159,100.369,43.479,99.604z M61.177,101.042c-2.527-3.714-4.625-7.685-6.265-11.846
	c2.637,0.081,5.295-0.15,7.917-0.711c1.706,3.841,3.879,7.476,6.468,10.837C66.624,100.152,63.906,100.724,61.177,101.042z
	 M84.584,91.092c-2.163,1.775-4.466,3.328-6.875,4.65c-3.739-2.488-7.179-5.377-10.265-8.615c2.474-0.916,4.85-2.133,7.066-3.639
	C77.538,86.403,80.919,88.951,84.584,91.092z M95.988,77.074c-1.276,2.446-2.782,4.787-4.511,6.987
	c-4.57-0.82-8.893-2.095-12.928-3.807c1.979-1.853,3.691-3.913,5.126-6.128C87.63,75.592,91.771,76.558,95.988,77.074z
	 M100.933,60.43c-0.262,2.747-0.775,5.482-1.547,8.171c-4.543,0.962-9.027,1.409-13.41,1.343c1.135-2.461,1.945-5.016,2.44-7.607
	C92.631,62.203,96.831,61.539,100.933,60.43z M99.102,42.684c0.831,2.667,1.403,5.379,1.725,8.104
	c-3.706,2.527-7.665,4.66-11.839,6.35c0.084-2.647-0.148-5.317-0.712-7.949C92.116,47.438,95.741,45.257,99.102,42.684z
	 M71.047,80.244c-13.326,8.362-30.908,4.338-39.271-8.988c-8.361-13.326-4.337-30.908,8.99-39.27
	c13.326-8.362,30.907-4.338,39.27,8.988C88.397,54.301,84.373,71.883,71.047,80.244z M95.515,34.256
	c-2.481,3.736-5.346,7.204-8.576,10.341c-0.919-2.484-2.14-4.87-3.652-7.097c2.898-3.066,5.436-6.452,7.58-10.102
	C92.64,29.556,94.192,31.854,95.515,34.256z M83.808,20.508c-0.855,4.5-2.162,8.797-3.886,12.83
	c-1.841-1.945-3.886-3.629-6.079-5.041c1.479-3.946,2.482-8.068,3.035-12.258C79.304,17.306,81.624,18.797,83.808,20.508z
	 M68.347,12.613c0.902,4.492,1.311,8.965,1.232,13.35c-2.438-1.108-4.967-1.898-7.531-2.381c-0.115-4.213-0.738-8.409-1.803-12.498
	C62.968,11.344,65.681,11.852,68.347,12.613z M50.511,11.203c0.58,0.836,1.139,1.678,1.672,2.527
	c1.896,3.021,3.493,6.129,4.794,9.305c-2.651-0.088-5.325,0.142-7.962,0.703c-1.781-3.838-4.023-7.45-6.627-10.791
	C45.061,12.107,47.78,11.529,50.511,11.203z M33.997,16.533c0.853,0.556,1.688,1.125,2.501,1.712
	c2.894,2.085,5.544,4.362,7.944,6.814c-2.489,0.917-4.88,2.136-7.111,3.649c-3.095-2.885-6.533-5.387-10.203-7.502
	C29.288,19.424,31.591,17.863,33.997,16.533z"/>
</svg>
