<?xml version="1.0" encoding="utf-8"?>
<!-- Generator: Adobe Illustrator 16.0.0, SVG Export Plug-In . SVG Version: 6.00 Build 0)  -->
<!DOCTYPE svg PUBLIC "-//W3C//DTD SVG 1.1//EN" "http://www.w3.org/Graphics/SVG/1.1/DTD/svg11.dtd">
<svg version="1.1" id="圖層_1" xmlns="http://www.w3.org/2000/svg" xmlns:xlink="http://www.w3.org/1999/xlink" x="0px" y="0px"
	 width="100px" height="100px" viewBox="0 0 98.454 98.669" enable-background="new 0 0 98.454 98.669" xml:space="preserve">
<linearGradient id="SVGID_1_" gradientUnits="userSpaceOnUse" x1="83.5586" y1="14.8086" x2="14.5629" y2="83.8043">
	<stop  offset="0.229" style="stop-color:#FADDCD"/>
	<stop  offset="0.4914" style="stop-color:#D59D7E"/>
	<stop  offset="1" style="stop-color:#AA6F50"/>
</linearGradient>
<path fill="url(#SVGID_1_)" stroke="#3C3C3C" stroke-miterlimit="10" d="M19.392,16.736c-0.022,0.021-0.044,0.042-0.066,0.063
	l-4.264-2.447l-1.415,1.501l-1.415,1.501l2.69,4.109c-1.448,1.773-2.74,3.635-3.872,5.567l-4.783-1.079l-0.909,1.852l-0.91,1.852
	l3.777,3.129c-0.851,2.108-1.53,4.271-2.043,6.465l-4.899,0.381l-0.323,2.037l-0.324,2.037l4.544,1.882
	c-0.112,1.323-0.158,2.651-0.151,3.979L4.964,50.97l0.091,0.004c0.017,0.461,0.036,0.924,0.067,1.385l-4.571,1.808l0.291,2.042
	l0.291,2.043l4.889,0.458c0.477,2.2,1.123,4.373,1.942,6.497l-3.827,3.068l0.88,1.865l0.881,1.866l4.802-1.002
	c1.1,1.944,2.36,3.826,3.781,5.626l-2.759,4.068l1.392,1.523l1.391,1.523l4.302-2.377c1.664,1.578,3.423,3.005,5.261,4.275
	l-1.434,4.691l1.778,1.047l1.777,1.045l3.402-3.532c2.042,1.009,4.146,1.85,6.295,2.524l0.013,4.909l2.008,0.476l2.007,0.475
	l2.216-4.389c0.456,0.074,0.914,0.135,1.373,0.193l-0.005,0.092l1.406,0.063c1.322,0.127,2.648,0.202,3.977,0.21l1.462,4.695
	l2.059-0.137l2.058-0.138l0.823-4.845c2.232-0.311,4.447-0.792,6.624-1.447l2.773,4.045l1.926-0.738l1.927-0.738l-0.641-4.86
	c2.028-0.952,3.999-2.069,5.896-3.351l3.848,3.053l1.624-1.273l1.623-1.273l-2.051-4.469c0.022-0.02,0.045-0.039,0.067-0.06
	c1.675-1.528,3.203-3.157,4.587-4.866l4.575,1.781l1.176-1.695l1.176-1.694l-3.269-3.657c1.16-1.964,2.158-4,2.991-6.088
	l4.893,0.354l0.624-1.967l0.624-1.966l-4.208-2.534c0.524-2.205,0.877-4.442,1.059-6.693l4.792-1.106l0.017-2.063l0.017-2.063
	l-4.772-1.184c-0.145-2.252-0.458-4.496-0.948-6.711l4.244-2.465l-0.592-1.977l-0.593-1.976l-4.896,0.275
	c-0.798-2.099-1.765-4.148-2.897-6.134l3.329-3.605l-1.148-1.714l-1.148-1.714l-4.606,1.709c-0.691-0.883-1.421-1.746-2.189-2.588
	c-0.77-0.843-1.563-1.648-2.38-2.416l2.12-4.433l-1.603-1.3l-1.603-1.299l-3.893,2.988c-1.874-1.309-3.828-2.457-5.846-3.442
	l0.719-4.851l-1.914-0.769l-1.914-0.77l-2.84,4.003c-2.162-0.688-4.368-1.205-6.598-1.553l-0.746-4.86l-2.056-0.171l-2.056-0.17
	l-1.537,4.672c-2.258-0.023-4.519,0.123-6.761,0.445l-2.143-4.42l-2.015,0.443l-2.016,0.442l-0.091,4.905
	c-2.156,0.64-4.273,1.448-6.334,2.427l-3.346-3.587L25.09,6.875l-1.795,1.017l1.359,4.719
	C22.826,13.833,21.065,15.208,19.392,16.736z M20.771,75.231c-6.266-6.862-9.565-15.386-9.973-23.996l12.781,0.581
	c12.015,0.547,21.311,10.729,20.765,22.743L43.763,87.34C35.226,86.154,27.036,82.093,20.771,75.231z M44.884,44.833
	c2.521-2.301,6.443-2.123,8.744,0.398c2.301,2.52,2.123,6.442-0.397,8.744c-2.521,2.301-6.442,2.122-8.744-0.398
	C42.186,51.058,42.364,47.135,44.884,44.833z M86.993,54.699c-1.188,8.538-5.247,16.727-12.109,22.992
	c-6.863,6.267-15.387,9.566-23.996,9.973l0.581-12.781c0.546-12.014,10.729-21.311,22.743-20.764L86.993,54.699z M77.344,23.579
	c6.267,6.862,9.565,15.386,9.973,23.995l-12.781-0.58C62.521,46.447,53.225,36.265,53.771,24.25l0.581-12.781
	C62.89,12.656,71.078,16.716,77.344,23.579z M47.227,11.146l-0.581,12.781C46.1,35.941,35.917,45.238,23.903,44.691L11.122,44.11
	c1.187-8.537,5.246-16.726,12.108-22.991C30.094,14.852,38.617,11.552,47.227,11.146z"/>
</svg>
