<?xml version="1.0" encoding="utf-8"?>
<!-- Generator: Adobe Illustrator 16.0.0, SVG Export Plug-In . SVG Version: 6.00 Build 0)  -->
<!DOCTYPE svg PUBLIC "-//W3C//DTD SVG 1.1//EN" "http://www.w3.org/Graphics/SVG/1.1/DTD/svg11.dtd">
<svg version="1.1" id="圖層_1" xmlns="http://www.w3.org/2000/svg" xmlns:xlink="http://www.w3.org/1999/xlink" x="0px" y="0px"
	 width="100px" height="100px" viewBox="0 0 128.614 128.898" enable-background="new 0 0 128.614 128.898"
	 xml:space="preserve">
<linearGradient id="SVGID_1_" gradientUnits="userSpaceOnUse" x1="109.2627" y1="19.231" x2="18.9015" y2="109.5922">
	<stop  offset="0.229" style="stop-color:#FADDCD"/>
	<stop  offset="0.4914" style="stop-color:#D59D7E"/>
	<stop  offset="1" style="stop-color:#AA6F50"/>
</linearGradient>
<path fill="url(#SVGID_1_)" stroke="#3C3C3C" stroke-miterlimit="10" d="M25.226,21.755c-0.029,0.026-0.058,0.054-0.087,0.081
	l-5.584-3.205l-1.854,1.966l-1.854,1.966l3.523,5.381c-1.896,2.322-3.588,4.762-5.07,7.292l-6.264-1.412l-1.191,2.425l-1.192,2.424
	l4.947,4.099c-1.113,2.761-2.004,5.592-2.676,8.467l-6.416,0.498l-0.424,2.668l-0.424,2.668l5.95,2.465
	c-0.25,2.949-0.275,5.915-0.073,8.872l-5.987,2.367l0.381,2.675l0.382,2.675l6.401,0.6c0.625,2.882,1.472,5.728,2.544,8.51
	l-5.012,4.018l1.152,2.443l1.153,2.444l6.289-1.313c1.439,2.548,3.091,5.012,4.952,7.37l-3.613,5.327l1.822,1.996l1.821,1.995
	l5.634-3.114c2.18,2.067,4.483,3.936,6.89,5.601l-1.878,6.145l2.329,1.369l2.329,1.369l4.456-4.625
	c2.673,1.32,5.43,2.422,8.243,3.305l0.017,6.43l2.629,0.623l2.63,0.621l2.9-5.746c2.926,0.469,5.883,0.713,8.842,0.73l1.915,6.15
	l2.695-0.18l2.696-0.182l1.077-6.344c2.924-0.408,5.825-1.037,8.675-1.896l3.633,5.299l2.522-0.967l2.522-0.967l-0.838-6.367
	c2.655-1.246,5.236-2.709,7.722-4.388l5.039,3.999l2.126-1.668l2.126-1.668l-2.686-5.853c0.029-0.026,0.06-0.052,0.089-0.078
	c2.192-2.002,4.194-4.134,6.007-6.374l5.991,2.334l1.54-2.22l1.54-2.221l-4.281-4.789c1.521-2.571,2.828-5.237,3.918-7.974
	l6.408,0.464l0.817-2.575l0.816-2.575l-5.51-3.32c0.687-2.886,1.147-5.816,1.386-8.765l6.275-1.449l0.021-2.702l0.022-2.701
	l-6.25-1.55c-0.189-2.949-0.601-5.888-1.242-8.789l5.559-3.229l-0.775-2.588l-0.776-2.588l-6.411,0.36
	c-1.045-2.748-2.312-5.434-3.795-8.032l4.359-4.723l-1.504-2.245l-1.504-2.244l-6.032,2.238c-0.905-1.156-1.861-2.287-2.868-3.391
	c-1.007-1.102-2.047-2.156-3.116-3.164l2.776-5.804l-2.099-1.702l-2.099-1.701l-5.099,3.913c-2.454-1.713-5.014-3.218-7.654-4.508
	l0.94-6.353l-2.507-1.007l-2.507-1.007l-3.72,5.242c-2.831-0.902-5.721-1.578-8.641-2.035l-0.976-6.364l-2.692-0.224l-2.692-0.224
	l-2.014,6.118c-2.957-0.029-5.918,0.163-8.854,0.585l-2.806-5.788l-2.64,0.579l-2.639,0.58L47.716,9.03
	c-2.823,0.836-5.598,1.896-8.296,3.178l-4.382-4.698l-2.35,1.332l-2.351,1.332l1.78,6.179
	C29.723,17.954,27.418,19.754,25.226,21.755z M25.002,33.072l24.056,19.775c-0.272,0.35-0.531,0.706-0.776,1.069L21.647,37.762
	C22.667,36.149,23.783,34.582,25.002,33.072z M20.915,38.957l26.626,16.15c-0.22,0.386-0.425,0.778-0.615,1.175L18.265,44.083
	C19.044,42.333,19.927,40.622,20.915,38.957z M15.821,50.825c0.522-1.847,1.153-3.669,1.891-5.455l28.651,12.195
	c-0.163,0.414-0.308,0.833-0.44,1.256L15.821,50.825z M15.458,52.178l30.092,7.993c-0.102,0.433-0.186,0.869-0.257,1.308
	l-30.93-3.63C14.619,55.942,14.984,54.048,15.458,52.178z M14.197,59.241l30.919,3.629c-0.038,0.443-0.059,0.889-0.067,1.334
	l-31.131,0.809C13.9,63.084,13.994,61.158,14.197,59.241z M13.951,66.413l31.121-0.808c0.024,0.445,0.068,0.89,0.124,1.333
	l-30.702,5.231C14.202,70.259,14.021,68.337,13.951,66.413z M16.085,79.173c-0.563-1.853-1.015-3.73-1.358-5.623l30.693-5.229
	c0.088,0.438,0.195,0.872,0.314,1.304L16.085,79.173z M16.513,80.507l29.641-9.546c0.15,0.421,0.32,0.835,0.501,1.246L18.665,85.879
	C17.839,84.123,17.123,82.329,16.513,80.507z M19.28,87.138l27.981-13.667c0.21,0.394,0.438,0.779,0.678,1.161L22.186,92.144
	C21.112,90.519,20.144,88.848,19.28,87.138z M26.565,97.839c-1.297-1.46-2.496-2.974-3.592-4.536l25.75-17.511
	c0.264,0.358,0.544,0.709,0.836,1.053L26.565,97.839z M27.511,98.875L50.505,77.88c0.316,0.322,0.64,0.633,0.973,0.928
	l-19.774,24.056C30.246,101.63,28.847,100.298,27.511,98.875z M32.785,103.753l19.777-24.059c0.358,0.272,0.722,0.536,1.095,0.78
	l-16.15,26.626C35.883,106.085,34.306,104.97,32.785,103.753z M38.704,107.829l16.155-26.634c0.394,0.218,0.791,0.424,1.196,0.611
	l-12.197,28.652C42.102,109.686,40.379,108.811,38.704,107.829z M45.148,111.005l12.2-28.66c0.419,0.158,0.842,0.305,1.27,0.432
	l-7.993,30.093C48.771,112.355,46.942,111.735,45.148,111.005z M51.979,113.226l7.996-30.102c0.437,0.096,0.875,0.18,1.316,0.245
	l-3.629,30.921C55.753,114.044,53.855,113.691,51.979,113.226z M59.055,114.449l3.631-30.929c0.444,0.032,0.889,0.052,1.335,0.054
	l0.808,31.121C62.9,114.724,60.973,114.642,59.055,114.449z M66.229,114.656l-0.808-31.132c0.442-0.031,0.885-0.075,1.326-0.137
	l5.229,30.692C70.07,114.382,68.151,114.574,66.229,114.656z M73.356,113.841l-5.231-30.703c0.433-0.094,0.863-0.2,1.29-0.325
	l9.546,29.641C77.114,113.026,75.243,113.488,73.356,113.841z M80.293,112.02l-9.549-29.65c0.413-0.154,0.822-0.322,1.227-0.506
	l13.667,27.981C83.89,110.678,82.105,111.402,80.293,112.02z M86.895,109.224L73.223,81.235c0.385-0.211,0.764-0.438,1.136-0.678
	l17.511,25.752C90.255,107.386,88.593,108.355,86.895,109.224z M93.022,105.514L75.51,79.758c0.349-0.262,0.688-0.541,1.022-0.831
	l20.993,22.992C96.076,103.216,94.573,104.417,93.022,105.514z M98.557,100.971L77.561,77.975c0.312-0.313,0.608-0.635,0.894-0.963
	l24.055,19.772C101.286,98.239,99.968,99.636,98.557,100.971z M103.395,95.7L79.334,75.921c0.264-0.352,0.515-0.709,0.75-1.075
	l26.626,16.151C105.705,92.615,104.599,94.184,103.395,95.7z M107.434,89.796L80.797,73.64c0.209-0.384,0.408-0.771,0.589-1.167
	l28.65,12.195C109.271,86.417,108.405,88.13,107.434,89.796z M112.423,77.934c-0.508,1.843-1.121,3.66-1.842,5.444L81.917,71.177
	c0.151-0.408,0.293-0.819,0.416-1.235L112.423,77.934z M112.778,76.58l-30.104-7.996c0.092-0.424,0.173-0.85,0.235-1.278
	l30.919,3.629C113.587,72.832,113.236,74.716,112.778,76.58z M113.988,69.542l-30.93-3.63c0.031-0.431,0.05-0.862,0.052-1.295
	l31.122-0.809C114.26,65.722,114.179,67.637,113.988,69.542z M114.193,62.408l-31.131,0.809c-0.029-0.43-0.072-0.859-0.131-1.287
	l30.695-5.229C113.925,58.592,114.113,60.499,114.193,62.408z M112.021,49.749c0.564,1.836,1.021,3.695,1.369,5.57L82.688,60.55
	c-0.09-0.421-0.193-0.839-0.312-1.255L112.021,49.749z M111.589,48.417l-29.646,9.548c-0.148-0.403-0.312-0.801-0.487-1.195
	l27.986-13.67C110.264,44.838,110.979,46.615,111.589,48.417z M105.938,36.888c1.064,1.607,2.025,3.263,2.885,4.954L80.838,55.511
	c-0.203-0.376-0.423-0.746-0.653-1.111L105.938,36.888z M101.589,31.239c1.284,1.447,2.474,2.945,3.561,4.491L79.398,53.241
	c-0.254-0.343-0.524-0.678-0.804-1.007L101.589,31.239z M69.385,70.353c-3.21,2.932-8.189,2.705-11.121-0.506
	c-2.932-3.21-2.705-8.189,0.506-11.121c3.21-2.932,8.189-2.705,11.121,0.506S72.596,67.421,69.385,70.353z M100.644,30.205
	L77.649,51.199c-0.303-0.309-0.611-0.607-0.93-0.892L96.495,26.25C97.937,27.474,99.32,28.794,100.644,30.205z M95.413,25.361
	L75.637,49.418c-0.343-0.263-0.69-0.515-1.047-0.751l16.152-26.63C92.349,23.047,93.909,24.154,95.413,25.361z M89.546,21.309
	l-16.153,26.63c-0.377-0.212-0.759-0.41-1.146-0.594l12.198-28.658C86.185,19.458,87.888,20.331,89.546,21.309z M83.157,18.137
	L70.96,46.792c-0.402-0.156-0.81-0.297-1.221-0.425l7.996-30.1C79.57,16.785,81.381,17.408,83.157,18.137z M76.382,15.907L68.388,46
	c-0.42-0.098-0.844-0.179-1.27-0.247l3.63-30.93C72.643,15.077,74.523,15.438,76.382,15.907z M69.356,14.657l-3.629,30.921
	c-0.431-0.037-0.862-0.058-1.294-0.065L63.625,14.38C65.539,14.364,67.453,14.457,69.356,14.657z M62.224,14.413l0.809,31.121
	c-0.433,0.023-0.863,0.065-1.294,0.118l-5.231-30.704C58.403,14.66,60.313,14.483,62.224,14.413z M55.125,15.178l5.229,30.69
	c-0.426,0.085-0.848,0.188-1.269,0.303l-9.55-29.653C51.378,15.962,53.244,15.517,55.125,15.178z M48.202,16.944l9.545,29.639
	c-0.41,0.144-0.814,0.308-1.216,0.48L42.858,19.071C44.606,18.254,46.392,17.546,48.202,16.944z M41.598,19.682l13.668,27.981
	c-0.386,0.201-0.765,0.419-1.139,0.648L36.613,22.557C38.231,21.495,39.896,20.536,41.598,19.682z M35.452,23.34l17.509,25.75
	c-0.353,0.254-0.701,0.521-1.041,0.803L30.925,26.897C32.383,25.612,33.894,24.426,35.452,23.34z M50.879,50.831
	c-0.319,0.307-0.628,0.62-0.921,0.943L25.897,31.995c1.235-1.443,2.566-2.832,3.989-4.156L50.879,50.831z"/>
</svg>
