<?xml version="1.0" encoding="utf-8"?>
<!-- Generator: Adobe Illustrator 16.0.0, SVG Export Plug-In . SVG Version: 6.00 Build 0)  -->
<!DOCTYPE svg PUBLIC "-//W3C//DTD SVG 1.1//EN" "http://www.w3.org/Graphics/SVG/1.1/DTD/svg11.dtd">
<svg version="1.1" id="圖層_1" xmlns="http://www.w3.org/2000/svg" xmlns:xlink="http://www.w3.org/1999/xlink" x="0px" y="0px"
	 width="131.511px" height="132.065px" viewBox="0 0 131.511 132.065" enable-background="new 0 0 131.511 132.065"
	 xml:space="preserve">
<linearGradient id="SVGID_1_" gradientUnits="userSpaceOnUse" x1="112.3965" y1="19.3926" x2="19.1157" y2="112.6734">
	<stop  offset="0.229" style="stop-color:#FADDCD"/>
	<stop  offset="0.4914" style="stop-color:#D59D7E"/>
	<stop  offset="1" style="stop-color:#AA6F50"/>
</linearGradient>
<path fill="url(#SVGID_1_)" d="M104.217,112.356l6.063,2.439l-1.881-6.258c-0.691-2.301,1.319-4.51,3.676-4.037l6.406,1.285
	l-2.998-5.807c-1.102-2.137,0.469-4.676,2.871-4.645l6.534,0.086l-4.014-5.158c-1.476-1.895-0.399-4.682,1.968-5.092l6.439-1.117
	l-4.894-4.33c-1.8-1.594-1.253-4.529,0.999-5.367l6.124-2.281l-5.605-3.359c-2.062-1.234-2.063-4.221-0.005-5.459l5.602-3.367
	l-6.128-2.271c-2.253-0.836-2.804-3.77-1.007-5.365l4.887-4.34l-6.441-1.107c-2.368-0.406-3.449-3.189-1.976-5.088l4.006-5.164
	l-6.534,0.096c-2.402,0.035-3.977-2.502-2.877-4.639l2.988-5.813l-6.405,1.295c-2.355,0.477-4.369-1.729-3.681-4.032l1.87-6.262
	l-6.059,2.45c-2.228,0.9-4.612-0.897-4.359-3.287l0.688-6.498l-5.506,3.521c-2.023,1.295-4.698-0.034-4.889-2.43L89.563,4.44
	l-4.765,4.473c-1.753,1.645-4.625,0.83-5.253-1.49L77.84,1.115l-3.861,5.271c-1.42,1.938-4.395,1.666-5.438-0.5L65.705,0
	l-2.827,5.892c-1.04,2.167-4.013,2.444-5.437,0.508l-3.869-5.266l-1.695,6.311c-0.625,2.32-3.496,3.14-5.25,1.498l-4.771-4.465
	l-0.508,6.515c-0.188,2.396-2.859,3.729-4.886,2.438l-5.511-3.513l0.698,6.497c0.257,2.39-2.125,4.191-4.354,3.294l-6.063-2.44
	l1.881,6.259c0.691,2.302-1.319,4.51-3.676,4.037l-6.407-1.284l2.998,5.808c1.103,2.135-0.468,4.674-2.87,4.643l-6.535-0.084
	l4.015,5.156c1.476,1.896,0.399,4.682-1.969,5.092L2.23,48.011l4.893,4.332c1.8,1.592,1.254,4.527-0.998,5.367L0,59.989l5.606,3.359
	c2.062,1.234,2.063,4.221,0.004,5.459L0.01,72.175l6.127,2.271c2.254,0.836,2.805,3.771,1.008,5.367l-4.887,4.338l6.441,1.107
	c2.367,0.406,3.449,3.191,1.976,5.09l-4.006,5.162l6.534-0.096c2.402-0.035,3.977,2.504,2.877,4.641l-2.988,5.811l6.404-1.295
	c2.355-0.477,4.369,1.73,3.682,4.031l-1.87,6.262l6.058-2.449c2.229-0.9,4.613,0.898,4.359,3.287l-0.688,6.498l5.506-3.52
	c2.023-1.295,4.698,0.033,4.889,2.43l0.518,6.514l4.764-4.473c1.753-1.645,4.625-0.83,5.254,1.49l1.705,6.309l3.861-5.271
	c1.42-1.939,4.395-1.666,5.438,0.498l2.836,5.889l2.826-5.893c1.04-2.166,4.014-2.443,5.437-0.508l3.869,5.266l1.696-6.311
	c0.624-2.32,3.496-3.141,5.25-1.498l4.771,4.465l0.508-6.514c0.188-2.396,2.859-3.73,4.886-2.438l5.511,3.512l-0.698-6.498
	C99.605,113.261,101.987,111.46,104.217,112.356z M107.508,63.241l9.806,0.445c2.206,0.102,3.929,1.988,3.829,4.193l-0.061,1.338
	c-0.101,2.207-1.988,3.93-4.193,3.828l-9.807-0.445c-2.205-0.1-3.929-1.986-3.828-4.193l0.061-1.338
	C103.415,64.864,105.302,63.142,107.508,63.241z M100.555,27.917c1.631-1.489,4.184-1.373,5.672,0.258l0.902,0.988
	c1.49,1.631,1.373,4.184-0.258,5.674l-7.248,6.617c-1.631,1.49-4.184,1.373-5.673-0.258l-0.902-0.988
	c-1.489-1.631-1.373-4.184,0.258-5.672L100.555,27.917z M67.604,10.646l1.338,0.061c2.206,0.101,3.929,1.987,3.828,4.193
	l-0.445,9.806c-0.101,2.206-1.987,3.931-4.193,3.829l-1.338-0.061c-2.205-0.1-3.929-1.988-3.828-4.194l0.445-9.805
	C63.511,12.268,65.398,10.545,67.604,10.646z M27.641,31.233c-1.489-1.631-1.373-4.184,0.258-5.673l0.988-0.902
	c1.631-1.489,4.184-1.373,5.673,0.258l6.618,7.249c1.489,1.631,1.373,4.184-0.258,5.674l-0.988,0.902
	c-1.631,1.488-4.184,1.373-5.674-0.258L27.641,31.233z M24.004,68.823l-9.807-0.445c-2.205-0.1-3.929-1.988-3.828-4.193l0.061-1.338
	c0.1-2.205,1.987-3.93,4.193-3.828l9.806,0.445c2.206,0.1,3.929,1.988,3.829,4.193l-0.061,1.338
	C28.097,67.2,26.209,68.925,24.004,68.823z M30.957,104.147c-1.631,1.49-4.184,1.373-5.673-0.258l-0.902-0.988
	c-1.489-1.631-1.373-4.184,0.258-5.672l7.249-6.619c1.631-1.488,4.184-1.373,5.672,0.258l0.903,0.988
	c1.489,1.631,1.373,4.184-0.258,5.674L30.957,104.147z M41.002,88.634c-12.482-13.672-11.52-34.873,2.152-47.355
	s34.873-11.518,47.355,2.152c12.482,13.672,11.519,34.873-2.152,47.355C74.686,103.269,53.484,102.306,41.002,88.634z
	 M63.907,121.419l-1.337-0.061c-2.206-0.1-3.93-1.986-3.829-4.193l0.446-9.805c0.1-2.207,1.987-3.93,4.193-3.83l1.337,0.061
	c2.206,0.102,3.929,1.988,3.829,4.193l-0.445,9.807C68.001,119.796,66.113,121.521,63.907,121.419z M102.625,107.407
	c-1.631,1.488-4.184,1.373-5.674-0.26l-6.617-7.248c-1.489-1.631-1.373-4.184,0.258-5.672l0.988-0.902
	c1.631-1.49,4.184-1.373,5.673,0.258l6.618,7.248c1.489,1.631,1.373,4.184-0.258,5.672L102.625,107.407z"/>
</svg>
