<?xml version="1.0" encoding="utf-8"?>
<!-- Generator: Adobe Illustrator 16.0.0, SVG Export Plug-In . SVG Version: 6.00 Build 0)  -->
<!DOCTYPE svg PUBLIC "-//W3C//DTD SVG 1.1//EN" "http://www.w3.org/Graphics/SVG/1.1/DTD/svg11.dtd">
<svg version="1.1" id="圖層_1" xmlns="http://www.w3.org/2000/svg" xmlns:xlink="http://www.w3.org/1999/xlink" x="0px" y="0px"
	 width="100px" height="100px" viewBox="0 0 135.038 135.334" enable-background="new 0 0 135.038 135.334"
	 xml:space="preserve">
<linearGradient id="SVGID_1_" gradientUnits="userSpaceOnUse" x1="114.7373" y1="20.1714" x2="19.8251" y2="115.0835">
	<stop  offset="0.229" style="stop-color:#FADDCD"/>
	<stop  offset="0.4914" style="stop-color:#D59D7E"/>
	<stop  offset="1" style="stop-color:#AA6F50"/>
</linearGradient>
<path fill="url(#SVGID_1_)" stroke="#3C3C3C" stroke-miterlimit="10" d="M26.468,22.825c-0.03,0.027-0.06,0.057-0.091,0.084
	l-5.865-3.365l-1.947,2.064l-1.946,2.064l3.701,5.652c-1.979,2.424-3.745,4.969-5.295,7.609l-2.687-0.552l0.004,0.003L8.414,35.5
	l-1.252,2.546L5.91,40.593l5.197,4.306c-1.17,2.898-2.105,5.873-2.811,8.893l-6.739,0.522l-0.446,2.802l-0.445,2.803l6.251,2.59
	c-0.263,3.098-0.29,6.213-0.077,9.318l-6.289,2.486l0.4,2.81l0.4,2.81l6.725,0.63c0.656,3.027,1.545,6.017,2.672,8.938l-5.264,4.22
	l1.21,2.566l1.211,2.567l6.606-1.379c1.512,2.676,3.246,5.264,5.201,7.74l-3.795,5.596l1.914,2.096l1.912,2.096l5.918-3.271
	c2.289,2.171,4.709,4.134,7.236,5.882l-1.973,6.454l2.447,1.438l2.445,1.438l4.68-4.859c2.809,1.387,5.705,2.544,8.66,3.472
	l0.018,6.754l2.761,0.654l2.762,0.653l3.047-6.036c3.073,0.492,6.179,0.748,9.287,0.768l2.011,6.459l2.832-0.189l2.831-0.188
	l1.132-6.664c3.071-0.429,6.118-1.091,9.111-1.991l3.816,5.564l2.649-1.016l2.649-1.016l-0.525-3.99l0.003,0.004l-0.306-2.727
	c2.771-1.304,5.465-2.832,8.059-4.582l5.293,4.199l2.232-1.752l2.233-1.752l-2.82-6.146c0.03-0.027,0.062-0.055,0.093-0.082
	c2.303-2.104,4.406-4.343,6.31-6.695l6.293,2.451l1.617-2.331l1.618-2.332l-4.497-5.031c1.597-2.7,2.97-5.501,4.114-8.374
	l6.732,0.486l0.857-2.704l0.858-2.705l-5.788-3.487c0.722-3.031,1.205-6.109,1.455-9.206l6.593-1.522l0.022-2.838l0.023-2.838
	l-6.564-1.627c-0.043-0.662-0.102-1.324-0.166-1.984l-0.191-1.691c-0.232-1.861-0.541-3.717-0.947-5.557l5.838-3.391l-0.814-2.719
	l-0.814-2.719l-6.734,0.379c-1.099-2.886-2.428-5.706-3.986-8.437l4.579-4.96l-1.579-2.357l-1.58-2.357l-6.336,2.352
	c-0.951-1.216-1.955-2.404-3.014-3.563c-1.057-1.158-2.149-2.266-3.273-3.323l2.918-6.097l-2.205-1.787l-2.204-1.787l-5.356,4.11
	c-2.577-1.8-5.266-3.38-8.039-4.735l0.987-6.672l-2.633-1.059l-2.634-1.058l-3.906,5.507c-1.795-0.572-3.615-1.047-5.448-1.447
	L78.766,8.03c-0.653-0.123-1.307-0.242-1.963-0.344L75.778,1L72.95,0.766l-2.828-0.235l-2.114,6.427
	c-3.105-0.031-6.216,0.171-9.301,0.614L55.76,1.491L52.988,2.1l-2.771,0.609l-0.126,6.748c-2.966,0.879-5.879,1.992-8.714,3.338
	l-4.602-4.935L34.307,9.26l-2.469,1.398l1.869,6.489C31.192,18.831,28.771,20.721,26.468,22.825z M19.903,44.668l20.548,22.505
	c1.736,1.902,2.049,4.687,0.775,6.927l-15.096,26.572C13.127,84.446,11.197,62.54,19.903,44.668z M61.605,72.94
	c-2.859-3.131-2.639-7.988,0.493-10.848s7.989-2.639,10.849,0.492c2.859,3.133,2.639,7.99-0.494,10.85
	C69.322,76.293,64.465,76.073,61.605,72.94z M30.77,105.752l27.832-12.623c2.347-1.064,5.09-0.501,6.828,1.402l20.547,22.504
	C67.39,124.084,45.748,120.174,30.77,105.752z M119.908,65.324c0.691,15.091-5.076,30.368-17.105,41.351
	c-3.261,2.977-6.797,5.465-10.514,7.473l-3.393-30.26c-0.287-2.561,1.098-4.996,3.443-6.061L119.908,65.324z M106.188,32.236
	c6.929,7.589,11.219,16.655,12.927,26.071l-28.335-5.818c-3.298-0.677-5.784-3.4-6.159-6.745l-3.223-28.747
	C90.619,19.553,99.259,24.647,106.188,32.236z M74.482,15.569l-14.955,26.32c-1.272,2.24-3.824,3.398-6.348,2.879l-29.827-6.124
	c2.337-3.52,5.136-6.814,8.397-9.792C43.778,17.87,59.516,13.51,74.482,15.569z"/>
</svg>
