<?xml version="1.0" encoding="utf-8"?>
<!-- Generator: Adobe Illustrator 16.0.0, SVG Export Plug-In . SVG Version: 6.00 Build 0)  -->
<!DOCTYPE svg PUBLIC "-//W3C//DTD SVG 1.1//EN" "http://www.w3.org/Graphics/SVG/1.1/DTD/svg11.dtd">
<svg version="1.1" id="圖層_1" xmlns="http://www.w3.org/2000/svg" xmlns:xlink="http://www.w3.org/1999/xlink" x="0px" y="0px"
	 width="133.871px" height="134.436px" viewBox="0 0 133.871 134.436" enable-background="new 0 0 133.871 134.436"
	 xml:space="preserve">
<linearGradient id="SVGID_1_" gradientUnits="userSpaceOnUse" x1="114.4141" y1="19.7412" x2="19.4584" y2="114.6969">
	<stop  offset="0.229" style="stop-color:#FADDCD"/>
	<stop  offset="0.4914" style="stop-color:#D59D7E"/>
	<stop  offset="1" style="stop-color:#AA6F50"/>
</linearGradient>
<path fill="url(#SVGID_1_)" d="M19.786,28.059l-6.522-1.307l3.052,5.91c1.122,2.174-0.476,4.76-2.923,4.728l-6.65-0.087l4.086,5.249
	c1.502,1.931,0.406,4.767-2.004,5.185L2.27,48.873l4.98,4.408c1.832,1.621,1.275,4.61-1.017,5.465L0,61.067l5.706,3.419
	c2.099,1.257,2.101,4.297,0.005,5.558L0.01,73.471l6.236,2.313c2.294,0.851,2.855,3.838,1.025,5.463l-4.974,4.416l6.556,1.127
	c2.411,0.414,3.512,3.248,2.012,5.181l-4.078,5.256l6.652-0.097c2.445-0.036,4.048,2.547,2.929,4.723l-3.042,5.915l6.52-1.317
	c2.398-0.484,4.447,1.76,3.748,4.104l-1.904,6.375l6.167-2.494c2.268-0.916,4.695,0.914,4.438,3.346l-0.7,6.615l5.604-3.584
	c2.061-1.318,4.783,0.035,4.978,2.474l0.526,6.631l4.851-4.553c1.783-1.674,4.708-0.845,5.347,1.517l1.736,6.422l3.931-5.366
	c1.446-1.974,4.473-1.695,5.535,0.508l2.887,5.993l2.878-5.997c1.058-2.205,4.085-2.488,5.533-0.517l3.939,5.359l1.727-6.424
	c0.635-2.362,3.558-3.196,5.344-1.524l4.857,4.545l0.517-6.632c0.19-2.438,2.91-3.796,4.974-2.481l5.609,3.576l-0.711-6.614
	c-0.261-2.432,2.163-4.266,4.433-3.353l6.171,2.483l-1.913-6.371c-0.704-2.342,1.342-4.59,3.74-4.109l6.522,1.308l-3.052-5.911
	c-1.122-2.173,0.477-4.759,2.922-4.727l6.651,0.086l-4.085-5.248c-1.503-1.932-0.407-4.767,2.003-5.185l6.555-1.137l-4.98-4.409
	c-1.832-1.621-1.275-4.609,1.017-5.464l6.233-2.321l-5.706-3.42c-2.099-1.257-2.101-4.297-0.004-5.557l5.701-3.428l-6.237-2.313
	c-2.294-0.85-2.855-3.838-1.025-5.462l4.974-4.417l-6.556-1.127c-2.411-0.414-3.512-3.248-2.012-5.181l4.078-5.255l-6.651,0.097
	c-2.446,0.036-4.049-2.548-2.93-4.724l3.043-5.914l-6.521,1.316c-2.397,0.485-4.447-1.76-3.747-4.104l1.903-6.374l-6.167,2.493
	c-2.268,0.917-4.695-0.913-4.438-3.346l0.7-6.615l-5.604,3.584c-2.062,1.318-4.783-0.035-4.978-2.473L91.17,4.521l-4.851,4.554
	c-1.783,1.674-4.708,0.844-5.347-1.518l-1.736-6.422l-3.931,5.367c-1.445,1.973-4.473,1.695-5.534-0.509L66.884,0l-2.877,5.998
	c-1.059,2.205-4.086,2.488-5.534,0.517l-3.938-5.36l-1.728,6.424c-0.635,2.362-3.559,3.197-5.344,1.525l-4.857-4.546l-0.517,6.632
	c-0.19,2.439-2.91,3.797-4.974,2.481l-5.609-3.575l0.711,6.613c0.262,2.433-2.163,4.267-4.433,3.354l-6.171-2.484l1.914,6.371
	C24.23,26.291,22.185,28.54,19.786,28.059z M20.319,72.574c-4.12-0.188-7.309-3.68-7.121-7.799c0.188-4.121,3.679-7.309,7.8-7.121
	c4.119,0.188,7.308,3.679,7.12,7.799S24.439,72.762,20.319,72.574z M27.21,103.488c-2.78-3.045-2.566-7.77,0.479-10.55
	s7.77-2.566,10.551,0.479c2.78,3.046,2.565,7.77-0.48,10.551C34.715,106.749,29.99,106.534,27.21,103.488z M64.492,120.955
	c-4.12-0.187-7.308-3.679-7.12-7.799c0.187-4.12,3.679-7.309,7.799-7.121s7.308,3.68,7.121,7.799
	C72.104,117.955,68.612,121.143,64.492,120.955z M103.686,96.394c2.781,3.046,2.566,7.77-0.479,10.55
	c-3.046,2.781-7.77,2.566-10.55-0.479c-2.781-3.046-2.566-7.769,0.479-10.55S100.905,93.348,103.686,96.394z M113.552,61.861
	c4.12,0.188,7.309,3.68,7.121,7.8s-3.679,7.308-7.799,7.121c-4.12-0.188-7.309-3.679-7.121-7.8
	C105.94,64.863,109.433,61.675,113.552,61.861z M106.661,30.947c2.781,3.046,2.566,7.77-0.479,10.551
	c-3.046,2.78-7.77,2.565-10.55-0.48c-2.781-3.045-2.566-7.77,0.479-10.55S103.881,27.902,106.661,30.947z M92.135,44.211
	c12.706,13.917,11.725,35.5-2.192,48.205c-13.917,12.707-35.499,11.726-48.206-2.191C29.03,76.309,30.012,54.726,43.929,42.02
	C57.846,29.313,79.428,30.294,92.135,44.211z M69.379,13.48c4.12,0.188,7.308,3.68,7.121,7.799c-0.188,4.121-3.68,7.309-7.8,7.121
	s-7.308-3.679-7.121-7.799C61.767,16.481,65.259,13.293,69.379,13.48z M41.215,27.972c2.781,3.046,2.566,7.77-0.479,10.55
	c-3.046,2.781-7.769,2.566-10.55-0.479c-2.781-3.047-2.566-7.77,0.479-10.551S38.434,24.926,41.215,27.972z"/>
</svg>
