<?xml version="1.0" encoding="utf-8"?>
<!-- Generator: Adobe Illustrator 16.0.0, SVG Export Plug-In . SVG Version: 6.00 Build 0)  -->
<!DOCTYPE svg PUBLIC "-//W3C//DTD SVG 1.1//EN" "http://www.w3.org/Graphics/SVG/1.1/DTD/svg11.dtd">
<svg version="1.1" id="圖層_1" xmlns="http://www.w3.org/2000/svg" xmlns:xlink="http://www.w3.org/1999/xlink" x="0px" y="0px"
	 width="121.932px" height="121.626px" viewBox="0 0 121.932 121.626" enable-background="new 0 0 121.932 121.626"
	 xml:space="preserve">
<g>
	<linearGradient id="SVGID_1_" gradientUnits="userSpaceOnUse" x1="103.8994" y1="17.8818" x2="18.0349" y2="103.7464">
		<stop  offset="0.229" style="stop-color:#FADDCD"/>
		<stop  offset="0.4914" style="stop-color:#D59D7E"/>
		<stop  offset="1" style="stop-color:#AA6F50"/>
	</linearGradient>
	<path fill="url(#SVGID_1_)" d="M18.26,21.534l1.049,0.863c1.663,1.365,2.199,3.75,1.13,5.617c-1.379,2.412-4.542,2.916-6.595,1.229
		l-0.937-0.77c-1.289-1.061-3.223-0.734-4.09,0.691c-0.427,0.703-0.839,1.412-1.235,2.129c-0.789,1.424-0.171,3.219,1.328,3.857
		l1.263,0.537c1.98,0.844,3.166,2.979,2.667,5.072c-0.644,2.703-3.537,4.078-5.982,3.037L5.75,43.327
		c-1.537-0.656-3.304,0.203-3.73,1.818c-0.21,0.793-0.403,1.59-0.581,2.389c-0.353,1.588,0.747,3.135,2.362,3.324l1.476,0.172
		c2.393,0.281,4.12,2.469,3.84,4.861c1.557,1.705,0.16,4.428-2.133,4.16L3.068,59.59c-1.658-0.193-3.11,1.125-3.067,2.793
		c0.021,0.818,0.058,1.637,0.111,2.453c0.107,1.625,1.598,2.803,3.204,2.529l1.46-0.25c2.375-0.404,4.648,1.207,5.054,3.582
		c0.404,2.375-1.208,4.648-3.582,5.053l-1.191,0.203C3.411,76.235,2.39,77.909,2.9,79.497c0.25,0.779,0.517,1.557,0.8,2.328
		c0.561,1.529,2.322,2.238,3.786,1.523l1.343-0.656c2.164-1.059,4.8-0.152,5.857,2.012l0,0c1.057,2.166,0.151,4.801-2.014,5.857
		l-1.08,0.529c-1.501,0.732-2.01,2.627-1.069,4.008c0.459,0.676,0.934,1.344,1.423,2.004c0.97,1.307,2.858,1.49,4.062,0.393l1.097-1
		c1.778-1.625,4.563-1.498,6.188,0.281l0,0c1.624,1.777,1.497,4.563-0.281,6.188l-0.888,0.809c-1.232,1.125-1.186,3.084,0.102,4.146
		c0.634,0.523,1.276,1.031,1.927,1.525c1.298,0.986,3.165,0.629,4.01-0.764l0.707-1.168c1.116-1.84,3.399-2.709,5.401-1.918
		c2.583,1.023,3.531,4.082,2.153,6.354l-0.628,1.037c-0.867,1.428-0.269,3.297,1.27,3.951c0.756,0.322,1.518,0.627,2.283,0.916
		c1.522,0.576,3.209-0.293,3.627-1.865l0.383-1.443c0.619-2.328,3.029-3.729,5.357-3.109l0,0c2.328,0.619,3.728,3.029,3.108,5.357
		l-0.307,1.156c-0.429,1.615,0.671,3.24,2.331,3.434c0.813,0.096,1.628,0.174,2.443,0.236c1.623,0.125,2.998-1.184,2.956-2.811
		l-0.038-1.48c-0.063-2.408,1.856-4.43,4.264-4.492c2.408-0.063,4.43,1.857,4.492,4.266l0.031,1.201
		c0.043,1.668,1.554,2.916,3.199,2.639c0.808-0.137,1.612-0.291,2.415-0.459c1.594-0.336,2.547-1.98,2.048-3.531l-0.457-1.416
		c-0.738-2.293,0.534-4.773,2.826-5.512h0.001c2.292-0.738,4.772,0.533,5.511,2.826l0.371,1.15c0.512,1.59,2.314,2.363,3.815,1.629
		c0.735-0.359,1.465-0.732,2.188-1.125c1.432-0.773,1.882-2.615,0.967-3.963l-0.84-1.234c-1.354-1.992-0.833-4.73,1.159-6.084
		c1.992-1.355,4.73-0.834,6.085,1.158l0.675,0.994c0.935,1.373,2.875,1.619,4.104,0.5c0.008-0.008,0.016-0.016,0.023-0.021
		c0.609-0.557,1.204-1.123,1.784-1.699c1.151-1.141,1.053-3.031-0.2-4.061l-1.146-0.943c-1.86-1.529-2.132-4.303-0.602-6.164
		c1.529-1.861,4.303-2.131,6.164-0.602l0.936,0.77c1.29,1.059,3.223,0.734,4.09-0.691c0.428-0.703,0.84-1.412,1.236-2.129
		c0.789-1.424,0.17-3.221-1.328-3.857l-1.379-0.588c-2.216-0.943-3.258-3.527-2.314-5.744s3.529-3.258,5.745-2.314l1.107,0.471
		c1.538,0.654,3.304-0.203,3.731-1.82c0.21-0.793,0.403-1.588,0.58-2.387c0.353-1.59-0.746-3.135-2.362-3.324l-1.476-0.174
		c-2.393-0.281-4.12-2.467-3.839-4.859c-1.558-1.705-0.161-4.43,2.133-4.16l3.915,0.459c1.658,0.195,3.109-1.123,3.067-2.793
		c-0.021-0.816-0.059-1.635-0.112-2.453c-0.106-1.625-1.598-2.801-3.203-2.527l-1.337,0.229c-2.122,0.361-4.273-0.795-4.986-2.826
		c-0.919-2.621,0.772-5.342,3.392-5.789l1.191-0.203c1.646-0.279,2.667-1.953,2.156-3.543c-0.25-0.779-0.518-1.555-0.8-2.326
		c-0.561-1.529-2.322-2.238-3.786-1.523l-1.247,0.609c-1.909,0.934-4.262,0.445-5.524-1.262c-1.672-2.262-0.821-5.387,1.584-6.563
		l1.081-0.527c1.501-0.732,2.009-2.629,1.069-4.008c-0.459-0.676-0.934-1.344-1.424-2.004c-0.969-1.309-2.858-1.492-4.061-0.395
		l-1.097,1.002c-1.779,1.625-4.563,1.498-6.188-0.281s-1.498-4.563,0.281-6.188l0.887-0.809c1.232-1.127,1.187-3.084-0.101-4.146
		c-0.635-0.523-1.277-1.031-1.928-1.525c-1.297-0.986-3.164-0.629-4.009,0.764l-0.708,1.166c-1.116,1.842-3.398,2.711-5.4,1.92
		c-2.583-1.023-3.532-4.082-2.154-6.354l0.629-1.037c0.867-1.428,0.268-3.299-1.27-3.951c-0.756-0.322-1.518-0.627-2.284-0.916
		c-1.521-0.576-3.208,0.293-3.626,1.865l-0.352,1.322c-0.553,2.08-2.498,3.559-4.642,3.361c-2.767-0.252-4.538-2.92-3.856-5.488
		l0.308-1.156c0.429-1.615-0.672-3.24-2.331-3.434c-0.813-0.096-1.628-0.174-2.443-0.236c-1.623-0.125-2.998,1.184-2.956,2.811
		l0.035,1.354c0.056,2.152-1.395,4.117-3.507,4.533c-2.726,0.537-5.178-1.523-5.246-4.18l-0.031-1.201
		c-0.044-1.668-1.555-2.918-3.2-2.639c-0.807,0.137-1.612,0.289-2.414,0.459c-1.594,0.336-2.547,1.98-2.048,3.531l0.456,1.416
		c0.739,2.293-0.533,4.773-2.826,5.512c-1.663,1.52-4.341,0.809-5.031-1.336l-0.851-2.641c-0.512-1.59-2.315-2.363-3.815-1.631
		c-0.735,0.359-1.465,0.734-2.188,1.125c-1.433,0.773-1.883,2.617-0.967,3.963l0.839,1.236c1.494,2.197,0.706,5.301-1.82,6.455
		c-1.958,0.896-4.283,0.146-5.493-1.635l-0.604-0.889c-0.935-1.375-2.876-1.619-4.104-0.5c-0.008,0.008-0.016,0.016-0.023,0.021
		c-0.609,0.557-1.204,1.123-1.784,1.699C16.909,18.614,17.008,20.504,18.26,21.534z M74.854,71.231
		c1.384,1.516,1.276,3.865-0.239,5.25c-1.516,1.383-3.866,1.275-5.25-0.24s-1.276-3.865,0.239-5.25
		C71.12,69.608,73.471,69.715,74.854,71.231z M45.474,74.924c-1.385-1.518-1.277-3.867,0.238-5.25
		c1.516-1.385,3.866-1.277,5.25,0.238s1.277,3.865-0.238,5.25C49.208,76.545,46.857,76.44,45.474,74.924z M76.173,47.338
		c1.384,1.516,1.276,3.865-0.239,5.25c-1.516,1.383-3.866,1.277-5.25-0.238s-1.276-3.867,0.239-5.25
		C72.438,45.715,74.789,45.823,76.173,47.338z M68.08,54.282c3.575,3.916,3.299,9.986-0.616,13.561
		c-3.915,3.576-9.986,3.299-13.561-0.615c-3.574-3.916-3.299-9.986,0.616-13.561S64.506,50.368,68.08,54.282z M52.28,46.02
		c1.384,1.516,1.277,3.865-0.239,5.25c-1.516,1.383-3.865,1.277-5.25-0.238c-1.383-1.516-1.276-3.867,0.239-5.25
		C48.546,44.397,50.896,44.504,52.28,46.02z"/>
</g>
</svg>
