<?xml version="1.0" encoding="utf-8"?>
<!-- Generator: Adobe Illustrator 16.0.0, SVG Export Plug-In . SVG Version: 6.00 Build 0)  -->
<!DOCTYPE svg PUBLIC "-//W3C//DTD SVG 1.1//EN" "http://www.w3.org/Graphics/SVG/1.1/DTD/svg11.dtd">
<svg version="1.1" id="圖層_1" xmlns="http://www.w3.org/2000/svg" xmlns:xlink="http://www.w3.org/1999/xlink" x="0px" y="0px"
	 width="100px" height="100px" viewBox="0 0 87.64 87.462" enable-background="new 0 0 87.64 87.462" xml:space="preserve">
<linearGradient id="SVGID_1_" gradientUnits="userSpaceOnUse" x1="74.584" y1="12.9683" x2="13.0575" y2="74.4948">
	<stop  offset="0.229" style="stop-color:#FADDCD"/>
	<stop  offset="0.4914" style="stop-color:#D59D7E"/>
	<stop  offset="1" style="stop-color:#AA6F50"/>
</linearGradient>
<path fill="url(#SVGID_1_)" d="M12.868,12.449c-0.824,0.818-0.748,2.178,0.154,2.922l0.756,0.623
	c1.199,0.986,1.59,2.703,0.826,4.044c-0.984,1.731-3.258,2.085-4.737,0.866l-0.675-0.556c-0.93-0.766-2.318-0.537-2.938,0.487
	c-0.307,0.504-0.601,1.014-0.884,1.527c-0.563,1.023-0.114,2.316,0.964,2.778l0.91,0.39c1.426,0.611,2.283,2.15,1.93,3.656
	c-0.456,1.941-2.532,2.923-4.293,2.168l-0.797-0.342c-1.107-0.475-2.374,0.139-2.678,1.3c-0.148,0.569-0.285,1.142-0.41,1.716
	c-0.25,1.143,0.544,2.257,1.706,2.397l1.062,0.128c1.72,0.208,2.967,1.785,2.771,3.506c1.123,1.23,0.127,3.186-1.522,2.986
	l-2.815-0.34c-1.193-0.145-2.232,0.8-2.197,2.001c0.017,0.589,0.045,1.177,0.086,1.765c0.081,1.169,1.155,2.02,2.309,1.826
	l1.05-0.176c1.706-0.284,3.345,0.881,3.642,2.59s-0.856,3.341-2.563,3.625l-0.855,0.144c-1.182,0.198-1.912,1.398-1.541,2.543
	c0.182,0.562,0.375,1.12,0.58,1.676c0.407,1.101,1.676,1.616,2.726,1.104l0.964-0.468c1.553-0.755,3.45-0.097,4.215,1.463l0,0
	c0.766,1.56,0.121,3.453-1.432,4.208l-0.775,0.377c-1.077,0.523-1.438,1.885-0.759,2.881c0.332,0.486,0.675,0.969,1.028,1.444
	c0.7,0.942,2.059,1.08,2.92,0.294l0.786-0.719c1.274-1.163,3.276-1.065,4.448,0.219c1.172,1.283,1.088,3.285-0.186,4.449
	l-0.637,0.58c-0.883,0.807-0.845,2.216,0.084,2.982c0.457,0.379,0.92,0.746,1.389,1.104c0.936,0.711,2.276,0.459,2.88-0.541
	l0.506-0.837c0.798-1.321,2.437-1.94,3.877-1.366c1.86,0.742,2.55,2.945,1.564,4.576l-0.449,0.743
	c-0.619,1.025-0.185,2.372,0.923,2.846c0.545,0.233,1.093,0.454,1.645,0.665c1.095,0.418,2.305-0.203,2.602-1.332l0.271-1.039
	c0.439-1.673,2.168-2.673,3.844-2.223l0,0c1.675,0.451,2.687,2.189,2.248,3.861l-0.219,0.832c-0.304,1.16,0.492,2.332,1.685,2.475
	c0.585,0.071,1.171,0.13,1.757,0.177c1.168,0.093,2.152-0.844,2.118-2.015l-0.031-1.064c-0.051-1.732,1.323-3.182,3.054-3.221
	c1.731-0.038,3.189,1.348,3.24,3.079l0.025,0.864c0.035,1.2,1.125,2.103,2.307,1.906c0.58-0.096,1.158-0.204,1.734-0.324
	c1.145-0.238,1.826-1.418,1.463-2.534l-0.332-1.021c-0.536-1.651,0.372-3.432,2.018-3.957c1.646-0.525,3.434,0.396,3.97,2.047
	l0.27,0.829c0.372,1.145,1.669,1.704,2.747,1.181c0.527-0.256,1.051-0.523,1.569-0.803c1.028-0.553,1.347-1.878,0.686-2.848
	l-0.606-0.891c-0.979-1.437-0.611-3.404,0.817-4.374s3.398-0.587,4.377,0.849l0.487,0.717c0.676,0.99,2.071,1.172,2.951,0.369
	c0.006-0.005,0.011-0.01,0.017-0.016c0.437-0.398,0.862-0.804,1.278-1.217c0.825-0.817,0.749-2.178-0.153-2.922l-0.826-0.68
	c-1.342-1.105-1.544-3.102-0.448-4.436c1.095-1.335,3.088-1.523,4.43-0.418l0.675,0.556c0.929,0.766,2.317,0.537,2.938-0.487
	c0.306-0.504,0.6-1.014,0.884-1.527c0.563-1.022,0.114-2.315-0.965-2.778l-0.992-0.425c-1.596-0.686-2.352-2.547-1.679-4.139
	s2.528-2.335,4.124-1.65l0.797,0.342c1.107,0.475,2.375-0.139,2.678-1.3c0.148-0.569,0.286-1.142,0.411-1.716
	c0.25-1.143-0.544-2.256-1.706-2.396l-1.062-0.129c-1.721-0.208-2.968-1.785-2.771-3.506c-1.124-1.23-0.127-3.186,1.522-2.986
	l2.815,0.34c1.192,0.145,2.232-0.8,2.197-2c-0.017-0.59-0.046-1.178-0.086-1.766c-0.081-1.169-1.156-2.02-2.31-1.826l-0.96,0.16
	c-1.524,0.255-3.074-0.582-3.592-2.045c-0.667-1.888,0.541-3.84,2.423-4.154l0.856-0.144c1.182-0.197,1.912-1.398,1.541-2.543
	c-0.182-0.562-0.376-1.12-0.581-1.675c-0.407-1.102-1.675-1.616-2.726-1.105l-0.895,0.435c-1.37,0.666-3.063,0.31-3.975-0.922
	c-1.208-1.63-0.604-3.876,1.123-4.716l0.775-0.377c1.077-0.523,1.438-1.885,0.758-2.881c-0.332-0.486-0.674-0.968-1.028-1.444
	c-0.7-0.942-2.059-1.08-2.92-0.294l-0.786,0.719c-1.274,1.164-3.276,1.065-4.448-0.219c-1.172-1.283-1.088-3.285,0.187-4.449
	l0.636-0.58c0.883-0.807,0.845-2.216-0.083-2.982c-0.457-0.379-0.92-0.746-1.389-1.103c-0.936-0.712-2.276-0.46-2.88,0.54
	l-0.506,0.837c-0.798,1.321-2.437,1.94-3.877,1.366c-1.859-0.742-2.55-2.945-1.564-4.576l0.449-0.743
	c0.619-1.025,0.184-2.372-0.924-2.846c-0.544-0.233-1.092-0.454-1.644-0.665C58.12,2.34,56.909,2.96,56.613,4.09l-0.249,0.95
	c-0.393,1.496-1.787,2.553-3.328,2.407c-1.989-0.188-3.27-2.113-2.786-3.958l0.218-0.832c0.305-1.16-0.491-2.331-1.684-2.475
	c-0.586-0.07-1.172-0.129-1.758-0.177c-1.167-0.093-2.152,0.845-2.117,2.015l0.028,0.975c0.046,1.547-0.992,2.957-2.509,3.252
	c-1.959,0.379-3.727-1.109-3.783-3.021L38.62,2.363c-0.035-1.2-1.124-2.103-2.307-1.906c-0.579,0.097-1.157,0.204-1.734,0.324
	c-1.145,0.238-1.825,1.418-1.463,2.535l0.332,1.02c0.537,1.651-0.371,3.432-2.018,3.957c-1.192,1.089-3.119,0.57-3.62-0.974
	l-0.618-1.901c-0.372-1.145-1.67-1.705-2.747-1.182c-0.527,0.256-1.051,0.523-1.569,0.803c-1.028,0.553-1.348,1.878-0.686,2.849
	l0.606,0.89c1.079,1.584,0.521,3.816-1.293,4.641c-1.405,0.639-3.078,0.093-3.952-1.19l-0.438-0.642
	c-0.675-0.99-2.07-1.172-2.95-0.369c-0.006,0.005-0.012,0.01-0.017,0.016C13.71,11.63,13.284,12.037,12.868,12.449z M53.618,70.666
	c-1.574,0.56-3.305-0.263-3.864-1.838c-0.56-1.574,0.263-3.304,1.837-3.863c1.574-0.561,3.305,0.262,3.864,1.836
	S55.192,70.105,53.618,70.666z M68.487,51.649c1.509,0.718,2.15,2.522,1.434,4.031c-0.718,1.509-2.522,2.151-4.031,1.434
	c-1.51-0.717-2.151-2.522-1.434-4.031C65.173,51.574,66.978,50.931,68.487,51.649z M56.772,54.627
	c0.741,0.812,0.684,2.071-0.129,2.813c-0.812,0.741-2.07,0.685-2.813-0.128c-0.741-0.813-0.684-2.071,0.128-2.813
	C54.771,53.757,56.03,53.815,56.772,54.627z M26.733,40.9c1.098,0.051,1.948,0.981,1.898,2.08c-0.05,1.098-0.98,1.948-2.08,1.898
	c-1.098-0.051-1.947-0.98-1.898-2.08C24.704,41.701,25.635,40.85,26.733,40.9z M20.374,55.268c-1.574,0.56-3.304-0.263-3.863-1.837
	c-0.561-1.574,0.262-3.305,1.836-3.864s3.305,0.263,3.865,1.837C22.771,52.978,21.948,54.708,20.374,55.268z M29.735,56.457
	c-0.742-0.812-0.684-2.071,0.128-2.813s2.071-0.684,2.813,0.128c0.74,0.812,0.684,2.071-0.129,2.813
	C31.735,57.326,30.477,57.269,29.735,56.457z M31.495,69.734c-1.51-0.718-2.15-2.522-1.434-4.031
	c0.717-1.51,2.521-2.151,4.031-1.434c1.509,0.717,2.15,2.521,1.434,4.03S33.004,70.451,31.495,69.734z M42.985,62.521
	c-1.098-0.049-1.947-0.98-1.898-2.079c0.051-1.099,0.981-1.948,2.08-1.898s1.949,0.981,1.898,2.079
	C45.016,61.722,44.085,62.572,42.985,62.521z M62.709,44.189c-0.05,1.099-0.981,1.949-2.079,1.898
	c-1.1-0.049-1.949-0.98-1.898-2.079c0.049-1.099,0.98-1.948,2.078-1.898C61.909,42.16,62.759,43.091,62.709,44.189z M66.988,31.72
	c1.574-0.56,3.304,0.263,3.864,1.837c0.56,1.574-0.263,3.304-1.837,3.864c-1.574,0.56-3.305-0.263-3.864-1.837
	S65.414,32.281,66.988,31.72z M57.628,30.531c0.74,0.813,0.684,2.072-0.129,2.813c-0.812,0.741-2.07,0.685-2.813-0.128
	c-0.741-0.813-0.684-2.072,0.128-2.813C55.626,29.662,56.886,29.719,57.628,30.531z M50.447,37.529
	c3.536,3.873,3.263,9.879-0.61,13.414c-3.872,3.536-9.878,3.263-13.414-0.609c-3.535-3.873-3.263-9.879,0.61-13.414
	C40.905,33.383,46.911,33.656,50.447,37.529z M55.868,17.255c1.508,0.717,2.15,2.521,1.434,4.03
	c-0.718,1.509-2.522,2.151-4.031,1.435c-1.51-0.718-2.151-2.522-1.434-4.031C52.554,17.179,54.358,16.538,55.868,17.255z
	 M44.376,24.466c1.1,0.051,1.949,0.981,1.898,2.08c-0.049,1.098-0.98,1.948-2.078,1.898c-1.1-0.051-1.949-0.98-1.899-2.08
	C42.347,25.267,43.278,24.417,44.376,24.466z M33.531,29.675c0.741,0.813,0.685,2.072-0.128,2.813s-2.071,0.685-2.813-0.128
	c-0.742-0.813-0.685-2.071,0.127-2.813C31.53,28.806,32.79,28.864,33.531,29.675z M18.876,35.339
	c-1.51-0.718-2.151-2.522-1.434-4.031c0.717-1.51,2.521-2.151,4.031-1.434c1.509,0.717,2.15,2.521,1.434,4.031
	C22.189,35.415,20.385,36.056,18.876,35.339z M33.744,16.324c1.574-0.561,3.305,0.262,3.864,1.836
	c0.561,1.574-0.262,3.305-1.836,3.864c-1.575,0.56-3.305-0.263-3.865-1.837C31.348,18.613,32.17,16.882,33.744,16.324z"/>
</svg>
