<?xml version="1.0" encoding="utf-8"?>
<!-- Generator: Adobe Illustrator 16.0.0, SVG Export Plug-In . SVG Version: 6.00 Build 0)  -->
<!DOCTYPE svg PUBLIC "-//W3C//DTD SVG 1.1//EN" "http://www.w3.org/Graphics/SVG/1.1/DTD/svg11.dtd">
<svg version="1.1" id="圖層_1" xmlns="http://www.w3.org/2000/svg" xmlns:xlink="http://www.w3.org/1999/xlink" x="0px" y="0px"
	 width="100px" height="100px" viewBox="0 0 119.236 119.236" enable-background="new 0 0 119.236 119.236"
	 xml:space="preserve">
<g>
	<linearGradient id="SVGID_1_" gradientUnits="userSpaceOnUse" x1="101.7734" y1="17.4644" x2="17.4651" y2="101.7727">
		<stop  offset="0.229" style="stop-color:#FADDCD"/>
		<stop  offset="0.4914" style="stop-color:#D59D7E"/>
		<stop  offset="1" style="stop-color:#AA6F50"/>
	</linearGradient>
	<path fill="url(#SVGID_1_)" d="M22.877,19.375c-1.285,1.173-3.844,0.463-5.748-1.579c-0.704,0.715-1.388,1.444-2.049,2.186
		c2.079,1.758,2.91,4.198,1.844,5.534c-1.067,1.336-3.635,1.067-5.811-0.576c-0.581,0.812-1.14,1.635-1.675,2.469
		c2.249,1.415,3.396,3.644,2.565,5.104c-0.83,1.462-3.334,1.617-5.704,0.405c-0.443,0.888-0.864,1.783-1.262,2.688
		c2.367,1.061,3.782,3.041,3.202,4.586c-0.581,1.546-2.957,2.104-5.438,1.338c-0.3,0.943-0.574,1.893-0.825,2.848
		c2.43,0.701,4.073,2.401,3.747,3.988c-0.327,1.589-2.513,2.504-5.028,2.188c-0.149,0.979-0.275,1.96-0.377,2.943
		c2.447,0.346,4.27,1.745,4.198,3.335C4.444,58.429,2.482,59.662,0,59.774c0.003,0.99,0.031,1.98,0.082,2.969
		c2.424-0.01,4.392,1.079,4.566,2.64c0.177,1.57-1.522,3.076-3.912,3.595c0.155,0.978,0.334,1.953,0.538,2.924
		c2.36-0.359,4.431,0.41,4.844,1.907c0.415,1.511-0.999,3.247-3.243,4.14c0.304,0.941,0.631,1.879,0.983,2.809
		c2.254-0.7,4.391-0.26,5.028,1.144c0.642,1.417-0.462,3.336-2.511,4.57c0.446,0.884,0.916,1.759,1.41,2.624
		c2.103-1.021,4.258-0.912,5.1,0.364c0.852,1.292,0.076,3.347-1.731,4.882c0.576,0.805,1.177,1.598,1.799,2.379
		c1.91-1.32,4.04-1.543,5.066-0.42c1.042,1.141,0.601,3.285-0.939,5.084c0.7,0.713,1.414,1.406,2.141,2.078
		c1.68-1.604,3.749-2.158,4.939-1.209c1.211,0.969,1.104,3.168-0.148,5.191c0.8,0.596,1.61,1.17,2.433,1.721
		c1.41-1.865,3.381-2.748,4.712-1.992c1.356,0.771,1.589,2.982,0.646,5.191c0.88,0.465,1.769,0.906,2.667,1.324
		c1.098-2.094,2.923-3.295,4.366-2.752c1.472,0.555,2.044,2.734,1.436,5.084c0.939,0.32,1.887,0.617,2.838,0.891
		c0.749-2.27,2.376-3.77,3.9-3.459c1.555,0.32,2.463,2.422,2.205,4.869c0.977,0.172,1.956,0.32,2.939,0.445
		c0.366-2.4,1.751-4.178,3.322-4.107c1.608,0.074,2.846,2.061,2.945,4.564c0.989,0.021,1.979,0.016,2.969-0.014
		c-0.047-2.477,1.052-4.504,2.637-4.684c1.625-0.182,3.184,1.645,3.646,4.164c0.979-0.131,1.956-0.289,2.929-0.471
		c-0.482-2.488,0.285-4.729,1.851-5.162c1.606-0.439,3.468,1.186,4.299,3.678c0.946-0.281,1.887-0.59,2.821-0.922
		c-0.933-2.43-0.534-4.84,0.972-5.523c1.544-0.699,3.683,0.676,4.882,3.084c0.893-0.43,1.778-0.881,2.654-1.359
		c-1.371-2.285-1.381-4.797,0.022-5.725c1.44-0.949,3.823,0.125,5.385,2.395c0.817-0.564,1.623-1.152,2.419-1.764
		c-1.787-2.063-2.227-4.609-0.963-5.764c1.296-1.184,3.887-0.453,5.794,1.627c0.73-0.695,1.439-1.404,2.127-2.129
		c-2.173-1.764-3.055-4.275-1.968-5.639c1.097-1.373,3.779-1.055,5.991,0.711c0.038,0.031,0.073,0.063,0.11,0.094
		c0.618-0.807,1.213-1.627,1.784-2.459c-0.027-0.016-0.055-0.027-0.082-0.043c-2.462-1.398-3.752-3.771-2.885-5.3
		c0.869-1.527,3.567-1.633,6.028-0.234c0.086,0.049,0.168,0.102,0.25,0.153c0.488-0.904,0.951-1.817,1.389-2.739
		c-0.075-0.026-0.149-0.049-0.225-0.077c-2.65-0.994-4.296-3.135-3.679-4.782c0.619-1.645,3.269-2.171,5.918-1.174
		c0.136,0.051,0.267,0.106,0.397,0.163c0.341-0.977,0.657-1.961,0.946-2.951c-0.12-0.02-0.241-0.038-0.363-0.063
		c-2.774-0.568-4.734-2.425-4.382-4.147c0.354-1.722,2.889-2.656,5.661-2.087c0.18,0.037,0.356,0.081,0.53,0.128
		c0.185-1.026,0.342-2.056,0.473-3.09c-0.158,0.002-0.318,0.001-0.48-0.007c-2.828-0.128-5.056-1.654-4.977-3.411
		c0.08-1.756,2.438-3.075,5.266-2.946c0.223,0.01,0.44,0.032,0.654,0.059c0.022-1.053,0.014-2.107-0.021-3.16
		c-0.19,0.034-0.385,0.065-0.583,0.088c-2.813,0.315-5.252-0.844-5.449-2.591c-0.194-1.748,1.927-3.419,4.739-3.734
		c0.256-0.028,0.507-0.041,0.756-0.046c-0.146-1.055-0.318-2.104-0.522-3.152c-0.212,0.078-0.429,0.151-0.653,0.214
		c-2.729,0.752-5.319-0.013-5.787-1.707c-0.467-1.694,1.367-3.679,4.097-4.43c0.275-0.075,0.55-0.132,0.821-0.178
		c-0.313-1.024-0.656-2.042-1.028-3.054c-0.216,0.123-0.439,0.243-0.676,0.35c-2.577,1.17-5.256,0.82-5.982-0.78
		c-0.726-1.602,0.775-3.847,3.354-5.016c0.278-0.126,0.559-0.231,0.836-0.322c-0.475-0.966-0.976-1.923-1.508-2.867
		c-0.206,0.166-0.42,0.329-0.651,0.48c-2.362,1.559-5.062,1.633-6.03,0.166c-0.968-1.469,0.164-3.921,2.527-5.479
		c0.262-0.173,0.528-0.323,0.795-0.461c-0.623-0.876-1.275-1.74-1.952-2.591c-0.179,0.199-0.367,0.395-0.573,0.582
		c-2.09,1.91-4.744,2.405-5.931,1.107c-1.186-1.299-0.45-3.897,1.64-5.806c0.23-0.211,0.47-0.402,0.713-0.579
		c-0.762-0.776-1.54-1.527-2.333-2.254c-0.146,0.225-0.301,0.447-0.475,0.664c-1.766,2.214-4.311,3.117-5.685,2.021
		c-1.374-1.098-1.056-3.779,0.71-5.991c0.194-0.243,0.399-0.468,0.61-0.679c-0.874-0.645-1.759-1.264-2.659-1.854
		c-0.106,0.241-0.224,0.481-0.359,0.72c-1.396,2.462-3.77,3.753-5.299,2.885c-1.528-0.868-1.633-3.567-0.235-6.027
		c0.148-0.26,0.309-0.504,0.477-0.736c-0.959-0.494-1.929-0.957-2.909-1.396c-0.065,0.238-0.138,0.479-0.229,0.719
		c-0.996,2.65-3.137,4.296-4.783,3.678c-1.645-0.619-2.171-3.268-1.175-5.917c0.097-0.257,0.207-0.501,0.324-0.739
		c-1.017-0.33-2.039-0.637-3.068-0.912c-0.027,0.223-0.06,0.445-0.106,0.67c-0.568,2.773-2.425,4.734-4.147,4.383
		c-1.723-0.355-2.656-2.889-2.087-5.661c0.05-0.237,0.11-0.466,0.177-0.69c-1.043-0.164-2.09-0.299-3.14-0.408
		c0.003,0.189,0.003,0.381-0.006,0.576c-0.127,2.828-1.654,5.055-3.411,4.977c-1.756-0.082-3.075-2.438-2.946-5.266
		C59.407,0.401,59.427,0.199,59.451,0c-1.045,0.002-2.089,0.034-3.133,0.092c0.025,0.152,0.048,0.307,0.066,0.465
		c0.316,2.813-0.845,5.251-2.591,5.449c-1.748,0.194-3.419-1.928-3.734-4.74c-0.019-0.165-0.03-0.329-0.039-0.491
		C49,0.94,47.983,1.131,46.971,1.35c0.035,0.111,0.072,0.223,0.104,0.337c0.752,2.729-0.013,5.318-1.707,5.787
		c-1.695,0.466-3.678-1.368-4.43-4.097c-0.032-0.12-0.059-0.239-0.087-0.359c-0.971,0.32-1.936,0.67-2.893,1.043
		c0.032,0.066,0.067,0.131,0.098,0.198c1.171,2.578,0.82,5.256-0.78,5.983c-1.602,0.725-3.847-0.775-5.016-3.354
		C32.229,6.82,32.204,6.75,32.175,6.68c-0.897,0.467-1.786,0.957-2.664,1.472c0.014,0.021,0.027,0.039,0.042,0.06
		c1.558,2.363,1.632,5.063,0.165,6.031c-1.469,0.968-3.921-0.164-5.479-2.527c-0.013-0.02-0.023-0.041-0.036-0.06
		c-0.805,0.595-1.598,1.213-2.378,1.854C23.687,15.589,24.161,18.202,22.877,19.375z M15.53,64.589
		c-0.896-7.996,4.859-15.206,12.855-16.102c7.996-0.896,15.205,4.859,16.102,12.854c0.896,7.997-4.858,15.206-12.855,16.104
		C23.636,78.341,16.427,72.586,15.53,64.589z M53.857,53.308c3.499-3.194,8.925-2.947,12.12,0.552
		c3.194,3.499,2.948,8.925-0.551,12.119c-3.499,3.195-8.926,2.948-12.12-0.551S50.358,56.503,53.857,53.308z M22.644,93.425
		c-3.86-4.229-6.848-8.944-8.997-13.922c4.366,4.314,10.395,6.874,16.886,6.721c-0.742,6.451,1.259,12.686,5.159,17.424
		C30.93,101.056,26.505,97.653,22.644,93.425z M50.714,103.124c-7.883-1.617-12.96-9.318-11.34-17.201
		c1.617-7.882,9.318-12.96,17.2-11.342c7.882,1.619,12.96,9.32,11.342,17.203C66.298,99.665,58.596,104.743,50.714,103.124z
		 M94.091,96.021c-3.937,3.727-8.54,6.885-13.755,9.25c-5.214,2.365-10.621,3.748-16.02,4.254c5.452-2.818,9.748-7.762,11.608-13.98
		C81.83,98.241,88.379,98.265,94.091,96.021z M78.372,87.041c-6.997-3.974-9.446-12.868-5.472-19.864
		c3.976-6.996,12.869-9.445,19.865-5.471s9.444,12.869,5.47,19.864C94.26,88.567,85.367,91.017,78.372,87.041z M109.43,54.062
		c0.638,5.69,0.283,11.261-0.903,16.55c-0.996-6.056-4.37-11.669-9.711-15.361c4.393-4.781,6.438-11.002,6.068-17.129
		C107.211,43.018,108.792,48.371,109.43,54.062z M92.422,29.715c5.425,5.942,5.007,15.157-0.936,20.582
		c-5.942,5.426-15.157,5.007-20.583-0.936s-5.007-15.157,0.936-20.583C77.781,23.354,86.996,23.772,92.422,29.715z M69.719,10.568
		c5.608,1.15,10.796,3.209,15.46,5.973c-6.067-0.925-12.448,0.55-17.609,4.489c-3.191-5.655-8.476-9.523-14.417-11.065
		C58.528,9.264,64.109,9.416,69.719,10.568z M41.308,19.22c7.327-3.324,15.963-0.078,19.286,7.25s0.077,15.963-7.251,19.286
		s-15.963,0.078-19.286-7.251C30.733,31.178,33.979,22.543,41.308,19.22z M25.368,40.172c-6.365,1.287-11.676,5.118-14.979,10.292
		c0.994-5.33,2.863-10.59,5.692-15.569c2.828-4.979,6.39-9.275,10.458-12.857C23.786,27.521,23.216,34.046,25.368,40.172z"/>
	<linearGradient id="SVGID_2_" gradientUnits="userSpaceOnUse" x1="101.7734" y1="17.4644" x2="17.4651" y2="101.7727">
		<stop  offset="0.229" style="stop-color:#FADDCD"/>
		<stop  offset="0.4914" style="stop-color:#D59D7E"/>
		<stop  offset="1" style="stop-color:#AA6F50"/>
	</linearGradient>
	<path fill="url(#SVGID_2_)" d="M49.215,118.321c0.977,0.172,1.956,0.32,2.939,0.445c0.053-0.352,0.13-0.686,0.225-1.004
		c-1.046-0.129-2.088-0.289-3.126-0.475C49.263,117.622,49.253,117.968,49.215,118.321z M61.391,119.21
		c-0.007-0.352,0.012-0.693,0.05-1.021c-1.044,0.031-2.087,0.037-3.13,0.014c0.058,0.328,0.097,0.67,0.111,1.021
		C59.411,119.245,60.4,119.239,61.391,119.21z M118.569,60.754c0.223,0.01,0.44,0.032,0.654,0.059
		c0.022-1.053,0.014-2.107-0.021-3.16c-0.19,0.034-0.385,0.065-0.583,0.088c-0.146,0.016-0.292,0.026-0.436,0.034
		c0.031,0.992,0.038,1.983,0.019,2.975C118.325,60.748,118.445,60.748,118.569,60.754z M117.91,51.415
		c0.256-0.028,0.507-0.041,0.756-0.046c-0.146-1.055-0.318-2.104-0.522-3.152c-0.212,0.078-0.429,0.151-0.653,0.214
		c-0.113,0.03-0.225,0.055-0.336,0.08c0.188,0.979,0.35,1.959,0.488,2.943C117.732,51.441,117.82,51.425,117.91,51.415z
		 M115.8,42.294c0.275-0.075,0.55-0.132,0.821-0.178c-0.313-1.024-0.656-2.042-1.028-3.054c-0.216,0.123-0.439,0.243-0.676,0.35
		c-0.085,0.038-0.17,0.071-0.255,0.106c0.342,0.938,0.66,1.883,0.954,2.833C115.678,42.333,115.737,42.312,115.8,42.294z
		 M43.109,116.911c0.111-0.338,0.244-0.656,0.392-0.957c-1.02-0.291-2.034-0.607-3.039-0.955c-0.04,0.334-0.101,0.676-0.19,1.021
		C41.211,116.341,42.158,116.638,43.109,116.911z M34.47,113.688c0.166-0.318,0.351-0.611,0.546-0.885
		c-0.968-0.447-1.924-0.926-2.871-1.428c-0.089,0.326-0.2,0.658-0.342,0.988C32.683,112.829,33.571,113.271,34.47,113.688z
		 M26.444,109.165c0.217-0.287,0.448-0.549,0.688-0.785c-0.892-0.596-1.769-1.219-2.633-1.867c-0.137,0.311-0.298,0.623-0.488,0.932
		C24.812,108.04,25.622,108.614,26.444,109.165z M117.758,70.08c0.18,0.037,0.356,0.081,0.53,0.128
		c0.185-1.026,0.342-2.056,0.473-3.09c-0.158,0.002-0.318,0.001-0.48-0.007c-0.183-0.009-0.363-0.022-0.54-0.043
		c-0.125,0.98-0.274,1.957-0.449,2.932C117.446,70.022,117.602,70.048,117.758,70.08z M112.288,33.616
		c0.278-0.126,0.559-0.231,0.836-0.322c-0.475-0.966-0.976-1.923-1.508-2.867c-0.206,0.166-0.42,0.329-0.651,0.48
		c-0.066,0.044-0.134,0.082-0.2,0.123c0.49,0.874,0.955,1.757,1.397,2.648C112.204,33.659,112.245,33.636,112.288,33.616z
		 M106.889,95.728c0.038,0.031,0.073,0.063,0.11,0.094c0.618-0.807,1.213-1.627,1.784-2.459c-0.027-0.016-0.055-0.027-0.082-0.043
		c-0.272-0.154-0.528-0.324-0.771-0.5c-0.56,0.813-1.142,1.617-1.748,2.406C106.421,95.378,106.657,95.542,106.889,95.728z
		 M11.113,24.939c-0.581,0.812-1.14,1.635-1.675,2.469c0.313,0.196,0.603,0.412,0.871,0.637c0.546-0.85,1.114-1.688,1.707-2.515
		C11.711,25.357,11.408,25.163,11.113,24.939z M92.864,107.888c0.219,0.246,0.429,0.512,0.624,0.797
		c0.817-0.564,1.623-1.152,2.419-1.764c-0.227-0.262-0.432-0.531-0.614-0.805C94.496,106.729,93.685,107.321,92.864,107.888z
		 M70.603,118.22c-0.066-0.342-0.107-0.68-0.127-1.008c-1.015,0.189-2.031,0.352-3.053,0.488c0.104,0.314,0.188,0.646,0.251,0.99
		C68.653,118.56,69.63,118.401,70.603,118.22z M17.917,18.535c-0.271-0.223-0.534-0.468-0.788-0.739
		c-0.704,0.715-1.388,1.444-2.049,2.186c0.282,0.239,0.54,0.491,0.775,0.752C16.521,19.986,17.207,19.254,17.917,18.535z
		 M115.498,79.166c0.136,0.051,0.267,0.106,0.397,0.163c0.341-0.977,0.657-1.961,0.946-2.951c-0.12-0.02-0.241-0.038-0.363-0.063
		c-0.217-0.044-0.425-0.1-0.63-0.158c-0.277,0.948-0.581,1.89-0.906,2.824C115.127,79.035,115.313,79.096,115.498,79.166z
		 M85.427,113.374c0.893-0.43,1.778-0.881,2.654-1.359c-0.179-0.297-0.333-0.598-0.465-0.898c-0.89,0.484-1.79,0.945-2.697,1.379
		C85.101,112.771,85.272,113.063,85.427,113.374z M79.573,115.813c-0.125-0.324-0.224-0.648-0.302-0.967
		c-0.961,0.34-1.93,0.656-2.903,0.945c0.144,0.297,0.273,0.613,0.384,0.943C77.698,116.454,78.639,116.146,79.573,115.813z
		 M111.845,87.785c0.086,0.049,0.168,0.102,0.25,0.153c0.488-0.904,0.951-1.817,1.389-2.739c-0.075-0.026-0.149-0.049-0.225-0.077
		c-0.249-0.093-0.484-0.198-0.714-0.311c-0.424,0.892-0.871,1.775-1.342,2.649C111.417,87.559,111.632,87.664,111.845,87.785z
		 M100.01,102.081c0.251,0.215,0.494,0.447,0.729,0.703c0.73-0.695,1.439-1.404,2.127-2.129c-0.27-0.217-0.517-0.445-0.745-0.684
		C101.438,100.688,100.735,101.392,100.01,102.081z M1.372,53.723c0.104-1.04,0.238-2.077,0.399-3.111
		c-0.349,0.005-0.708-0.012-1.076-0.059c-0.149,0.979-0.275,1.96-0.377,2.943C0.686,53.548,1.037,53.626,1.372,53.723z
		 M65.719,1.389c0.984,0.103,1.967,0.23,2.945,0.383c0.019-0.117,0.036-0.234,0.061-0.353c0.05-0.237,0.11-0.466,0.177-0.69
		c-1.043-0.164-2.09-0.299-3.14-0.408c0.003,0.189,0.003,0.381-0.006,0.576C65.749,1.063,65.736,1.228,65.719,1.389z M56.429,1.158
		c0.987-0.054,1.976-0.084,2.963-0.087c-0.001-0.153,0-0.308,0.007-0.464C59.407,0.401,59.427,0.199,59.451,0
		c-1.045,0.002-2.089,0.034-3.133,0.092c0.025,0.152,0.048,0.307,0.066,0.465C56.407,0.76,56.42,0.96,56.429,1.158z M2.989,44.75
		c0.262-0.999,0.547-1.991,0.861-2.977c-0.345-0.056-0.695-0.135-1.049-0.244c-0.3,0.943-0.574,1.893-0.825,2.848
		C2.333,44.479,2.67,44.606,2.989,44.75z M1.154,62.816c-0.057-1.056-0.085-2.111-0.084-3.168C0.727,59.713,0.371,59.758,0,59.774
		c0.003,0.99,0.031,1.98,0.082,2.969C0.452,62.742,0.811,62.77,1.154,62.816z M47.233,2.393C48.201,2.184,49.172,2,50.147,1.842
		c-0.036-0.189-0.065-0.379-0.088-0.576c-0.019-0.165-0.03-0.329-0.039-0.491C49,0.94,47.983,1.131,46.971,1.35
		c0.035,0.111,0.072,0.223,0.104,0.337C47.141,1.924,47.189,2.158,47.233,2.393z M30.054,9.083c0.857-0.503,1.726-0.981,2.603-1.438
		c-0.141-0.241-0.275-0.49-0.396-0.756C32.229,6.82,32.204,6.75,32.175,6.68c-0.897,0.467-1.786,0.957-2.664,1.472
		c0.014,0.021,0.027,0.039,0.042,0.06C29.741,8.498,29.907,8.79,30.054,9.083z M38.366,5.058c0.924-0.36,1.855-0.696,2.793-1.008
		c-0.08-0.218-0.156-0.44-0.221-0.673c-0.032-0.12-0.059-0.239-0.087-0.359c-0.971,0.32-1.936,0.67-2.893,1.043
		c0.032,0.066,0.067,0.131,0.098,0.198C38.178,4.525,38.278,4.791,38.366,5.058z M24.846,12.521c-0.213-0.25-0.416-0.52-0.606-0.807
		c-0.013-0.02-0.023-0.041-0.036-0.06c-0.805,0.595-1.598,1.213-2.378,1.854c0.247,0.275,0.467,0.562,0.664,0.851
		C23.263,13.724,24.049,13.111,24.846,12.521z M5.989,36.115c0.408-0.934,0.844-1.858,1.304-2.773
		c-0.33-0.116-0.663-0.256-0.993-0.425c-0.443,0.888-0.864,1.783-1.262,2.688C5.376,35.757,5.692,35.929,5.989,36.115z
		 M74.869,3.076c0.958,0.258,1.911,0.541,2.857,0.848c0.028-0.082,0.053-0.164,0.083-0.245c0.097-0.257,0.207-0.501,0.324-0.739
		c-1.017-0.33-2.039-0.637-3.068-0.912c-0.027,0.223-0.06,0.445-0.106,0.67C74.933,2.826,74.901,2.951,74.869,3.076z M91.83,10.693
		c0.83,0.547,1.649,1.115,2.455,1.709c0.03-0.038,0.057-0.077,0.086-0.114c0.194-0.243,0.399-0.468,0.61-0.679
		c-0.874-0.645-1.759-1.264-2.659-1.854c-0.106,0.241-0.224,0.481-0.359,0.72C91.921,10.55,91.875,10.62,91.83,10.693z
		 M12.953,96.72c0.301-0.207,0.606-0.385,0.911-0.537c-0.678-0.848-1.329-1.709-1.954-2.586c-0.228,0.258-0.479,0.508-0.756,0.744
		C11.73,95.146,12.331,95.938,12.953,96.72z M2.342,71.817c-0.22-1.043-0.413-2.09-0.575-3.142c-0.325,0.12-0.668,0.223-1.03,0.302
		c0.155,0.978,0.334,1.953,0.538,2.924C1.64,71.847,1.997,71.821,2.342,71.817z M19.221,103.462c0.262-0.25,0.534-0.473,0.811-0.67
		c-0.791-0.727-1.565-1.479-2.324-2.258c-0.184,0.289-0.391,0.572-0.627,0.85C17.78,102.097,18.494,102.79,19.221,103.462z
		 M99.191,16.439c0.731,0.671,1.449,1.364,2.153,2.079c0.033-0.031,0.063-0.063,0.096-0.092c0.23-0.211,0.47-0.402,0.713-0.579
		c-0.762-0.776-1.54-1.527-2.333-2.254c-0.146,0.225-0.301,0.447-0.475,0.664C99.296,16.321,99.243,16.379,99.191,16.439z
		 M4.897,80.515c-0.383-1.003-0.733-2.016-1.059-3.033c-0.301,0.172-0.621,0.33-0.964,0.467c0.304,0.941,0.631,1.879,0.983,2.809
		C4.209,80.647,4.556,80.568,4.897,80.515z M105.556,23.275c0.625,0.786,1.225,1.584,1.803,2.393
		c0.034-0.023,0.067-0.05,0.104-0.073c0.262-0.173,0.528-0.323,0.795-0.461c-0.623-0.876-1.275-1.74-1.952-2.591
		c-0.179,0.199-0.367,0.395-0.573,0.582C105.674,23.178,105.614,23.226,105.556,23.275z M83.649,6.204
		c0.906,0.406,1.805,0.837,2.693,1.292c0.03-0.055,0.056-0.109,0.086-0.164c0.148-0.26,0.309-0.504,0.477-0.736
		c-0.959-0.494-1.929-0.957-2.909-1.396c-0.065,0.238-0.138,0.479-0.229,0.719C83.73,6.016,83.689,6.108,83.649,6.204z
		 M8.774,88.701c-0.537-0.938-1.048-1.885-1.529-2.844c-0.267,0.218-0.555,0.423-0.869,0.613c0.446,0.884,0.916,1.759,1.41,2.624
		C8.116,88.936,8.447,88.806,8.774,88.701z"/>
</g>
</svg>
