<?xml version="1.0" encoding="utf-8"?>
<!-- Generator: Adobe Illustrator 16.0.0, SVG Export Plug-In . SVG Version: 6.00 Build 0)  -->
<!DOCTYPE svg PUBLIC "-//W3C//DTD SVG 1.1//EN" "http://www.w3.org/Graphics/SVG/1.1/DTD/svg11.dtd">
<svg version="1.1" id="圖層_1" xmlns="http://www.w3.org/2000/svg" xmlns:xlink="http://www.w3.org/1999/xlink" x="0px" y="0px"
	 width="100px" height="100px" viewBox="0 0 161.139 161.138" enable-background="new 0 0 161.139 161.138"
	 xml:space="preserve">
<g>
	<linearGradient id="SVGID_1_" gradientUnits="userSpaceOnUse" x1="137.54" y1="23.6006" x2="23.6028" y2="137.5378">
		<stop  offset="0.229" style="stop-color:#FADDCD"/>
		<stop  offset="0.4914" style="stop-color:#D59D7E"/>
		<stop  offset="1" style="stop-color:#AA6F50"/>
	</linearGradient>
	<path fill="url(#SVGID_1_)" d="M30.916,26.184c-1.736,1.586-5.194,0.627-7.767-2.133c-0.952,0.965-1.876,1.951-2.771,2.953
		c2.811,2.375,3.934,5.674,2.492,7.479c-1.442,1.807-4.912,1.441-7.852-0.777c-0.785,1.096-1.541,2.207-2.265,3.334
		c3.04,1.914,4.59,4.926,3.468,6.898c-1.121,1.975-4.506,2.186-7.709,0.547c-0.6,1.199-1.168,2.41-1.705,3.635
		c3.199,1.432,5.113,4.109,4.328,6.197c-0.785,2.09-3.996,2.842-7.35,1.807c-0.406,1.275-0.777,2.559-1.115,3.848
		c3.283,0.949,5.504,3.246,5.063,5.391c-0.44,2.148-3.395,3.385-6.794,2.957c-0.202,1.322-0.372,2.648-0.509,3.979
		c3.306,0.467,5.77,2.357,5.672,4.506C6.006,78.963,3.355,80.629,0,80.781c0.004,1.338,0.041,2.676,0.111,4.012
		c3.275-0.014,5.936,1.457,6.172,3.566c0.237,2.123-2.059,4.158-5.287,4.859c0.209,1.32,0.451,2.639,0.727,3.951
		c3.188-0.486,5.987,0.553,6.547,2.576c0.561,2.043-1.352,4.389-4.384,5.596c0.41,1.271,0.853,2.537,1.329,3.795
		c3.047-0.947,5.934-0.352,6.795,1.547c0.867,1.914-0.625,4.508-3.393,6.176c0.603,1.193,1.236,2.375,1.905,3.547
		c2.843-1.381,5.753-1.234,6.893,0.492c1.151,1.744,0.103,4.52-2.341,6.596c0.779,1.086,1.591,2.158,2.432,3.215
		c2.582-1.785,5.459-2.086,6.848-0.566c1.406,1.541,0.811,4.439-1.271,6.869c0.946,0.965,1.91,1.902,2.893,2.809
		c2.271-2.168,5.066-2.916,6.676-1.633c1.638,1.307,1.494,4.281-0.199,7.016c1.079,0.805,2.176,1.58,3.287,2.324
		c1.905-2.52,4.568-3.715,6.367-2.691c1.834,1.041,2.148,4.031,0.873,7.018c1.189,0.625,2.391,1.221,3.604,1.787
		c1.484-2.828,3.95-4.451,5.901-3.719c1.988,0.75,2.762,3.693,1.94,6.869c1.27,0.436,2.549,0.836,3.834,1.205
		c1.013-3.068,3.212-5.096,5.271-4.674c2.102,0.434,3.329,3.273,2.98,6.58c1.319,0.232,2.644,0.434,3.972,0.6
		c0.495-3.244,2.367-5.643,4.489-5.549c2.175,0.1,3.848,2.783,3.981,6.168c1.336,0.027,2.674,0.021,4.012-0.02
		c-0.063-3.346,1.421-6.086,3.564-6.326c2.195-0.246,4.302,2.221,4.928,5.627c1.323-0.18,2.643-0.393,3.957-0.637
		c-0.652-3.363,0.387-6.393,2.502-6.977c2.17-0.596,4.687,1.602,5.809,4.971c1.279-0.383,2.549-0.799,3.813-1.246
		c-1.26-3.283-0.721-6.541,1.313-7.465c2.086-0.945,4.978,0.912,6.597,4.168c1.207-0.58,2.404-1.191,3.588-1.838
		c-1.853-3.088-1.866-6.484,0.03-7.736c1.947-1.281,5.168,0.168,7.277,3.236c1.104-0.764,2.194-1.559,3.269-2.385
		c-2.414-2.787-3.008-6.229-1.301-7.789c1.752-1.598,5.253-0.613,7.83,2.199c0.987-0.939,1.944-1.898,2.874-2.875
		c-2.937-2.385-4.128-5.779-2.659-7.621c1.483-1.857,5.108-1.426,8.097,0.959c0.052,0.041,0.1,0.086,0.148,0.129
		c0.837-1.092,1.64-2.201,2.412-3.324c-0.037-0.021-0.074-0.037-0.111-0.059c-3.326-1.889-5.07-5.096-3.898-7.162
		c1.175-2.064,4.822-2.205,8.146-0.316c0.118,0.066,0.228,0.137,0.339,0.207c0.659-1.221,1.285-2.455,1.876-3.701
		c-0.102-0.035-0.201-0.066-0.303-0.104c-3.582-1.346-5.806-4.238-4.972-6.463c0.837-2.223,4.417-2.936,7.998-1.588
		c0.183,0.068,0.359,0.145,0.536,0.221c0.461-1.318,0.889-2.648,1.279-3.988c-0.162-0.025-0.326-0.051-0.491-0.084
		c-3.748-0.77-6.398-3.279-5.921-5.607c0.479-2.326,3.903-3.59,7.65-2.818c0.243,0.051,0.481,0.107,0.717,0.172
		c0.249-1.387,0.462-2.777,0.639-4.176c-0.215,0.002-0.431,0.002-0.649-0.01c-3.822-0.172-6.833-2.236-6.726-4.609
		c0.108-2.373,3.295-4.156,7.115-3.982c0.302,0.014,0.596,0.045,0.885,0.08c0.03-1.424,0.019-2.848-0.027-4.271
		c-0.258,0.047-0.521,0.09-0.788,0.119c-3.802,0.428-7.097-1.139-7.363-3.502c-0.264-2.361,2.604-4.619,6.404-5.045
		c0.346-0.039,0.685-0.055,1.021-0.063c-0.197-1.426-0.43-2.846-0.705-4.26c-0.286,0.105-0.579,0.205-0.884,0.287
		c-3.688,1.018-7.188-0.016-7.82-2.305c-0.631-2.291,1.848-4.973,5.536-5.986c0.373-0.102,0.743-0.18,1.11-0.24
		c-0.424-1.385-0.888-2.762-1.389-4.127c-0.293,0.166-0.596,0.328-0.914,0.471c-3.483,1.582-7.103,1.109-8.085-1.055
		c-0.981-2.162,1.048-5.197,4.531-6.777c0.377-0.17,0.755-0.313,1.13-0.436c-0.642-1.307-1.318-2.598-2.038-3.875
		c-0.277,0.225-0.567,0.445-0.88,0.648c-3.192,2.107-6.84,2.207-8.149,0.225c-1.308-1.984,0.223-5.297,3.417-7.402
		c0.353-0.234,0.712-0.438,1.073-0.623c-0.843-1.186-1.724-2.352-2.639-3.502c-0.241,0.27-0.497,0.533-0.774,0.787
		c-2.824,2.582-6.411,3.25-8.015,1.496c-1.603-1.754-0.609-5.268,2.215-7.846c0.313-0.285,0.635-0.545,0.964-0.783
		c-1.029-1.049-2.08-2.064-3.152-3.045c-0.198,0.303-0.407,0.604-0.642,0.896c-2.386,2.992-5.825,4.213-7.684,2.732
		c-1.856-1.484-1.426-5.107,0.961-8.096c0.263-0.33,0.539-0.633,0.824-0.918c-1.18-0.871-2.377-1.707-3.593-2.506
		c-0.145,0.326-0.303,0.65-0.486,0.973c-1.888,3.326-5.094,5.072-7.161,3.898c-2.064-1.174-2.206-4.822-0.317-8.146
		c0.2-0.352,0.417-0.682,0.644-0.996c-1.295-0.666-2.607-1.293-3.931-1.885c-0.089,0.32-0.188,0.645-0.31,0.969
		c-1.346,3.582-4.239,5.807-6.464,4.973c-2.223-0.838-2.934-4.418-1.588-7.996c0.131-0.348,0.279-0.68,0.438-1
		c-1.374-0.447-2.756-0.861-4.146-1.232c-0.037,0.299-0.082,0.602-0.145,0.906c-0.769,3.746-3.277,6.398-5.604,5.922
		c-2.328-0.48-3.591-3.904-2.82-7.65c0.066-0.322,0.148-0.631,0.239-0.934c-1.41-0.221-2.825-0.404-4.243-0.551
		c0.004,0.256,0.003,0.514-0.008,0.777c-0.172,3.822-2.237,6.83-4.61,6.727c-2.374-0.109-4.156-3.295-3.982-7.117
		C80.284,0.543,80.312,0.27,80.344,0c-1.411,0.002-2.822,0.047-4.234,0.123c0.035,0.207,0.065,0.416,0.091,0.629
		c0.428,3.801-1.142,7.096-3.501,7.363c-2.362,0.264-4.621-2.604-5.047-6.404c-0.025-0.225-0.041-0.445-0.054-0.664
		c-1.379,0.225-2.753,0.482-4.121,0.777c0.048,0.15,0.099,0.301,0.142,0.455c1.017,3.688-0.017,7.188-2.307,7.82
		c-2.291,0.631-4.971-1.85-5.987-5.535c-0.043-0.162-0.079-0.324-0.117-0.486c-1.312,0.434-2.615,0.904-3.908,1.41
		c0.043,0.088,0.09,0.176,0.131,0.268c1.582,3.484,1.108,7.102-1.054,8.086c-2.165,0.979-5.199-1.049-6.778-4.531
		c-0.042-0.094-0.077-0.188-0.116-0.283c-1.213,0.631-2.414,1.293-3.601,1.988c0.019,0.027,0.038,0.053,0.056,0.08
		c2.106,3.195,2.206,6.842,0.223,8.152c-1.984,1.307-5.297-0.223-7.402-3.416c-0.017-0.027-0.031-0.055-0.049-0.08
		c-1.088,0.803-2.158,1.639-3.214,2.504C32.011,21.068,32.652,24.6,30.916,26.184z M27.475,69.49
		c-3.086-0.979-4.793-4.273-3.814-7.359s4.274-4.793,7.359-3.814c3.086,0.979,4.795,4.273,3.814,7.359
		C33.855,68.762,30.561,70.471,27.475,69.49z M32.623,124.408c-14.547-15.932-20.762-38.414-12.408-46.043
		c8.354-7.627,27.195,3.328,41.742,19.262c14.547,15.932,23.747,35.689,15.394,43.316C68.996,148.57,47.17,140.342,32.623,124.408z
		 M93.832,138.986c-3.163,0.695-6.288-1.305-6.983-4.467s1.304-6.289,4.466-6.982c3.162-0.695,6.289,1.305,6.983,4.467
		C98.993,135.166,96.993,138.291,93.832,138.986z M134.485,53.273c10.782,3.422,14.568,26.438,8.044,47.002
		s-22.888,37.188-33.671,33.768c-10.783-3.422-10.715-25.215-4.19-45.779S123.702,49.852,134.485,53.273z M125.306,39.789
		c2.183,2.391,2.014,6.098-0.377,8.281c-2.391,2.182-6.099,2.014-8.281-0.377s-2.015-6.098,0.376-8.281
		S123.122,37.398,125.306,39.789z M92.381,69.85c5.939,6.506,5.481,16.594-1.024,22.533c-6.505,5.939-16.594,5.48-22.533-1.025
		c-5.939-6.504-5.481-16.594,1.024-22.533C76.353,62.885,86.441,63.344,92.381,69.85z M66.677,17.16
		c21.07-4.631,43.648,1.229,46.077,12.277s-16.479,21.887-37.55,26.518c-21.072,4.633-42.782,2.723-45.211-8.326
		S45.605,21.793,66.677,17.16z"/>
	<linearGradient id="SVGID_2_" gradientUnits="userSpaceOnUse" x1="137.54" y1="23.6006" x2="23.6028" y2="137.5378">
		<stop  offset="0.229" style="stop-color:#FADDCD"/>
		<stop  offset="0.4914" style="stop-color:#D59D7E"/>
		<stop  offset="1" style="stop-color:#AA6F50"/>
	</linearGradient>
	<path fill="url(#SVGID_2_)" d="M66.511,159.902c1.319,0.232,2.644,0.434,3.972,0.6c0.071-0.473,0.176-0.924,0.304-1.354
		c-1.413-0.178-2.821-0.393-4.226-0.645C66.575,158.957,66.562,159.424,66.511,159.902z M82.965,161.102
		c-0.009-0.473,0.017-0.936,0.067-1.379c-1.41,0.043-2.819,0.051-4.229,0.018c0.078,0.443,0.13,0.904,0.15,1.381
		C80.289,161.148,81.627,161.143,82.965,161.102z M160.237,82.104c0.302,0.014,0.596,0.045,0.885,0.08
		c0.03-1.424,0.019-2.848-0.027-4.271c-0.258,0.047-0.521,0.09-0.788,0.119c-0.198,0.021-0.395,0.035-0.589,0.047
		c0.042,1.34,0.052,2.68,0.025,4.02C159.908,82.098,160.071,82.098,160.237,82.104z M159.348,69.484
		c0.346-0.039,0.685-0.055,1.021-0.063c-0.197-1.426-0.43-2.846-0.705-4.26c-0.286,0.105-0.579,0.205-0.884,0.287
		c-0.152,0.043-0.303,0.076-0.453,0.109c0.254,1.322,0.473,2.648,0.659,3.977C159.106,69.52,159.226,69.496,159.348,69.484z
		 M156.495,57.158c0.373-0.102,0.743-0.18,1.11-0.24c-0.424-1.385-0.888-2.762-1.389-4.127c-0.293,0.166-0.596,0.328-0.914,0.471
		c-0.115,0.053-0.23,0.096-0.345,0.145c0.462,1.268,0.893,2.545,1.289,3.828C156.331,57.211,156.41,57.182,156.495,57.158z
		 M58.259,157.996c0.151-0.457,0.331-0.887,0.53-1.293c-1.38-0.393-2.75-0.822-4.108-1.291c-0.053,0.451-0.135,0.912-0.256,1.379
		C55.694,157.227,56.974,157.627,58.259,157.996z M46.583,153.641c0.225-0.43,0.475-0.826,0.739-1.195
		c-1.309-0.604-2.602-1.25-3.881-1.93c-0.12,0.441-0.271,0.889-0.463,1.338C44.168,152.479,45.369,153.074,46.583,153.641z
		 M35.738,147.527c0.293-0.387,0.605-0.74,0.93-1.061c-1.204-0.805-2.391-1.646-3.557-2.523c-0.186,0.42-0.402,0.844-0.66,1.26
		C33.53,146.008,34.627,146.783,35.738,147.527z M159.142,94.709c0.243,0.051,0.481,0.107,0.717,0.172
		c0.249-1.387,0.462-2.777,0.639-4.176c-0.215,0.002-0.431,0.002-0.649-0.01c-0.247-0.01-0.49-0.029-0.73-0.057
		c-0.168,1.324-0.37,2.645-0.606,3.961C158.72,94.629,158.93,94.664,159.142,94.709z M151.749,45.43
		c0.377-0.17,0.755-0.313,1.13-0.436c-0.642-1.307-1.318-2.598-2.038-3.875c-0.277,0.225-0.567,0.445-0.88,0.648
		c-0.089,0.061-0.181,0.113-0.271,0.168c0.662,1.18,1.291,2.375,1.889,3.578C151.636,45.488,151.69,45.457,151.749,45.43z
		 M144.452,129.367c0.052,0.041,0.1,0.086,0.148,0.129c0.837-1.092,1.64-2.201,2.412-3.324c-0.037-0.021-0.074-0.037-0.111-0.059
		c-0.368-0.209-0.713-0.438-1.042-0.676c-0.757,1.1-1.544,2.186-2.362,3.252C143.82,128.896,144.14,129.119,144.452,129.367z
		 M15.02,33.705c-0.785,1.096-1.541,2.207-2.265,3.334c0.425,0.268,0.815,0.559,1.179,0.861c0.737-1.148,1.506-2.281,2.307-3.398
		C15.827,34.27,15.418,34.006,15.02,33.705z M125.499,145.803c0.296,0.332,0.579,0.691,0.844,1.076
		c1.104-0.764,2.194-1.559,3.269-2.385c-0.305-0.354-0.582-0.717-0.829-1.086C127.704,144.238,126.608,145.037,125.499,145.803z
		 M95.414,159.766c-0.09-0.463-0.145-0.92-0.172-1.363c-1.371,0.256-2.745,0.477-4.124,0.658c0.138,0.428,0.254,0.875,0.339,1.342
		C92.78,160.223,94.1,160.01,95.414,159.766z M24.213,25.049c-0.365-0.301-0.723-0.633-1.063-0.998
		c-0.952,0.965-1.876,1.951-2.771,2.953c0.383,0.322,0.731,0.664,1.049,1.016C22.326,27.01,23.255,26.02,24.213,25.049z
		 M156.088,106.986c0.183,0.068,0.359,0.145,0.536,0.221c0.461-1.318,0.889-2.648,1.279-3.988c-0.162-0.025-0.326-0.051-0.491-0.084
		c-0.292-0.061-0.574-0.137-0.851-0.215c-0.375,1.281-0.785,2.553-1.226,3.816C155.586,106.811,155.837,106.893,156.088,106.986z
		 M115.447,153.217c1.207-0.58,2.404-1.191,3.588-1.838c-0.24-0.4-0.449-0.809-0.628-1.215c-1.203,0.656-2.419,1.277-3.646,1.865
		C115.009,152.4,115.239,152.797,115.447,153.217z M107.537,156.514c-0.168-0.439-0.302-0.877-0.406-1.309
		c-1.3,0.461-2.608,0.887-3.925,1.277c0.194,0.402,0.37,0.83,0.519,1.277C105.004,157.377,106.273,156.961,107.537,156.514z
		 M151.149,118.635c0.118,0.066,0.228,0.137,0.339,0.207c0.659-1.221,1.285-2.455,1.876-3.701c-0.102-0.035-0.201-0.066-0.303-0.104
		c-0.336-0.125-0.654-0.27-0.965-0.42c-0.573,1.203-1.178,2.398-1.813,3.58C150.572,118.33,150.863,118.473,151.149,118.635z
		 M135.157,137.957c0.338,0.287,0.667,0.604,0.983,0.947c0.987-0.939,1.944-1.898,2.874-2.875c-0.363-0.295-0.698-0.605-1.007-0.926
		C137.087,136.072,136.136,137.023,135.157,137.957z M1.854,72.602c0.143-1.404,0.322-2.807,0.541-4.203
		c-0.473,0.006-0.957-0.018-1.454-0.08c-0.202,1.322-0.372,2.648-0.509,3.979C0.928,72.367,1.401,72.473,1.854,72.602z
		 M88.814,1.877c1.33,0.139,2.658,0.311,3.98,0.518c0.025-0.158,0.049-0.318,0.082-0.477c0.066-0.322,0.148-0.631,0.239-0.934
		c-1.41-0.221-2.825-0.404-4.243-0.551c0.004,0.256,0.003,0.514-0.008,0.777C88.855,1.436,88.838,1.658,88.814,1.877z M76.259,1.566
		c1.334-0.074,2.67-0.115,4.005-0.119c-0.001-0.207,0.001-0.414,0.009-0.627C80.284,0.543,80.312,0.27,80.344,0
		c-1.411,0.002-2.822,0.047-4.234,0.123c0.035,0.207,0.065,0.416,0.091,0.629C76.23,1.025,76.247,1.297,76.259,1.566z M4.04,60.477
		c0.354-1.352,0.739-2.691,1.163-4.023c-0.465-0.076-0.939-0.182-1.416-0.33c-0.406,1.275-0.777,2.559-1.115,3.848
		C3.152,60.111,3.608,60.283,4.04,60.477z M1.561,84.893c-0.076-1.428-0.115-2.854-0.114-4.281C0.982,80.697,0.502,80.758,0,80.781
		c0.004,1.338,0.041,2.676,0.111,4.012C0.611,84.791,1.096,84.828,1.561,84.893z M63.833,3.234c1.308-0.283,2.619-0.531,3.938-0.746
		c-0.048-0.254-0.089-0.512-0.118-0.777c-0.025-0.225-0.041-0.445-0.054-0.664c-1.379,0.225-2.753,0.482-4.121,0.777
		c0.048,0.15,0.099,0.301,0.142,0.455C63.707,2.6,63.774,2.918,63.833,3.234z M40.615,12.275c1.16-0.682,2.332-1.328,3.518-1.945
		c-0.189-0.324-0.371-0.662-0.534-1.02c-0.042-0.094-0.077-0.188-0.116-0.283c-1.213,0.631-2.414,1.293-3.601,1.988
		c0.019,0.027,0.038,0.053,0.056,0.08C40.193,11.484,40.418,11.879,40.615,12.275z M51.85,6.834
		c1.249-0.486,2.508-0.939,3.775-1.361c-0.109-0.295-0.212-0.596-0.3-0.908c-0.043-0.162-0.079-0.324-0.117-0.486
		c-1.312,0.434-2.615,0.904-3.908,1.41c0.043,0.088,0.09,0.176,0.131,0.268C51.595,6.115,51.73,6.475,51.85,6.834z M33.577,16.922
		c-0.287-0.338-0.563-0.703-0.819-1.09c-0.017-0.027-0.031-0.055-0.049-0.08c-1.088,0.803-2.158,1.639-3.214,2.504
		c0.334,0.373,0.632,0.76,0.897,1.15C31.438,18.547,32.5,17.719,33.577,16.922z M8.094,48.807c0.553-1.262,1.141-2.512,1.763-3.748
		c-0.446-0.156-0.896-0.344-1.343-0.574c-0.6,1.199-1.168,2.41-1.705,3.635C7.266,48.322,7.693,48.555,8.094,48.807z M101.18,4.158
		c1.295,0.348,2.583,0.73,3.862,1.145c0.038-0.111,0.071-0.221,0.112-0.33c0.131-0.348,0.279-0.68,0.438-1
		c-1.374-0.447-2.756-0.861-4.146-1.232c-0.037,0.299-0.082,0.602-0.145,0.906C101.267,3.82,101.225,3.99,101.18,4.158z
		 M124.102,14.451c1.122,0.738,2.229,1.508,3.319,2.309c0.04-0.051,0.075-0.104,0.115-0.152c0.263-0.33,0.539-0.633,0.824-0.918
		c-1.18-0.871-2.377-1.707-3.593-2.506c-0.145,0.326-0.303,0.65-0.486,0.973C124.225,14.258,124.163,14.352,124.102,14.451z
		 M17.506,130.709c0.406-0.281,0.818-0.52,1.232-0.725c-0.918-1.148-1.799-2.313-2.642-3.494c-0.309,0.348-0.646,0.684-1.022,1.004
		C15.854,128.58,16.665,129.652,17.506,130.709z M3.165,97.055c-0.298-1.408-0.558-2.824-0.777-4.244
		c-0.44,0.162-0.903,0.301-1.392,0.408c0.209,1.32,0.451,2.639,0.727,3.951C2.216,97.096,2.699,97.061,3.165,97.055z M25.975,139.82
		c0.355-0.338,0.723-0.639,1.098-0.904c-1.07-0.984-2.117-2-3.142-3.053c-0.249,0.391-0.528,0.775-0.849,1.148
		C24.028,137.977,24.992,138.914,25.975,139.82z M134.051,22.217c0.988,0.906,1.958,1.844,2.909,2.809
		c0.045-0.041,0.085-0.084,0.129-0.123c0.313-0.285,0.635-0.545,0.964-0.783c-1.029-1.049-2.08-2.064-3.152-3.045
		c-0.198,0.303-0.407,0.604-0.642,0.896C134.191,22.057,134.119,22.135,134.051,22.217z M6.619,108.811
		c-0.518-1.357-0.992-2.725-1.431-4.1c-0.406,0.232-0.839,0.445-1.303,0.631c0.41,1.271,0.853,2.537,1.329,3.795
		C5.688,108.988,6.157,108.883,6.619,108.811z M142.651,31.455c0.844,1.063,1.655,2.141,2.436,3.232
		c0.047-0.031,0.092-0.066,0.142-0.098c0.353-0.234,0.712-0.438,1.073-0.623c-0.843-1.186-1.724-2.352-2.639-3.502
		c-0.241,0.27-0.497,0.533-0.774,0.787C142.811,31.322,142.73,31.387,142.651,31.455z M113.047,8.385
		c1.226,0.549,2.438,1.131,3.639,1.744c0.041-0.072,0.075-0.146,0.117-0.221c0.2-0.352,0.417-0.682,0.644-0.996
		c-1.295-0.666-2.607-1.293-3.931-1.885c-0.089,0.32-0.188,0.645-0.31,0.969C113.156,8.129,113.1,8.254,113.047,8.385z
		 M11.857,119.873c-0.726-1.268-1.416-2.549-2.065-3.844c-0.36,0.295-0.751,0.572-1.175,0.83c0.603,1.193,1.236,2.375,1.905,3.547
		C10.969,120.189,11.416,120.016,11.857,119.873z"/>
</g>
</svg>
