<?xml version="1.0" encoding="utf-8"?>
<!-- Generator: Adobe Illustrator 16.0.0, SVG Export Plug-In . SVG Version: 6.00 Build 0)  -->
<!DOCTYPE svg PUBLIC "-//W3C//DTD SVG 1.1//EN" "http://www.w3.org/Graphics/SVG/1.1/DTD/svg11.dtd">
<svg version="1.1" id="圖層_1" xmlns="http://www.w3.org/2000/svg" xmlns:xlink="http://www.w3.org/1999/xlink" x="0px" y="0px"
	 width="134.741px" height="134.739px" viewBox="0 0 134.741 134.739" enable-background="new 0 0 134.741 134.739"
	 xml:space="preserve">
<g>
	<linearGradient id="SVGID_1_" gradientUnits="userSpaceOnUse" x1="115.0127" y1="19.729" x2="19.7292" y2="115.0125">
		<stop  offset="0.229" style="stop-color:#FADDCD"/>
		<stop  offset="0.4914" style="stop-color:#D59D7E"/>
		<stop  offset="1" style="stop-color:#AA6F50"/>
	</linearGradient>
	<path fill="url(#SVGID_1_)" d="M34.643,15.213c-1.666,1.045-4.367-0.261-6.07-2.915c-0.928,0.652-1.835,1.324-2.721,2.016
		c1.958,2.374,2.389,5.256,0.934,6.524c-1.457,1.271-4.257,0.453-6.344-1.813c-0.81,0.784-1.598,1.586-2.361,2.405
		c2.217,2.027,3.041,4.736,1.823,6.193s-4.032,1.125-6.423-0.701c-0.674,0.896-1.322,1.809-1.947,2.734
		c2.418,1.656,3.593,4.145,2.635,5.744c-0.957,1.602-3.711,1.742-6.316,0.391c-0.523,0.988-1.02,1.988-1.491,2.998
		c2.56,1.271,4.043,3.492,3.36,5.19c-0.684,1.701-3.299,2.278-6.031,1.417c-0.364,1.059-0.701,2.124-1.013,3.197
		c2.649,0.877,4.394,2.801,3.993,4.555c-0.402,1.762-2.832,2.736-5.615,2.361c-0.196,1.101-0.365,2.207-0.508,3.316
		c2.697,0.479,4.665,2.086,4.545,3.856c-0.121,1.781-2.314,3.113-5.075,3.207c-0.024,1.118-0.023,2.239,0.007,3.359
		c2.697,0.077,4.844,1.35,5.002,3.098c0.156,1.763-1.768,3.408-4.441,3.947c0.146,1.108,0.322,2.216,0.525,3.321
		c2.648-0.324,4.934,0.598,5.359,2.287c0.428,1.703-1.188,3.615-3.713,4.574c0.316,1.072,0.663,2.139,1.037,3.201
		c2.545-0.711,4.918-0.154,5.597,1.436c0.687,1.607-0.591,3.733-2.911,5.077C6.958,97.201,7.465,98.205,8,99.199
		c2.39-1.082,4.803-0.9,5.717,0.557c0.928,1.479,0.004,3.773-2.071,5.462c0.634,0.935,1.288,1.849,1.96,2.741
		c2.192-1.443,4.604-1.642,5.736-0.346c1.151,1.32,0.589,3.744-1.212,5.741c0.768,0.825,1.554,1.626,2.356,2.404
		c1.943-1.789,4.313-2.374,5.641-1.264c1.353,1.131,1.164,3.638-0.329,5.903c0.885,0.693,1.784,1.362,2.698,2.008
		c1.643-2.104,3.914-3.07,5.41-2.176c1.523,0.912,1.72,3.451,0.569,5.939c0.979,0.548,1.973,1.068,2.975,1.564
		c1.291-2.373,3.403-3.713,5.034-3.058c1.664,0.669,2.25,3.189,1.47,5.858c1.051,0.388,2.11,0.75,3.177,1.086
		c0.893-2.594,2.791-4.289,4.523-3.895c1.772,0.407,2.748,2.865,2.353,5.67c1.096,0.222,2.197,0.416,3.304,0.583
		c0.447-2.763,2.078-4.794,3.877-4.674c1.844,0.126,3.208,2.47,3.214,5.366c1.116,0.05,2.232,0.072,3.351,0.067
		c-0.034-2.864,1.272-5.2,3.1-5.366c1.875-0.166,3.616,2.017,4.037,4.957c1.109-0.123,2.217-0.276,3.322-0.455
		c-0.547-2.89,0.383-5.489,2.195-5.945c1.857-0.467,3.959,1.493,4.805,4.414c1.079-0.297,2.155-0.621,3.225-0.976
		c-1.063-2.817-0.566-5.613,1.182-6.36c1.793-0.764,4.226,0.91,5.503,3.75c1.022-0.464,2.038-0.955,3.046-1.475
		c-1.57-2.653-1.545-5.573,0.092-6.602c1.68-1.053,4.414,0.28,6.113,2.979c0.952-0.625,1.885-1.271,2.794-1.938
		c-2.06-2.398-2.532-5.371-1.049-6.666c1.497-1.307,4.415-0.41,6.517,1.999c0.037,0.042,0.069,0.085,0.104,0.128
		c0.852-0.773,1.678-1.565,2.48-2.375c-0.027-0.021-0.055-0.042-0.082-0.064c-2.455-2.051-3.411-4.948-2.138-6.474
		c1.274-1.522,4.296-1.095,6.749,0.956c0.087,0.072,0.166,0.146,0.248,0.221c0.725-0.906,1.424-1.828,2.096-2.765
		c-0.078-0.044-0.156-0.085-0.234-0.13c-2.745-1.642-4.143-4.354-3.124-6.061c1.021-1.703,4.072-1.754,6.816-0.111
		c0.141,0.084,0.274,0.172,0.409,0.263c0.575-1.017,1.125-2.048,1.647-3.091c-0.13-0.046-0.261-0.091-0.392-0.143
		c-2.969-1.192-4.773-3.652-4.033-5.496c0.741-1.843,3.747-2.371,6.715-1.178c0.191,0.078,0.38,0.162,0.563,0.25
		c0.412-1.104,0.795-2.218,1.149-3.34c-0.178-0.03-0.354-0.063-0.533-0.105c-3.119-0.713-5.287-2.859-4.844-4.797
		c0.443-1.936,3.33-2.927,6.447-2.213c0.246,0.057,0.484,0.125,0.717,0.197c0.236-1.166,0.439-2.34,0.615-3.518
		c-0.219,0-0.441-0.004-0.666-0.02c-3.191-0.217-5.669-1.998-5.535-3.98c0.137-1.982,2.832-3.412,6.021-3.195
		c0.291,0.021,0.572,0.058,0.85,0.103c0.051-1.202,0.071-2.405,0.057-3.61c-0.252,0.043-0.508,0.082-0.77,0.105
		c-3.188,0.285-5.912-1.088-6.09-3.066c-0.177-1.978,2.263-3.813,5.448-4.098c0.321-0.027,0.638-0.035,0.949-0.031
		c-0.142-1.203-0.317-2.403-0.526-3.603c-0.266,0.093-0.539,0.181-0.822,0.253c-3.102,0.779-6.009-0.148-6.494-2.076
		c-0.483-1.926,1.64-4.119,4.74-4.898c0.336-0.085,0.668-0.145,0.995-0.19c-0.333-1.17-0.696-2.335-1.098-3.492
		c-0.263,0.144-0.534,0.281-0.821,0.403c-2.94,1.256-5.957,0.793-6.738-1.033c-0.778-1.828,0.975-4.326,3.917-5.58
		c0.325-0.14,0.651-0.253,0.976-0.352c-0.516-1.101-1.066-2.192-1.646-3.275c-0.239,0.186-0.488,0.365-0.756,0.532
		c-2.708,1.701-5.759,1.716-6.816,0.033c-1.056-1.683,0.286-4.424,2.994-6.123c0.301-0.188,0.604-0.353,0.91-0.5
		c-0.689-1.017-1.403-2.009-2.139-2.977c-0.209,0.221-0.426,0.436-0.662,0.643c-2.409,2.104-5.422,2.595-6.729,1.1
		c-1.306-1.497-0.41-4.415,2-6.518c0.265-0.231,0.537-0.439,0.814-0.631c-0.841-0.893-1.7-1.759-2.582-2.599
		c-0.166,0.246-0.346,0.49-0.545,0.728c-2.049,2.455-4.947,3.412-6.473,2.138c-1.523-1.273-1.096-4.295,0.955-6.748
		c0.217-0.26,0.444-0.499,0.679-0.723c-0.966-0.742-1.952-1.454-2.952-2.14c-0.121,0.251-0.251,0.503-0.4,0.752
		c-1.642,2.746-4.354,4.144-6.059,3.124s-1.755-4.071-0.113-6.815c0.16-0.267,0.332-0.517,0.51-0.757
		c-1.063-0.572-2.138-1.119-3.227-1.633c-0.076,0.241-0.156,0.482-0.254,0.724c-1.191,2.969-3.652,4.774-5.496,4.034
		c-1.843-0.742-2.369-3.747-1.177-6.715c0.103-0.253,0.216-0.495,0.336-0.73c-1.127-0.393-2.264-0.756-3.409-1.088
		c-0.034,0.211-0.072,0.424-0.121,0.639c-0.713,3.118-2.861,5.285-4.797,4.845c-1.938-0.444-2.928-3.331-2.214-6.448
		c0.052-0.229,0.114-0.449,0.181-0.666c-1.162-0.208-2.329-0.383-3.502-0.53c-0.002,0.176-0.008,0.353-0.02,0.53
		c-0.215,3.191-1.998,5.668-3.98,5.535c-1.981-0.136-3.411-2.832-3.193-6.022c0.012-0.188,0.031-0.373,0.055-0.555
		c-1.168-0.021-2.337-0.015-3.508,0.024c0.018,0.131,0.037,0.262,0.049,0.396c0.287,3.185-1.086,5.91-3.064,6.089
		c-1.979,0.177-3.813-2.264-4.099-5.448c-0.012-0.14-0.018-0.278-0.024-0.417c-1.144,0.16-2.287,0.354-3.426,0.576
		c0.021,0.079,0.048,0.158,0.068,0.239c0.781,3.103-0.149,6.009-2.075,6.495c-1.927,0.482-4.12-1.639-4.899-4.741
		c-0.021-0.082-0.035-0.165-0.054-0.249c-1.092,0.337-2.179,0.703-3.259,1.099c0.012,0.024,0.023,0.048,0.034,0.073
		c1.256,2.942,0.793,5.958-1.034,6.74c-1.828,0.779-4.324-0.975-5.58-3.916c-0.01-0.024-0.018-0.05-0.028-0.074
		c-1.014,0.499-2.021,1.027-3.018,1.582C36.307,11.167,36.307,14.169,34.643,15.213z M114.82,72.716
		c4.433,2.346,2.971,10.877-1.366,19.07c-4.337,8.191-10.569,14.198-15.003,11.852c-3.688-1.952-3.92-12.003,0.16-19.709
		C102.69,76.223,111.132,70.763,114.82,72.716z M68.688,102.706c8.713-0.32,17.662,4.261,17.814,8.431
		c0.186,5.012-7.934,8.01-17.196,8.352c-9.263,0.34-17.581-2.053-17.767-7.066C51.387,108.252,59.975,103.026,68.688,102.706z
		 M23.24,95.105c-4.926-7.852-7.012-16.252-2.764-18.918c3.535-2.218,12.355,2.607,16.989,9.992s5.142,17.426,1.606,19.644
		C34.824,108.488,28.168,102.957,23.24,95.105z M111.538,39.701c4.927,7.852,7.013,16.252,2.763,18.919
		c-3.533,2.218-12.355-2.607-16.987-9.993c-4.636-7.385-5.142-17.426-1.606-19.643C99.955,26.318,106.611,31.849,111.538,39.701z
		 M87.406,54.842c6.938,11.056,3.6,25.642-7.456,32.578c-11.056,6.938-25.642,3.599-32.579-7.457
		c-6.937-11.056-3.598-25.642,7.458-32.579C65.884,40.449,80.47,43.787,87.406,54.842z M65.473,15.318
		c9.264-0.34,17.582,2.053,17.766,7.066c0.153,4.17-8.435,9.396-17.148,9.715c-8.712,0.322-17.662-4.26-17.814-8.43
		C48.092,18.658,56.21,15.66,65.473,15.318z M36.326,31.167c3.688,1.951,3.92,12.002-0.16,19.709
		c-4.077,7.706-12.52,13.166-16.207,11.213c-4.434-2.346-2.971-10.877,1.365-19.069S31.893,28.821,36.326,31.167z"/>
	<g>
		<linearGradient id="SVGID_2_" gradientUnits="userSpaceOnUse" x1="115.0127" y1="19.729" x2="19.7292" y2="115.0125">
			<stop  offset="0.229" style="stop-color:#FADDCD"/>
			<stop  offset="0.4914" style="stop-color:#D59D7E"/>
			<stop  offset="1" style="stop-color:#AA6F50"/>
		</linearGradient>
		<path fill="url(#SVGID_2_)" d="M43.954,130.535c1.051,0.388,2.11,0.75,3.177,1.086c0.13-0.378,0.283-0.733,0.453-1.068
			c-1.137-0.356-2.264-0.744-3.38-1.16C44.148,129.766,44.066,130.148,43.954,130.535z M57.311,133.979
			c0.063-0.392,0.153-0.767,0.262-1.126c-1.166-0.175-2.327-0.379-3.482-0.617c-0.002,0.377-0.027,0.765-0.083,1.16
			C55.103,133.618,56.204,133.812,57.311,133.979z M132.678,80.531c0.246,0.057,0.484,0.125,0.717,0.197
			c0.236-1.166,0.439-2.34,0.615-3.518c-0.219,0-0.441-0.004-0.666-0.02c-0.166-0.012-0.33-0.029-0.492-0.05
			c-0.166,1.108-0.357,2.212-0.578,3.312C132.408,80.476,132.542,80.5,132.678,80.531z M133.83,70.015
			c0.291,0.021,0.572,0.058,0.85,0.103c0.051-1.202,0.071-2.405,0.057-3.61c-0.252,0.043-0.508,0.082-0.77,0.105
			c-0.133,0.011-0.262,0.016-0.391,0.021c0.012,1.125-0.006,2.248-0.051,3.37C133.627,70.009,133.729,70.009,133.83,70.015z
			 M133.325,59.449c0.321-0.027,0.638-0.035,0.949-0.031c-0.142-1.203-0.317-2.403-0.526-3.603
			c-0.266,0.093-0.539,0.181-0.822,0.253c-0.103,0.024-0.203,0.043-0.305,0.066c0.19,1.111,0.354,2.226,0.488,3.342
			C133.182,59.468,133.252,59.457,133.325,59.449z M37.45,127.734c0.192-0.354,0.404-0.68,0.628-0.984
			c-1.074-0.529-2.139-1.087-3.186-1.676c-0.111,0.363-0.248,0.73-0.417,1.096C35.455,126.717,36.448,127.238,37.45,127.734z
			 M28.496,122.406c0.248-0.318,0.513-0.607,0.785-0.871c-0.986-0.693-1.953-1.418-2.904-2.168
			c-0.164,0.346-0.355,0.691-0.579,1.031C26.683,121.091,27.582,121.76,28.496,122.406z M20.486,115.758
			c0.299-0.274,0.609-0.52,0.924-0.735c-0.871-0.841-1.721-1.71-2.55-2.605c-0.215,0.318-0.457,0.633-0.73,0.937
			C18.897,114.179,19.684,114.98,20.486,115.758z M129.895,90.736c0.191,0.078,0.38,0.162,0.563,0.25
			c0.412-1.104,0.795-2.218,1.149-3.34c-0.178-0.03-0.354-0.063-0.533-0.105c-0.201-0.046-0.398-0.098-0.592-0.156
			c-0.337,1.064-0.7,2.121-1.092,3.169C129.559,90.609,129.727,90.669,129.895,90.736z M131.172,49.093
			c0.336-0.085,0.668-0.145,0.995-0.19c-0.333-1.17-0.696-2.335-1.098-3.492c-0.263,0.144-0.534,0.281-0.821,0.403
			c-0.082,0.035-0.165,0.064-0.247,0.097c0.368,1.069,0.708,2.146,1.019,3.226C131.07,49.124,131.121,49.106,131.172,49.093z
			 M112.633,117.055c0.037,0.042,0.069,0.085,0.104,0.128c0.852-0.773,1.678-1.565,2.48-2.375c-0.027-0.021-0.055-0.042-0.082-0.064
			c-0.271-0.227-0.521-0.466-0.757-0.711c-0.786,0.791-1.597,1.566-2.429,2.322C112.184,116.572,112.414,116.804,112.633,117.055z
			 M20.441,19.026c-0.81,0.784-1.598,1.586-2.361,2.405c0.31,0.283,0.588,0.58,0.842,0.884c0.777-0.833,1.578-1.651,2.404-2.451
			C21.021,19.611,20.725,19.333,20.441,19.026z M94.587,127.744c0.194,0.318,0.373,0.656,0.533,1.014
			c1.022-0.464,2.038-0.955,3.046-1.475c-0.199-0.336-0.373-0.677-0.521-1.018C96.635,126.787,95.614,127.28,94.587,127.744z
			 M67.752,134.739c-0.005-0.396,0.019-0.778,0.063-1.147c-1.166,0.006-2.33-0.019-3.492-0.074c0.051,0.372,0.078,0.758,0.079,1.154
			C65.518,134.721,66.634,134.744,67.752,134.739z M29.297,13.279c-0.255-0.303-0.498-0.629-0.725-0.98
			c-0.928,0.652-1.835,1.324-2.721,2.016c0.267,0.322,0.502,0.654,0.711,0.992C27.453,14.611,28.363,13.934,29.297,13.279z
			 M125.548,100.38c0.141,0.084,0.274,0.172,0.409,0.263c0.575-1.017,1.125-2.048,1.647-3.091c-0.13-0.046-0.261-0.091-0.392-0.143
			c-0.23-0.094-0.451-0.197-0.668-0.304c-0.5,0.998-1.027,1.983-1.578,2.956C125.162,100.161,125.355,100.265,125.548,100.38z
			 M85.211,132.343c1.079-0.297,2.155-0.621,3.225-0.976c-0.138-0.366-0.248-0.732-0.334-1.093
			c-1.088,0.358-2.182,0.688-3.278,0.988C84.971,131.606,85.102,131.966,85.211,132.343z M78.211,133.875
			c-0.073-0.387-0.117-0.768-0.14-1.138c-1.138,0.185-2.278,0.34-3.419,0.465c0.1,0.36,0.18,0.736,0.236,1.128
			C75.998,134.207,77.105,134.053,78.211,133.875z M119.746,109.226c0.087,0.072,0.166,0.146,0.248,0.221
			c0.725-0.906,1.424-1.828,2.096-2.765c-0.078-0.044-0.156-0.085-0.234-0.13c-0.258-0.154-0.497-0.32-0.73-0.49
			c-0.651,0.904-1.326,1.797-2.026,2.674C119.316,108.888,119.534,109.048,119.746,109.226z M103.703,122.732
			c0.236,0.287,0.459,0.597,0.668,0.928c0.952-0.625,1.885-1.271,2.794-1.938c-0.255-0.297-0.483-0.601-0.69-0.91
			C105.572,121.471,104.648,122.112,103.703,122.732z M3.802,49.06c0.326-1.136,0.685-2.262,1.072-3.379
			c-0.39-0.064-0.785-0.156-1.185-0.283c-0.364,1.059-0.701,2.124-1.013,3.197C3.074,48.727,3.449,48.884,3.802,49.06z
			 M85.903,3.865c1.073,0.313,2.14,0.652,3.197,1.02c0.044-0.127,0.087-0.254,0.139-0.381c0.103-0.253,0.216-0.495,0.336-0.73
			c-1.127-0.393-2.264-0.756-3.409-1.088c-0.034,0.211-0.072,0.424-0.121,0.639C86.003,3.507,85.955,3.688,85.903,3.865z
			 M75.621,1.732c1.107,0.14,2.213,0.307,3.313,0.502c0.029-0.171,0.063-0.342,0.101-0.514c0.052-0.229,0.114-0.449,0.181-0.666
			c-1.162-0.208-2.329-0.383-3.502-0.53c-0.002,0.176-0.008,0.353-0.02,0.53C75.678,1.285,75.652,1.51,75.621,1.732z M7.41,39.41
			c0.493-1.058,1.01-2.104,1.559-3.135c-0.372-0.132-0.746-0.291-1.117-0.482c-0.523,0.988-1.02,1.988-1.491,2.998
			C6.735,38.978,7.084,39.187,7.41,39.41z M1.725,59.126c0.15-1.186,0.331-2.365,0.545-3.54c-0.395,0.003-0.799-0.02-1.215-0.075
			c-0.196,1.101-0.365,2.207-0.508,3.316C0.959,58.901,1.352,59.003,1.725,59.126z M65.149,1.25
			c1.118-0.037,2.233-0.045,3.351-0.025c-0.002-0.217,0.004-0.435,0.02-0.657c0.012-0.188,0.031-0.373,0.055-0.555
			c-1.168-0.021-2.337-0.015-3.508,0.024c0.018,0.131,0.037,0.262,0.049,0.396C65.141,0.708,65.148,0.98,65.149,1.25z M44.698,5.219
			c1.056-0.386,2.118-0.743,3.185-1.073c-0.107-0.297-0.207-0.602-0.287-0.921c-0.021-0.082-0.035-0.165-0.054-0.249
			c-1.092,0.337-2.179,0.703-3.259,1.099c0.012,0.024,0.023,0.048,0.034,0.073C44.471,4.505,44.596,4.865,44.698,5.219z
			 M54.754,2.421c1.1-0.213,2.203-0.398,3.309-0.557c-0.047-0.258-0.086-0.521-0.11-0.792c-0.012-0.14-0.018-0.278-0.024-0.417
			c-1.144,0.16-2.287,0.354-3.426,0.576c0.021,0.079,0.048,0.158,0.068,0.239C54.65,1.792,54.709,2.108,54.754,2.421z M38.215,7.991
			c-0.186-0.32-0.357-0.661-0.512-1.019c-0.01-0.024-0.018-0.05-0.028-0.074c-1.014,0.499-2.021,1.027-3.018,1.582
			c0.22,0.355,0.406,0.719,0.567,1.079C36.213,9.008,37.21,8.486,38.215,7.991z M12.488,30.416c0.643-0.955,1.313-1.895,2.01-2.82
			c-0.344-0.195-0.686-0.418-1.018-0.672c-0.674,0.896-1.322,1.809-1.947,2.734C11.88,29.894,12.197,30.149,12.488,30.416z
			 M95.736,7.587c1.012,0.479,2.015,0.986,3.006,1.518c0.047-0.084,0.091-0.17,0.141-0.255c0.16-0.267,0.332-0.517,0.51-0.757
			c-1.063-0.572-2.138-1.119-3.227-1.633c-0.076,0.241-0.156,0.482-0.254,0.724C95.857,7.322,95.797,7.455,95.736,7.587z
			 M113.055,19.479c0.813,0.774,1.608,1.573,2.385,2.396c0.041-0.036,0.078-0.074,0.119-0.11c0.265-0.231,0.537-0.439,0.814-0.631
			c-0.841-0.893-1.7-1.759-2.582-2.599c-0.166,0.246-0.346,0.49-0.545,0.728C113.185,19.337,113.119,19.406,113.055,19.479z
			 M8,99.199c0.375-0.17,0.75-0.305,1.121-0.412c-0.583-1.081-1.134-2.17-1.65-3.27c-0.307,0.24-0.635,0.467-0.992,0.675
			C6.958,97.201,7.465,98.205,8,99.199z M1.229,69.373c-0.035-1.205-0.037-2.408-0.006-3.609c-0.387,0.068-0.788,0.113-1.206,0.128
			c-0.024,1.118-0.023,2.239,0.007,3.359C0.441,69.263,0.844,69.306,1.229,69.373z M13.605,107.958
			c0.342-0.225,0.689-0.417,1.037-0.58c-0.732-0.969-1.441-1.961-2.127-2.979c-0.264,0.283-0.551,0.558-0.87,0.817
			C12.279,106.152,12.934,107.066,13.605,107.958z M120.08,27.353c0.678,0.894,1.335,1.81,1.974,2.746
			c0.043-0.027,0.082-0.057,0.124-0.083c0.301-0.188,0.604-0.353,0.91-0.5c-0.689-1.017-1.403-2.009-2.139-2.977
			c-0.209,0.221-0.426,0.436-0.662,0.643C120.219,27.243,120.148,27.296,120.08,27.353z M2.313,79.556
			c-0.223-1.191-0.408-2.387-0.563-3.585c-0.369,0.13-0.758,0.242-1.166,0.324c0.146,1.108,0.322,2.216,0.525,3.321
			C1.521,79.566,1.924,79.548,2.313,79.556z M125.775,36.238c0.535,1,1.042,2.008,1.521,3.023c0.044-0.02,0.085-0.042,0.131-0.061
			c0.325-0.14,0.651-0.253,0.976-0.352c-0.516-1.101-1.066-2.192-1.646-3.275c-0.239,0.186-0.488,0.365-0.756,0.532
			C125.926,36.153,125.851,36.193,125.775,36.238z M104.867,12.836c0.925,0.635,1.836,1.295,2.732,1.979
			c0.045-0.055,0.084-0.111,0.129-0.164c0.217-0.26,0.444-0.499,0.679-0.723c-0.966-0.742-1.952-1.454-2.952-2.14
			c-0.121,0.251-0.251,0.503-0.4,0.752C104.994,12.643,104.93,12.738,104.867,12.836z M4.971,89.441
			c-0.407-1.15-0.784-2.307-1.125-3.47c-0.34,0.188-0.703,0.358-1.09,0.507c0.316,1.072,0.663,2.139,1.037,3.201
			C4.192,89.569,4.586,89.492,4.971,89.441z"/>
		<linearGradient id="SVGID_3_" gradientUnits="userSpaceOnUse" x1="89.7168" y1="45.0752" x2="45.0618" y2="89.7302">
			<stop  offset="0.229" style="stop-color:#FADDCD"/>
			<stop  offset="0.4914" style="stop-color:#D59D7E"/>
			<stop  offset="1" style="stop-color:#AA6F50"/>
		</linearGradient>
		<path fill="url(#SVGID_3_)" d="M94.133,50.623c9.253,14.746,4.783,34.271-9.963,43.523c-14.746,9.254-34.271,4.784-43.524-9.963
			c-9.253-14.746-4.783-34.271,9.963-43.524C65.355,31.406,84.88,35.875,94.133,50.623z M42.428,83.066
			c8.637,13.764,26.86,17.936,40.625,9.299c13.764-8.637,17.936-26.86,9.299-40.625c-8.637-13.764-26.861-17.936-40.625-9.299
			S33.791,69.301,42.428,83.066z"/>
	</g>
</g>
</svg>
