<?xml version="1.0" encoding="utf-8"?>
<!-- Generator: Adobe Illustrator 16.0.0, SVG Export Plug-In . SVG Version: 6.00 Build 0)  -->
<!DOCTYPE svg PUBLIC "-//W3C//DTD SVG 1.1//EN" "http://www.w3.org/Graphics/SVG/1.1/DTD/svg11.dtd">
<svg version="1.1" id="圖層_1" xmlns="http://www.w3.org/2000/svg" xmlns:xlink="http://www.w3.org/1999/xlink" x="0px" y="0px"
	 width="121.223px" height="121.983px" viewBox="0 0 121.223 121.983" enable-background="new 0 0 121.223 121.983"
	 xml:space="preserve">
<linearGradient id="SVGID_1_" gradientUnits="userSpaceOnUse" x1="103.7036" y1="17.8994" x2="17.5184" y2="104.0847">
	<stop  offset="0.229" style="stop-color:#FADDCD"/>
	<stop  offset="0.4914" style="stop-color:#D59D7E"/>
	<stop  offset="1" style="stop-color:#AA6F50"/>
</linearGradient>
<path fill="url(#SVGID_1_)" d="M26.137,10.684c-1.337,0.917-1.577,2.796-0.528,4.032l0.877,1.035
	c1.393,1.643,1.494,4.083,0.108,5.73c-1.788,2.126-4.99,2.057-6.708,0.029l-0.783-0.924c-1.08-1.273-3.04-1.299-4.148-0.051
	c-0.546,0.615-1.078,1.24-1.596,1.874c-1.031,1.261-0.743,3.138,0.617,4.033l1.146,0.755c1.799,1.184,2.584,3.496,1.719,5.467
	c-1.116,2.545-4.209,3.379-6.429,1.919l-1.005-0.661c-1.396-0.92-3.287-0.39-3.996,1.124c-0.348,0.742-0.682,1.491-0.998,2.246
	c-0.631,1.499,0.174,3.217,1.73,3.692l1.421,0.434c2.304,0.703,3.613,3.164,2.909,5.468c1.229,1.956-0.633,4.386-2.842,3.712
	l-3.77-1.152c-1.597-0.487-3.26,0.551-3.517,2.201c-0.126,0.809-0.235,1.619-0.328,2.434c-0.186,1.617,1.071,3.041,2.7,3.059
	L4.2,57.157c2.409,0.026,4.358,2.019,4.332,4.427c-0.026,2.409-2.019,4.358-4.427,4.332l-1.209-0.013
	c-1.669-0.019-2.973,1.446-2.754,3.101c0.107,0.812,0.23,1.623,0.371,2.432c0.278,1.605,1.885,2.617,3.453,2.176l1.438-0.406
	c2.319-0.653,4.751,0.709,5.404,3.027l0,0c0.654,2.318-0.709,4.75-3.027,5.404l-1.156,0.326c-1.608,0.453-2.447,2.227-1.77,3.754
	c0.332,0.745,0.68,1.486,1.043,2.225c0.721,1.459,2.547,1.978,3.926,1.112l1.258-0.79c2.041-1.279,4.758-0.658,6.037,1.383l0,0
	c1.281,2.041,0.659,4.758-1.381,6.037l-1.018,0.639c-1.414,0.887-1.719,2.822-0.642,4.098c0.53,0.628,1.071,1.243,1.624,1.846
	c1.101,1.201,3,1.184,4.081-0.037l0.904-1.021c1.427-1.611,3.829-2.059,5.657-0.922c2.358,1.467,2.745,4.646,0.983,6.636
	l-0.804,0.907c-1.107,1.251-0.852,3.197,0.545,4.115c0.686,0.451,1.381,0.888,2.082,1.31c1.395,0.837,3.209,0.284,3.901-1.188
	l0.636-1.353c1.024-2.181,3.646-3.127,5.826-2.102l0,0c2.18,1.023,3.126,3.646,2.102,5.826l-0.509,1.083
	c-0.71,1.512,0.082,3.308,1.681,3.795c0.782,0.238,1.57,0.461,2.361,0.669c1.575,0.412,3.162-0.63,3.41-2.238l0.227-1.463
	c0.369-2.381,2.619-4.026,4.999-3.658c2.38,0.369,4.026,2.618,3.657,4.999l-0.184,1.188c-0.255,1.649,1.008,3.147,2.678,3.168
	c0.818,0.009,1.637,0.003,2.457-0.021c1.629-0.047,2.859-1.493,2.646-3.108l-0.196-1.476c-0.316-2.388,1.377-4.602,3.766-4.918l0,0
	c2.388-0.316,4.602,1.377,4.918,3.765l0.159,1.199c0.22,1.655,1.855,2.738,3.463,2.285c0.788-0.223,1.572-0.461,2.354-0.716
	c1.547-0.506,2.319-2.239,1.659-3.727l-0.605-1.365c-0.978-2.202,0.025-4.803,2.228-5.779c2.201-0.977,4.803,0.025,5.779,2.227
	l0.486,1.098c0.674,1.52,2.54,2.107,3.948,1.225c0.009-0.006,0.019-0.012,0.027-0.017c0.698-0.438,1.385-0.89,2.06-1.353
	c1.336-0.916,1.576-2.795,0.527-4.031l-0.959-1.132c-1.557-1.837-1.328-4.615,0.51-6.173c1.837-1.558,4.615-1.328,6.172,0.509
	l0.783,0.924c1.08,1.273,3.04,1.3,4.148,0.051c0.546-0.614,1.078-1.239,1.597-1.873c1.03-1.261,0.742-3.138-0.618-4.034
	l-1.252-0.822c-2.012-1.325-2.574-4.055-1.25-6.066c1.324-2.013,4.053-2.576,6.065-1.252l1.006,0.662
	c1.396,0.919,3.286,0.389,3.996-1.125c0.348-0.742,0.681-1.49,0.997-2.245c0.631-1.5-0.174-3.217-1.73-3.692l-1.421-0.434
	c-2.304-0.704-3.612-3.164-2.909-5.469c-1.228-1.955,0.633-4.386,2.842-3.711l3.77,1.151c1.598,0.487,3.261-0.55,3.518-2.2
	c0.125-0.809,0.234-1.62,0.328-2.434c0.186-1.618-1.072-3.042-2.701-3.06l-1.355-0.015c-2.152-0.023-4.063-1.545-4.401-3.671
	c-0.437-2.743,1.714-5.118,4.37-5.089l1.209,0.013c1.669,0.018,2.973-1.446,2.754-3.101c-0.106-0.813-0.23-1.623-0.371-2.433
	c-0.278-1.604-1.885-2.616-3.452-2.175l-1.336,0.377c-2.046,0.576-4.272-0.322-5.211-2.229c-1.241-2.522,0.154-5.446,2.731-6.173
	l1.157-0.326c1.608-0.453,2.446-2.227,1.769-3.754c-0.332-0.746-0.68-1.488-1.043-2.225c-0.721-1.46-2.546-1.979-3.925-1.113
	l-1.259,0.79c-2.041,1.28-4.758,0.658-6.037-1.382c-1.281-2.041-0.658-4.758,1.382-6.038l1.018-0.638
	c1.413-0.888,1.718-2.823,0.642-4.098c-0.531-0.629-1.072-1.244-1.625-1.846c-1.1-1.201-3-1.184-4.08,0.036l-0.905,1.021
	c-1.427,1.611-3.828,2.06-5.656,0.923c-2.358-1.467-2.746-4.647-0.984-6.637l0.804-0.906c1.107-1.252,0.853-3.197-0.544-4.115
	c-0.687-0.451-1.381-0.889-2.083-1.31c-1.395-0.838-3.209-0.285-3.9,1.188l-0.583,1.239c-0.915,1.947-3.093,3.054-5.167,2.479
	c-2.678-0.743-3.944-3.686-2.814-6.09l0.51-1.083c0.709-1.513-0.082-3.308-1.681-3.795C77.651,2.429,76.863,2.207,76.072,2
	c-1.574-0.412-3.162,0.629-3.41,2.238l-0.207,1.338c-0.33,2.127-2.107,3.803-4.26,3.834c-2.778,0.042-4.822-2.424-4.416-5.05
	l0.184-1.188c0.256-1.649-1.008-3.148-2.677-3.168c-0.818-0.01-1.638-0.003-2.458,0.021c-1.629,0.046-2.859,1.493-2.645,3.107
	l0.195,1.477c0.316,2.388-1.377,4.601-3.766,4.918c-1.908,1.197-4.415,0.02-4.711-2.214l-0.365-2.751
	c-0.221-1.655-1.856-2.738-3.463-2.284C43.286,2.5,42.5,2.738,41.719,2.994C40.171,3.499,39.4,5.232,40.06,6.72l0.605,1.365
	c1.077,2.428-0.254,5.342-2.945,6.027c-2.086,0.53-4.24-0.623-5.113-2.59l-0.436-0.983c-0.674-1.519-2.54-2.106-3.948-1.225
	c-0.009,0.006-0.019,0.012-0.026,0.017C27.498,9.771,26.811,10.222,26.137,10.684z M26.845,78.75
	c-2.096,1.314-4.439,0.468-5.209-1.883l-3.084-18.826c0.035-2.473,2.035-4.044,4.446-3.492l5.377,1.23
	c2.411,0.553,4.377,3.027,4.368,5.5l1.273,7.844c0.727,2.364-0.394,5.374-2.488,6.689L26.845,78.75z M64.342,39.121l-1.86,8.125
	c-2.72-0.363-5.561,0.08-8.144,1.41l-4.431-7.062C54.449,39.068,59.537,38.308,64.342,39.121z M52.238,49.986
	c-2.296,1.757-3.905,4.125-4.744,6.729l-8.124-1.86c1.34-4.677,4.215-8.928,8.437-11.931L52.238,49.986z M38.821,57.279l8.124,1.859
	c-0.359,2.702,0.074,5.523,1.385,8.092l-7.063,4.432C38.763,67.134,38.012,62.066,38.821,57.279z M73.42,79.068l-4.431-7.063
	c2.321-1.747,3.957-4.111,4.813-6.719l8.125,1.859C80.568,71.826,77.671,76.078,73.42,79.068z M56.897,82.787l1.859-8.124
	c2.709,0.378,5.541-0.041,8.122-1.344l4.432,7.062C66.769,82.876,61.691,83.616,56.897,82.787z M49.65,69.335
	c1.744,2.298,4.096,3.916,6.686,4.768l-1.86,8.124c-4.663-1.354-8.898-4.235-11.887-8.46L49.65,69.335z M44.971,100.146
	L29.362,89.179c-1.781-1.715-1.524-4.195,0.57-5.51l4.684-2.938c2.095-1.315,5.292-1.014,7.104,0.668l6.51,4.559
	c2.23,1.068,3.604,3.915,3.051,6.326l-1.23,5.377C49.499,100.072,47.212,101.19,44.971,100.146z M77.537,99.583l-18.309,3.574
	c-2.473,0.045-4.044-1.891-3.492-4.302l1.242-5.425c0.551-2.412,3.024-4.479,5.494-4.594l7.352-1.551
	c2.332-0.825,5.314,0.213,6.629,2.309l2.926,4.662C80.693,96.353,79.865,98.75,77.537,99.583z M97.357,71.569
	c2.411,0.552,3.539,2.843,2.508,5.091l-10.19,14.905c-1.685,1.812-4.138,1.579-5.452-0.516l-2.965-4.726
	c-1.314-2.096-1.055-5.329,0.578-7.187l3.852-5.731c1.051-2.238,3.883-3.619,6.293-3.067L97.357,71.569z M94.47,43.174
	c2.095-1.314,4.457-0.474,5.25,1.87l3.158,17.346c0.031,2.474-1.916,4.045-4.326,3.494l-5.426-1.242
	c-2.411-0.552-4.459-3.025-4.552-5.497l-1.214-6.363c-0.761-2.354,0.331-5.354,2.426-6.669L94.47,43.174z M82.488,64.724
	l-8.125-1.859c0.381-2.728-0.048-5.58-1.371-8.175l7.063-4.431C82.572,54.812,83.319,59.913,82.488,64.724z M71.67,52.584
	c-1.761-2.32-4.143-3.946-6.764-4.79l1.86-8.125c4.693,1.345,8.961,4.236,11.965,8.484L71.67,52.584z M77.738,22.324l14.246,10.39
	c1.765,1.733,1.494,4.227-0.602,5.541L86.7,41.193c-2.095,1.314-5.272,0.992-7.06-0.717l-5.202-3.861
	c-2.185-1.158-3.521-4.078-2.97-6.488l1.242-5.426C73.261,22.29,75.524,21.22,77.738,22.324z M45.724,21.523l17.854-2.691
	c2.474,0.049,4.044,2.061,3.493,4.472l-1.231,5.376c-0.552,2.412-3.026,4.361-5.499,4.332l-6.836,0.975
	c-2.383,0.662-5.408-0.51-6.723-2.604l-2.965-4.726C42.503,24.56,43.361,22.25,45.724,21.523z M38.822,29.621l2.926,4.664
	c1.314,2.095,0.951,5.232-0.807,6.973l-4.594,5.944c-1.178,2.175-4.115,3.501-6.525,2.95l-5.426-1.242
	c-2.41-0.552-3.47-2.809-2.354-5.016l11.182-14.93C34.988,27.23,37.507,27.526,38.822,29.621z"/>
</svg>
