<?xml version="1.0" encoding="utf-8"?>
<!-- Generator: Adobe Illustrator 16.0.0, SVG Export Plug-In . SVG Version: 6.00 Build 0)  -->
<!DOCTYPE svg PUBLIC "-//W3C//DTD SVG 1.1//EN" "http://www.w3.org/Graphics/SVG/1.1/DTD/svg11.dtd">
<svg version="1.1" id="圖層_1" xmlns="http://www.w3.org/2000/svg" xmlns:xlink="http://www.w3.org/1999/xlink" x="0px" y="0px"
	 width="74.198px" height="74.199px" viewBox="0 0 74.198 74.199" enable-background="new 0 0 74.198 74.199" xml:space="preserve">
<g>
	<linearGradient id="SVGID_1_" gradientUnits="userSpaceOnUse" x1="63.3311" y1="10.8682" x2="10.8679" y2="63.3313">
		<stop  offset="0.229" style="stop-color:#FADDCD"/>
		<stop  offset="0.4914" style="stop-color:#D59D7E"/>
		<stop  offset="1" style="stop-color:#AA6F50"/>
	</linearGradient>
	<path fill="url(#SVGID_1_)" d="M14.236,12.058c-0.8,0.729-2.393,0.288-3.577-0.982c-0.438,0.444-0.863,0.898-1.274,1.36
		c1.293,1.094,1.811,2.612,1.146,3.443c-0.664,0.832-2.262,0.664-3.615-0.358c-0.361,0.505-0.709,1.017-1.043,1.536
		c1.4,0.881,2.113,2.268,1.598,3.176c-0.518,0.909-2.075,1.007-3.55,0.252c-0.276,0.553-0.538,1.109-0.786,1.674
		c1.474,0.659,2.354,1.892,1.993,2.854c-0.362,0.961-1.84,1.309-3.384,0.832c-0.188,0.588-0.357,1.178-0.514,1.771
		c1.512,0.438,2.534,1.495,2.332,2.482c-0.203,0.989-1.564,1.559-3.129,1.361c-0.094,0.608-0.172,1.22-0.234,1.832
		c1.521,0.215,2.656,1.086,2.611,2.075C2.766,36.36,1.545,37.127,0,37.197c0.002,0.616,0.02,1.232,0.051,1.848
		c1.509-0.007,2.734,0.671,2.842,1.643c0.11,0.977-0.947,1.914-2.434,2.236c0.096,0.608,0.207,1.216,0.334,1.82
		c1.469-0.225,2.758,0.255,3.016,1.187c0.258,0.939-0.623,2.021-2.02,2.575c0.189,0.587,0.393,1.17,0.612,1.748
		c1.403-0.436,2.732-0.161,3.129,0.712c0.399,0.881-0.288,2.076-1.562,2.844c0.277,0.55,0.569,1.095,0.877,1.633
		c1.309-0.636,2.648-0.567,3.174,0.228c0.529,0.804,0.047,2.081-1.078,3.037c0.359,0.5,0.732,0.993,1.119,1.479
		c1.189-0.821,2.515-0.96,3.153-0.26c0.647,0.709,0.373,2.043-0.585,3.163c0.436,0.443,0.88,0.875,1.332,1.292
		c1.045-0.998,2.332-1.343,3.074-0.751c0.754,0.602,0.688,1.971-0.093,3.229c0.497,0.372,1.002,0.729,1.514,1.071
		c0.878-1.161,2.104-1.711,2.933-1.239c0.844,0.479,0.988,1.856,0.402,3.23c0.547,0.288,1.1,0.563,1.658,0.823
		c0.684-1.302,1.819-2.049,2.718-1.712c0.915,0.345,1.272,1.701,0.894,3.163c0.584,0.2,1.174,0.385,1.766,0.555
		c0.467-1.413,1.479-2.347,2.428-2.152c0.967,0.199,1.533,1.507,1.371,3.03c0.608,0.106,1.218,0.198,1.83,0.275
		c0.228-1.493,1.09-2.599,2.066-2.555c1.001,0.046,1.771,1.282,1.834,2.841c0.615,0.012,1.23,0.009,1.847-0.009
		c-0.029-1.541,0.654-2.803,1.642-2.914c1.011-0.113,1.98,1.022,2.27,2.591c0.609-0.082,1.216-0.18,1.821-0.293
		c-0.3-1.549,0.179-2.943,1.151-3.212c1-0.274,2.158,0.736,2.676,2.288c0.589-0.176,1.174-0.367,1.756-0.573
		c-0.581-1.513-0.332-3.012,0.604-3.438c0.961-0.436,2.293,0.42,3.038,1.919c0.556-0.267,1.106-0.549,1.651-0.846
		c-0.852-1.422-0.858-2.985,0.015-3.563c0.896-0.59,2.38,0.078,3.351,1.49c0.508-0.352,1.01-0.718,1.506-1.098
		c-1.112-1.284-1.386-2.868-0.6-3.587c0.807-0.735,2.419-0.282,3.605,1.013c0.454-0.433,0.896-0.874,1.323-1.324
		c-1.353-1.098-1.901-2.661-1.225-3.51c0.683-0.854,2.353-0.656,3.729,0.443c0.023,0.019,0.046,0.038,0.068,0.059
		c0.386-0.503,0.755-1.014,1.11-1.531c-0.017-0.009-0.033-0.017-0.051-0.026c-1.531-0.87-2.335-2.347-1.795-3.298
		c0.541-0.95,2.221-1.016,3.751-0.146c0.054,0.031,0.104,0.063,0.155,0.096c0.305-0.563,0.592-1.13,0.864-1.704
		c-0.047-0.017-0.093-0.03-0.14-0.048c-1.648-0.619-2.673-1.951-2.289-2.976c0.385-1.023,2.034-1.352,3.683-0.731
		c0.085,0.032,0.165,0.066,0.247,0.102c0.212-0.607,0.409-1.22,0.589-1.836c-0.075-0.013-0.149-0.023-0.226-0.039
		c-1.727-0.354-2.946-1.51-2.727-2.581c0.221-1.071,1.797-1.653,3.522-1.299c0.112,0.023,0.222,0.05,0.33,0.08
		c0.114-0.64,0.212-1.28,0.294-1.924c-0.099,0.002-0.197,0.001-0.299-0.004c-1.76-0.079-3.146-1.029-3.098-2.123
		c0.051-1.092,1.518-1.913,3.277-1.833c0.139,0.007,0.274,0.021,0.407,0.037c0.014-0.656,0.009-1.312-0.013-1.968
		c-0.119,0.022-0.24,0.042-0.363,0.055c-1.75,0.197-3.268-0.524-3.391-1.611c-0.121-1.088,1.199-2.128,2.949-2.324
		c0.159-0.018,0.315-0.025,0.471-0.028c-0.092-0.656-0.198-1.31-0.325-1.961c-0.132,0.048-0.267,0.094-0.407,0.132
		c-1.698,0.469-3.31-0.007-3.602-1.062c-0.289-1.055,0.852-2.289,2.551-2.756c0.171-0.047,0.342-0.083,0.51-0.111
		c-0.194-0.638-0.408-1.271-0.639-1.9c-0.135,0.077-0.274,0.151-0.421,0.218c-1.604,0.728-3.271,0.511-3.724-0.485
		c-0.451-0.996,0.483-2.394,2.088-3.121c0.173-0.078,0.347-0.145,0.52-0.201c-0.295-0.602-0.607-1.196-0.938-1.784
		c-0.128,0.104-0.261,0.205-0.405,0.3c-1.47,0.97-3.149,1.016-3.752,0.103c-0.602-0.913,0.102-2.439,1.572-3.409
		c0.164-0.107,0.328-0.201,0.495-0.286c-0.388-0.546-0.794-1.083-1.216-1.612c-0.11,0.123-0.229,0.245-0.355,0.361
		c-1.301,1.189-2.953,1.497-3.691,0.689c-0.736-0.808-0.279-2.426,1.021-3.613c0.144-0.131,0.292-0.25,0.444-0.359
		c-0.475-0.483-0.959-0.951-1.452-1.402c-0.091,0.14-0.188,0.277-0.296,0.413c-1.098,1.378-2.682,1.939-3.537,1.258
		c-0.855-0.683-0.656-2.353,0.442-3.729c0.12-0.151,0.248-0.291,0.38-0.422c-0.544-0.401-1.096-0.786-1.655-1.154
		c-0.066,0.15-0.14,0.3-0.224,0.448c-0.869,1.531-2.346,2.335-3.297,1.795c-0.951-0.541-1.016-2.221-0.146-3.751
		c0.092-0.161,0.191-0.313,0.297-0.458c-0.598-0.307-1.201-0.596-1.811-0.869c-0.041,0.148-0.086,0.297-0.143,0.447
		c-0.619,1.648-1.951,2.674-2.977,2.289c-1.023-0.386-1.351-2.033-0.73-3.682c0.06-0.16,0.129-0.313,0.201-0.461
		c-0.633-0.205-1.269-0.396-1.909-0.567C46.695,1.4,46.674,1.539,46.646,1.68c-0.354,1.727-1.509,2.946-2.581,2.727
		c-1.071-0.221-1.652-1.797-1.299-3.522c0.031-0.147,0.069-0.29,0.11-0.429c-0.649-0.103-1.3-0.188-1.954-0.255
		c0.002,0.118,0.002,0.237-0.003,0.358c-0.079,1.76-1.03,3.146-2.122,3.098c-1.094-0.051-1.914-1.518-1.834-3.277
		c0.005-0.129,0.018-0.254,0.033-0.378c-0.65,0.001-1.301,0.021-1.951,0.057c0.017,0.096,0.031,0.192,0.043,0.29
		c0.196,1.75-0.525,3.268-1.613,3.391c-1.087,0.121-2.127-1.199-2.323-2.949c-0.012-0.104-0.019-0.205-0.024-0.307
		c-0.635,0.104-1.268,0.223-1.898,0.359c0.022,0.068,0.046,0.138,0.065,0.209c0.468,1.697-0.008,3.309-1.062,3.601
		c-1.055,0.29-2.289-0.851-2.757-2.549c-0.021-0.075-0.036-0.149-0.054-0.224c-0.604,0.199-1.205,0.416-1.801,0.648
		c0.02,0.041,0.042,0.082,0.061,0.124c0.729,1.604,0.511,3.271-0.485,3.724c-0.997,0.451-2.394-0.483-3.12-2.088
		c-0.02-0.042-0.036-0.086-0.055-0.129c-0.559,0.29-1.111,0.595-1.657,0.915c0.009,0.013,0.017,0.024,0.026,0.037
		c0.969,1.471,1.016,3.15,0.102,3.753s-2.439-0.102-3.408-1.572c-0.008-0.012-0.015-0.025-0.023-0.037
		c-0.5,0.37-0.993,0.755-1.479,1.153C14.74,9.702,15.035,11.328,14.236,12.058z M12.989,56.861
		c-6.462-7.882-8.44-18.095-6.095-27.397l8.416,4.569c-0.811,5.755,0.657,11.785,4.457,16.639L12.989,56.861z M25.431,24.318
		c6.314-5.765,15.733-5.977,22.272-0.916l-13.047,7.996l-13.271-1.561C22.324,27.806,23.674,25.923,25.431,24.318z M24.317,48.799
		c-3.192-3.496-4.681-7.944-4.517-12.328l11.301,6.135l5.084,11.811C31.805,54.181,27.51,52.295,24.317,48.799z M42.584,40.081
		l9.146-12.267c4.447,6.97,3.382,16.332-2.933,22.098c-1.757,1.604-3.755,2.777-5.863,3.528L42.584,40.081z M15.261,59.349
		l6.779-6.189c4.487,4.226,10.36,6.234,16.165,5.95l3.787,8.796C32.514,69.397,22.523,66.499,15.261,59.349z M66.273,48.14
		c-1.676,4.446-4.389,8.576-8.139,11.999c-4.328,3.953-9.471,6.453-14.826,7.533l-0.246-9.355c3.212-0.898,6.268-2.537,8.899-4.939
		c2.517-2.298,4.378-5.046,5.573-8.01L66.273,48.14z M67.291,44.928l-8.742-2.773c1.453-6.206,0.194-12.943-3.861-18.305
		l5.629-7.549C67.545,24.355,69.812,35.155,67.291,44.928z M39.309,39.519c-1.328,1.212-3.386,1.118-4.598-0.209
		c-1.211-1.327-1.118-3.385,0.209-4.597s3.385-1.118,4.598,0.209C40.729,36.249,40.635,38.307,39.309,39.519z M59.948,15.897
		l-8.028,4.921c-4.969-4.523-11.561-6.389-17.869-5.508L32.08,6.353C42.039,4.732,52.584,7.971,59.948,15.897z M28.789,7.074
		l1.969,8.953c-3.063,0.921-5.972,2.525-8.491,4.826c-2.632,2.402-4.54,5.297-5.726,8.414l-9.295-1.094
		c1.563-5.235,4.518-10.129,8.848-14.082C19.844,10.667,24.207,8.34,28.789,7.074z"/>
	<linearGradient id="SVGID_2_" gradientUnits="userSpaceOnUse" x1="63.3311" y1="10.8682" x2="10.8683" y2="63.331">
		<stop  offset="0.229" style="stop-color:#FADDCD"/>
		<stop  offset="0.4914" style="stop-color:#D59D7E"/>
		<stop  offset="1" style="stop-color:#AA6F50"/>
	</linearGradient>
	<path fill="url(#SVGID_2_)" d="M30.625,73.629c0.608,0.107,1.218,0.199,1.829,0.276c0.033-0.218,0.081-0.425,0.14-0.624
		c-0.65-0.08-1.299-0.18-1.945-0.295C30.655,73.194,30.648,73.409,30.625,73.629z M38.202,74.182
		c-0.005-0.218,0.007-0.431,0.03-0.636c-0.648,0.021-1.298,0.023-1.947,0.009c0.036,0.204,0.061,0.417,0.069,0.637
		C36.971,74.203,37.586,74.2,38.202,74.182z M73.783,37.807c0.139,0.006,0.273,0.021,0.407,0.036
		c0.014-0.655,0.009-1.312-0.013-1.967c-0.119,0.022-0.24,0.041-0.363,0.055c-0.091,0.011-0.182,0.017-0.271,0.021
		c0.02,0.617,0.023,1.234,0.012,1.852C73.631,37.803,73.706,37.803,73.783,37.807z M73.373,31.995
		c0.159-0.018,0.315-0.025,0.471-0.028c-0.092-0.656-0.199-1.31-0.326-1.962c-0.131,0.049-0.266,0.095-0.406,0.133
		c-0.07,0.02-0.14,0.034-0.209,0.051c0.117,0.608,0.218,1.219,0.305,1.831C73.262,32.012,73.316,32.002,73.373,31.995z M72.06,26.32
		c0.172-0.047,0.343-0.083,0.511-0.111c-0.195-0.638-0.408-1.271-0.639-1.9c-0.135,0.077-0.274,0.151-0.422,0.217
		c-0.053,0.024-0.105,0.045-0.158,0.066c0.213,0.584,0.411,1.172,0.594,1.764C71.984,26.344,72.021,26.33,72.06,26.32z
		 M26.826,72.752c0.069-0.211,0.152-0.409,0.244-0.596c-0.635-0.181-1.267-0.378-1.893-0.594c-0.023,0.207-0.062,0.42-0.117,0.635
		C25.645,72.397,26.234,72.582,26.826,72.752z M21.449,70.746c0.104-0.197,0.219-0.381,0.34-0.551
		c-0.602-0.277-1.197-0.575-1.786-0.889c-0.056,0.204-0.124,0.41-0.213,0.616C20.338,70.211,20.891,70.485,21.449,70.746z
		 M16.456,67.932c0.136-0.179,0.278-0.342,0.429-0.489c-0.555-0.37-1.102-0.758-1.639-1.161c-0.085,0.193-0.186,0.388-0.304,0.579
		C15.439,67.231,15.944,67.589,16.456,67.932z M73.278,43.61c0.112,0.022,0.222,0.05,0.33,0.079
		c0.114-0.639,0.212-1.279,0.294-1.923c-0.1,0.001-0.198,0.001-0.299-0.004c-0.114-0.005-0.227-0.014-0.336-0.026
		c-0.078,0.609-0.172,1.218-0.28,1.824C73.084,43.574,73.181,43.59,73.278,43.61z M69.875,20.92c0.172-0.079,0.347-0.145,0.52-0.201
		c-0.295-0.602-0.607-1.196-0.938-1.784c-0.128,0.104-0.261,0.204-0.405,0.299c-0.041,0.027-0.083,0.052-0.125,0.077
		c0.306,0.543,0.596,1.094,0.869,1.647C69.822,20.946,69.848,20.932,69.875,20.92z M66.515,59.569
		c0.023,0.019,0.046,0.039,0.068,0.059c0.386-0.502,0.755-1.013,1.11-1.53c-0.017-0.01-0.034-0.018-0.051-0.027
		c-0.17-0.096-0.328-0.2-0.48-0.311c-0.348,0.506-0.711,1.006-1.088,1.497C66.223,59.352,66.371,59.455,66.515,59.569z
		 M6.916,15.521c-0.361,0.505-0.71,1.017-1.043,1.536c0.195,0.122,0.375,0.256,0.543,0.396c0.34-0.528,0.693-1.051,1.062-1.565
		C7.287,15.78,7.1,15.659,6.916,15.521z M57.787,67.137c0.137,0.153,0.267,0.318,0.389,0.496c0.508-0.352,1.01-0.718,1.505-1.099
		c-0.141-0.162-0.269-0.33-0.382-0.5C58.803,66.416,58.298,66.784,57.787,67.137z M43.935,73.566
		c-0.042-0.213-0.067-0.424-0.079-0.628c-0.631,0.118-1.264,0.219-1.899,0.304c0.063,0.196,0.116,0.402,0.156,0.617
		C42.722,73.777,43.329,73.679,43.935,73.566z M11.149,11.535c-0.169-0.139-0.333-0.291-0.49-0.461
		c-0.438,0.445-0.863,0.898-1.275,1.361c0.177,0.148,0.337,0.305,0.483,0.467C10.28,12.438,10.707,11.982,11.149,11.535z
		 M71.872,49.264c0.085,0.032,0.165,0.066,0.247,0.102c0.212-0.607,0.408-1.22,0.589-1.836c-0.075-0.013-0.15-0.024-0.226-0.039
		c-0.135-0.028-0.265-0.063-0.393-0.1c-0.173,0.591-0.361,1.176-0.564,1.758C71.641,49.183,71.756,49.221,71.872,49.264z
		 M53.159,70.551c0.556-0.268,1.106-0.549,1.651-0.846c-0.111-0.186-0.207-0.372-0.289-0.56c-0.554,0.302-1.113,0.588-1.678,0.858
		C52.957,70.175,53.063,70.357,53.159,70.551z M49.517,72.069c-0.077-0.203-0.14-0.404-0.188-0.603
		c-0.599,0.212-1.201,0.408-1.807,0.588c0.089,0.186,0.17,0.382,0.239,0.588C48.35,72.467,48.936,72.275,49.517,72.069z
		 M69.598,54.627c0.055,0.031,0.105,0.063,0.156,0.096c0.304-0.563,0.592-1.131,0.864-1.704c-0.047-0.017-0.093-0.03-0.14-0.048
		c-0.154-0.058-0.301-0.124-0.444-0.193c-0.264,0.555-0.542,1.104-0.835,1.647C69.332,54.486,69.466,54.552,69.598,54.627z
		 M62.234,63.523c0.155,0.133,0.307,0.278,0.453,0.438c0.454-0.433,0.896-0.875,1.322-1.324c-0.166-0.136-0.32-0.278-0.463-0.426
		C63.123,62.656,62.686,63.095,62.234,63.523z M0.854,33.431c0.065-0.646,0.148-1.292,0.249-1.936
		c-0.218,0.003-0.44-0.008-0.669-0.037c-0.094,0.609-0.172,1.22-0.234,1.833C0.427,33.322,0.646,33.371,0.854,33.431z M40.895,0.865
		c0.613,0.063,1.225,0.143,1.834,0.238c0.012-0.072,0.021-0.146,0.037-0.221c0.031-0.146,0.068-0.289,0.11-0.429
		c-0.649-0.102-1.301-0.187-1.954-0.254c0.002,0.118,0.002,0.237-0.004,0.358C40.914,0.662,40.906,0.765,40.895,0.865z
		 M35.113,0.722c0.615-0.033,1.23-0.052,1.846-0.054c-0.002-0.096,0-0.191,0.004-0.289C36.968,0.25,36.98,0.125,36.995,0
		c-0.65,0.002-1.3,0.022-1.95,0.058c0.017,0.095,0.031,0.191,0.042,0.29C35.102,0.474,35.109,0.598,35.113,0.722z M1.86,27.848
		c0.163-0.621,0.341-1.239,0.536-1.852c-0.215-0.035-0.434-0.085-0.653-0.152c-0.187,0.587-0.356,1.178-0.513,1.771
		C1.451,27.68,1.661,27.758,1.86,27.848z M0.719,39.09c-0.035-0.656-0.053-1.313-0.053-1.971C0.452,37.159,0.23,37.187,0,37.197
		c0.002,0.616,0.02,1.231,0.051,1.848C0.281,39.044,0.504,39.061,0.719,39.09z M29.393,1.49c0.602-0.131,1.206-0.244,1.813-0.344
		c-0.021-0.117-0.04-0.235-0.055-0.357c-0.011-0.104-0.019-0.206-0.023-0.307c-0.635,0.104-1.268,0.223-1.898,0.358
		c0.022,0.069,0.045,0.138,0.065,0.21C29.334,1.197,29.365,1.344,29.393,1.49z M18.701,5.652c0.535-0.313,1.074-0.61,1.62-0.895
		c-0.087-0.15-0.171-0.306-0.246-0.471c-0.019-0.043-0.036-0.086-0.054-0.129c-0.559,0.289-1.111,0.595-1.658,0.915
		c0.01,0.013,0.018,0.024,0.026,0.036C18.508,5.289,18.611,5.471,18.701,5.652z M23.875,3.148c0.574-0.225,1.154-0.434,1.738-0.627
		c-0.051-0.137-0.098-0.275-0.139-0.419c-0.02-0.075-0.036-0.149-0.054-0.224c-0.604,0.199-1.204,0.416-1.8,0.648
		c0.02,0.041,0.042,0.081,0.061,0.123C23.758,2.816,23.819,2.982,23.875,3.148z M15.461,7.793c-0.133-0.156-0.26-0.324-0.377-0.502
		c-0.008-0.013-0.016-0.025-0.023-0.037c-0.5,0.369-0.993,0.755-1.479,1.153c0.154,0.171,0.291,0.349,0.414,0.529
		C14.477,8.541,14.965,8.16,15.461,7.793z M3.727,22.475c0.255-0.581,0.525-1.156,0.813-1.727c-0.206-0.072-0.414-0.158-0.618-0.264
		c-0.276,0.552-0.538,1.109-0.786,1.673C3.346,22.252,3.543,22.359,3.727,22.475z M46.59,1.915c0.596,0.16,1.188,0.337,1.777,0.527
		c0.018-0.052,0.033-0.102,0.052-0.152c0.061-0.16,0.13-0.313,0.202-0.46c-0.633-0.205-1.27-0.396-1.909-0.567
		C46.695,1.4,46.674,1.539,46.646,1.68C46.629,1.76,46.609,1.838,46.59,1.915z M57.145,6.655c0.516,0.34,1.025,0.694,1.527,1.063
		c0.019-0.023,0.035-0.049,0.053-0.071c0.121-0.151,0.248-0.291,0.38-0.422c-0.544-0.401-1.095-0.786-1.654-1.154
		c-0.066,0.149-0.14,0.3-0.224,0.447C57.2,6.566,57.172,6.609,57.145,6.655z M8.061,60.187c0.188-0.129,0.377-0.239,0.567-0.334
		c-0.422-0.527-0.827-1.064-1.216-1.608c-0.143,0.16-0.298,0.315-0.471,0.463C7.3,59.207,7.674,59.7,8.061,60.187z M1.457,44.691
		C1.32,44.042,1.201,43.391,1.1,42.736c-0.203,0.074-0.416,0.139-0.641,0.188c0.096,0.608,0.207,1.216,0.334,1.82
		C1.02,44.709,1.242,44.693,1.457,44.691z M11.961,64.382c0.163-0.155,0.332-0.294,0.504-0.416
		c-0.492-0.453-0.974-0.921-1.445-1.405c-0.115,0.18-0.244,0.356-0.391,0.528C11.064,63.533,11.508,63.965,11.961,64.382z
		 M61.725,10.23c0.455,0.418,0.902,0.85,1.34,1.294c0.021-0.02,0.039-0.038,0.06-0.058c0.144-0.131,0.292-0.25,0.443-0.359
		c-0.474-0.483-0.958-0.951-1.451-1.402c-0.091,0.14-0.188,0.277-0.296,0.412C61.789,10.157,61.756,10.193,61.725,10.23z
		 M3.047,50.104c-0.237-0.624-0.455-1.255-0.658-1.888c-0.187,0.106-0.387,0.205-0.6,0.29c0.189,0.586,0.393,1.169,0.611,1.748
		C2.619,50.186,2.836,50.137,3.047,50.104z M65.686,14.484c0.389,0.489,0.762,0.986,1.121,1.488c0.021-0.014,0.043-0.03,0.064-0.045
		c0.163-0.107,0.328-0.201,0.494-0.287c-0.387-0.545-0.793-1.082-1.215-1.611c-0.11,0.123-0.229,0.245-0.355,0.361
		C65.758,14.424,65.722,14.453,65.686,14.484z M52.053,3.861c0.564,0.253,1.123,0.521,1.676,0.804
		c0.02-0.034,0.035-0.068,0.055-0.102c0.092-0.162,0.191-0.313,0.296-0.459c-0.597-0.307-1.2-0.596-1.81-0.868
		c-0.041,0.148-0.086,0.297-0.143,0.447C52.104,3.744,52.078,3.802,52.053,3.861z M5.46,55.197c-0.334-0.583-0.651-1.173-0.951-1.77
		c-0.166,0.136-0.345,0.264-0.541,0.382c0.277,0.55,0.569,1.094,0.878,1.633C5.051,55.343,5.257,55.263,5.46,55.197z"/>
</g>
</svg>
