<?xml version="1.0" encoding="utf-8"?>
<!-- Generator: Adobe Illustrator 16.0.0, SVG Export Plug-In . SVG Version: 6.00 Build 0)  -->
<!DOCTYPE svg PUBLIC "-//W3C//DTD SVG 1.1//EN" "http://www.w3.org/Graphics/SVG/1.1/DTD/svg11.dtd">
<svg version="1.1" id="圖層_1" xmlns="http://www.w3.org/2000/svg" xmlns:xlink="http://www.w3.org/1999/xlink" x="0px" y="0px"
	 width="100px" height="100px" viewBox="0 0 101.658 101.658" enable-background="new 0 0 101.658 101.658"
	 xml:space="preserve">
<g>
	<linearGradient id="SVGID_1_" gradientUnits="userSpaceOnUse" x1="86.7695" y1="14.8887" x2="14.8894" y2="86.7688">
		<stop  offset="0.229" style="stop-color:#FADDCD"/>
		<stop  offset="0.4914" style="stop-color:#D59D7E"/>
		<stop  offset="1" style="stop-color:#AA6F50"/>
	</linearGradient>
	<path fill="url(#SVGID_1_)" d="M19.504,16.52c-1.096,1-3.277,0.395-4.9-1.347c-0.601,0.608-1.183,1.231-1.747,1.862
		c1.773,1.499,2.481,3.58,1.571,4.719c-0.909,1.14-3.098,0.91-4.953-0.49c-0.495,0.691-0.972,1.393-1.429,2.104
		c1.919,1.207,2.896,3.107,2.188,4.352c-0.708,1.246-2.843,1.379-4.863,0.346c-0.379,0.756-0.737,1.521-1.076,2.293
		c2.018,0.903,3.226,2.592,2.73,3.909c-0.496,1.318-2.521,1.793-4.637,1.141c-0.256,0.805-0.49,1.613-0.704,2.427
		c2.071,0.6,3.473,2.049,3.194,3.4C4.602,42.59,2.737,43.371,0.593,43.1c-0.128,0.835-0.235,1.672-0.321,2.511
		c2.086,0.294,3.64,1.487,3.579,2.843C3.788,49.815,2.116,50.866,0,50.963c0.002,0.844,0.025,1.688,0.069,2.531
		c2.066-0.01,3.745,0.919,3.894,2.25c0.15,1.338-1.298,2.623-3.335,3.065c0.132,0.833,0.284,1.665,0.458,2.493
		c2.012-0.307,3.777,0.349,4.13,1.625c0.354,1.288-0.852,2.769-2.765,3.529c0.259,0.803,0.537,1.602,0.838,2.395
		c1.922-0.597,3.744-0.222,4.287,0.976c0.547,1.208-0.394,2.844-2.141,3.896c0.381,0.754,0.781,1.5,1.202,2.238
		c1.793-0.871,3.63-0.778,4.349,0.311c0.726,1.102,0.064,2.852-1.478,4.162c0.492,0.685,1.004,1.361,1.534,2.027
		c1.629-1.126,3.445-1.316,4.32-0.357c0.888,0.973,0.512,2.801-0.802,4.334c0.597,0.608,1.205,1.199,1.825,1.771
		c1.433-1.367,3.196-1.84,4.211-1.03c1.033,0.825,0.942,2.701-0.125,4.426c0.681,0.509,1.372,0.997,2.073,1.468
		c1.202-1.591,2.882-2.344,4.017-1.699c1.157,0.657,1.355,2.543,0.552,4.428c0.75,0.395,1.508,0.771,2.273,1.127
		c0.937-1.784,2.492-2.808,3.723-2.346c1.255,0.473,1.742,2.33,1.225,4.334c0.801,0.274,1.608,0.527,2.419,0.76
		c0.639-1.936,2.025-3.215,3.325-2.948c1.326,0.272,2.101,2.064,1.881,4.151c0.832,0.146,1.667,0.272,2.506,0.379
		c0.312-2.047,1.493-3.562,2.832-3.502c1.371,0.063,2.427,1.757,2.511,3.893c0.844,0.017,1.688,0.012,2.531-0.013
		c-0.04-2.111,0.896-3.84,2.249-3.992c1.385-0.155,2.714,1.401,3.108,3.55c0.835-0.113,1.667-0.246,2.497-0.4
		c-0.412-2.123,0.243-4.033,1.578-4.402c1.369-0.376,2.956,1.01,3.664,3.136c0.808-0.241,1.608-0.503,2.405-0.786
		c-0.794-2.071-0.454-4.126,0.829-4.709c1.315-0.597,3.141,0.575,4.162,2.629c0.761-0.365,1.517-0.752,2.263-1.158
		c-1.169-1.949-1.177-4.092,0.02-4.881c1.229-0.809,3.26,0.105,4.591,2.041c0.696-0.481,1.384-0.982,2.063-1.504
		c-1.523-1.759-1.898-3.93-0.821-4.914c1.105-1.008,3.313-0.387,4.94,1.387c0.622-0.592,1.227-1.197,1.813-1.814
		c-1.852-1.503-2.604-3.646-1.678-4.807c0.936-1.172,3.223-0.9,5.108,0.605c0.033,0.025,0.063,0.053,0.094,0.08
		c0.527-0.688,1.034-1.388,1.521-2.097c-0.023-0.013-0.047-0.024-0.07-0.037c-2.099-1.191-3.198-3.214-2.459-4.519
		c0.741-1.302,3.042-1.391,5.14-0.199c0.074,0.042,0.143,0.086,0.214,0.131c0.415-0.771,0.811-1.549,1.183-2.336
		c-0.063-0.021-0.127-0.041-0.19-0.064c-2.26-0.849-3.663-2.674-3.137-4.078c0.528-1.401,2.787-1.852,5.046-1.002
		c0.115,0.044,0.227,0.092,0.338,0.141c0.291-0.833,0.561-1.672,0.808-2.517c-0.103-0.017-0.206-0.032-0.311-0.054
		c-2.364-0.484-4.036-2.068-3.735-3.537c0.303-1.467,2.463-2.264,4.826-1.778c0.154,0.032,0.305,0.069,0.453,0.109
		c0.156-0.875,0.291-1.753,0.402-2.635c-0.135,0.002-0.271,0.001-0.409-0.006c-2.412-0.108-4.312-1.411-4.243-2.908
		s2.078-2.622,4.488-2.513c0.19,0.01,0.377,0.029,0.559,0.051c0.02-0.898,0.012-1.797-0.018-2.695
		c-0.162,0.031-0.328,0.057-0.497,0.076c-2.398,0.27-4.478-0.719-4.646-2.209c-0.166-1.49,1.643-2.915,4.041-3.184
		c0.218-0.025,0.432-0.035,0.644-0.039c-0.124-0.899-0.271-1.795-0.445-2.688c-0.18,0.066-0.365,0.129-0.557,0.182
		c-2.327,0.641-4.535-0.01-4.935-1.455c-0.397-1.445,1.166-3.137,3.493-3.777c0.235-0.063,0.469-0.112,0.7-0.15
		c-0.267-0.874-0.56-1.742-0.876-2.604c-0.185,0.104-0.376,0.206-0.576,0.297c-2.198,0.998-4.481,0.7-5.101-0.665
		c-0.619-1.364,0.66-3.278,2.858-4.276c0.237-0.107,0.476-0.197,0.713-0.274c-0.405-0.823-0.832-1.64-1.286-2.444
		c-0.175,0.142-0.357,0.28-0.555,0.409c-2.015,1.329-4.315,1.392-5.142,0.142c-0.824-1.252,0.141-3.342,2.155-4.67
		c0.223-0.148,0.449-0.276,0.678-0.393c-0.531-0.748-1.088-1.484-1.665-2.209c-0.152,0.168-0.313,0.335-0.488,0.495
		c-1.782,1.629-4.045,2.051-5.057,0.944c-1.011-1.107-0.384-3.323,1.397-4.95c0.197-0.181,0.4-0.343,0.608-0.493
		c-0.649-0.662-1.313-1.303-1.989-1.922c-0.125,0.191-0.257,0.381-0.404,0.566c-1.505,1.887-3.675,2.658-4.848,1.723
		c-1.171-0.936-0.899-3.222,0.606-5.107c0.166-0.207,0.34-0.398,0.521-0.578c-0.745-0.55-1.5-1.078-2.268-1.581
		c-0.091,0.205-0.19,0.41-0.307,0.612c-1.19,2.1-3.214,3.201-4.518,2.461c-1.303-0.74-1.392-3.042-0.2-5.14
		c0.126-0.222,0.263-0.431,0.406-0.628c-0.817-0.42-1.646-0.816-2.48-1.189c-0.056,0.201-0.118,0.406-0.195,0.611
		c-0.849,2.26-2.674,3.662-4.077,3.137c-1.402-0.528-1.852-2.787-1.002-5.045c0.083-0.219,0.177-0.428,0.276-0.631
		c-0.867-0.281-1.738-0.543-2.616-0.777c-0.023,0.189-0.051,0.379-0.091,0.571c-0.484,2.364-2.067,4.036-3.536,3.737
		c-1.468-0.304-2.265-2.464-1.779-4.828c0.042-0.201,0.095-0.396,0.151-0.588c-0.89-0.14-1.782-0.256-2.677-0.348
		c0.002,0.161,0.002,0.324-0.005,0.49c-0.108,2.412-1.411,4.31-2.909,4.244c-1.497-0.07-2.621-2.08-2.512-4.49
		C50.649,0.342,50.666,0.17,50.687,0c-0.891,0.002-1.78,0.029-2.671,0.078c0.021,0.131,0.041,0.262,0.057,0.396
		c0.27,2.398-0.72,4.477-2.209,4.646c-1.49,0.165-2.915-1.643-3.184-4.041c-0.016-0.142-0.026-0.281-0.034-0.419
		c-0.869,0.142-1.736,0.304-2.6,0.49c0.03,0.096,0.063,0.189,0.089,0.287c0.642,2.326-0.01,4.535-1.455,4.935
		c-1.445,0.397-3.136-1.167-3.776-3.493c-0.027-0.102-0.051-0.204-0.074-0.307c-0.827,0.274-1.65,0.571-2.466,0.89
		c0.027,0.057,0.057,0.111,0.083,0.169c0.998,2.198,0.699,4.48-0.665,5.102c-1.366,0.618-3.279-0.662-4.276-2.859
		c-0.027-0.059-0.049-0.117-0.074-0.178c-0.765,0.397-1.522,0.814-2.271,1.254C25.172,6.967,25.184,6.982,25.195,7
		c1.329,2.016,1.392,4.316,0.141,5.143c-1.252,0.825-3.342-0.14-4.67-2.154c-0.011-0.018-0.021-0.035-0.031-0.052
		c-0.687,0.507-1.361,1.035-2.027,1.581C20.194,13.291,20.599,15.52,19.504,16.52z M13.747,41.405
		c-1.167-0.37-1.813-1.616-1.443-2.784c0.37-1.167,1.617-1.813,2.785-1.443c1.168,0.371,1.813,1.617,1.442,2.785
		C16.161,41.13,14.915,41.775,13.747,41.405z M20.985,78.117c-0.825-0.904-0.762-2.307,0.143-3.133
		c0.905-0.826,2.308-0.762,3.133,0.143c0.826,0.904,0.763,2.307-0.143,3.133C23.214,79.085,21.812,79.021,20.985,78.117z
		 M59.531,90.347c-1.196,0.263-2.379-0.493-2.642-1.69c-0.264-1.195,0.493-2.379,1.689-2.642c1.195-0.263,2.378,0.493,2.642,1.69
		C61.483,88.9,60.728,90.084,59.531,90.347z M87.952,60.296c1.166,0.37,1.813,1.616,1.442,2.784
		c-0.37,1.167-1.616,1.813-2.784,1.443c-1.168-0.371-1.813-1.617-1.443-2.785C85.538,60.572,86.784,59.926,87.952,60.296z
		 M80.713,23.584c0.825,0.904,0.763,2.307-0.143,3.133c-0.904,0.826-2.307,0.762-3.133-0.143c-0.825-0.904-0.762-2.307,0.144-3.133
		C78.485,22.616,79.888,22.68,80.713,23.584z M42.168,11.354c1.195-0.263,2.379,0.493,2.642,1.69
		c0.264,1.196-0.494,2.379-1.689,2.642c-1.196,0.263-2.379-0.494-2.642-1.69C40.216,12.801,40.972,11.617,42.168,11.354z
		 M36.03,15.615c1.069,3.389,4.566,5.462,8.104,4.685c3.533-0.776,5.838-4.118,5.395-7.639c8.613-0.294,17.277,2.312,24.421,7.745
		c-2.395,2.619-2.439,6.681,0.001,9.354c2.439,2.672,6.487,2.996,9.314,0.85c4.762,7.607,6.571,16.471,5.497,25.021
		c-3.466-0.76-7.002,1.231-8.097,4.68c-1.096,3.451,0.652,7.123,3.93,8.495c-1.997,3.755-4.653,7.239-7.974,10.271
		c-3.32,3.031-7.032,5.36-10.952,7.009c-1.069-3.389-4.566-5.462-8.104-4.685c-3.533,0.776-5.838,4.118-5.395,7.639
		c-8.613,0.294-17.276-2.312-24.42-7.744c2.395-2.62,2.439-6.682-0.001-9.354c-2.439-2.672-6.488-2.996-9.315-0.85
		c-4.762-7.607-6.57-16.471-5.496-25.021c3.465,0.762,7.002-1.231,8.097-4.68c1.095-3.451-0.652-7.123-3.93-8.495
		c1.997-3.755,4.653-7.239,7.974-10.271C28.398,19.593,32.11,17.264,36.03,15.615z"/>
	<linearGradient id="SVGID_2_" gradientUnits="userSpaceOnUse" x1="86.7695" y1="14.8887" x2="14.8894" y2="86.7688">
		<stop  offset="0.229" style="stop-color:#FADDCD"/>
		<stop  offset="0.4914" style="stop-color:#D59D7E"/>
		<stop  offset="1" style="stop-color:#AA6F50"/>
	</linearGradient>
	<path fill="url(#SVGID_2_)" d="M41.96,100.879c0.832,0.146,1.667,0.272,2.506,0.379c0.045-0.299,0.11-0.584,0.191-0.855
		c-0.892-0.111-1.78-0.246-2.666-0.406C42,100.282,41.991,100.576,41.96,100.879z M52.34,101.636
		c-0.005-0.299,0.011-0.591,0.043-0.871c-0.89,0.026-1.779,0.032-2.669,0.011c0.05,0.28,0.082,0.572,0.095,0.873
		C50.652,101.665,51.496,101.66,52.34,101.636z M101.089,51.797c0.19,0.01,0.377,0.029,0.559,0.051
		c0.02-0.898,0.012-1.797-0.018-2.695c-0.162,0.031-0.328,0.057-0.497,0.076c-0.125,0.014-0.248,0.022-0.371,0.029
		c0.026,0.846,0.032,1.69,0.017,2.536C100.882,51.793,100.984,51.793,101.089,51.797z M100.528,43.836
		c0.218-0.025,0.432-0.035,0.644-0.039c-0.124-0.899-0.271-1.795-0.445-2.688c-0.18,0.066-0.365,0.129-0.557,0.182
		c-0.097,0.026-0.191,0.047-0.286,0.068c0.16,0.834,0.298,1.67,0.416,2.51C100.376,43.857,100.451,43.844,100.528,43.836z
		 M98.729,36.059c0.235-0.063,0.469-0.112,0.7-0.15c-0.267-0.874-0.56-1.742-0.876-2.604c-0.185,0.104-0.376,0.206-0.576,0.297
		c-0.073,0.033-0.146,0.061-0.218,0.092c0.291,0.799,0.563,1.604,0.813,2.415C98.625,36.093,98.675,36.074,98.729,36.059z
		 M36.754,99.676c0.095-0.288,0.208-0.56,0.334-0.815c-0.87-0.249-1.734-0.519-2.592-0.814c-0.033,0.284-0.085,0.575-0.161,0.87
		C35.136,99.19,35.943,99.443,36.754,99.676z M29.388,96.928c0.142-0.27,0.3-0.521,0.466-0.754
		c-0.825-0.381-1.641-0.789-2.448-1.217c-0.075,0.277-0.171,0.561-0.291,0.844C27.864,96.195,28.622,96.571,29.388,96.928z
		 M22.546,93.072c0.185-0.245,0.382-0.469,0.587-0.67c-0.76-0.508-1.509-1.039-2.244-1.592c-0.117,0.266-0.254,0.531-0.416,0.794
		C21.153,92.113,21.845,92.602,22.546,93.072z M100.397,59.749c0.154,0.032,0.305,0.069,0.453,0.109
		c0.156-0.875,0.291-1.753,0.402-2.635c-0.135,0.002-0.271,0.001-0.409-0.006c-0.156-0.007-0.31-0.02-0.461-0.036
		c-0.106,0.836-0.233,1.668-0.383,2.5C100.132,59.699,100.265,59.722,100.397,59.749z M95.734,28.66
		c0.237-0.107,0.476-0.197,0.713-0.274c-0.405-0.823-0.832-1.64-1.286-2.444c-0.175,0.142-0.357,0.28-0.555,0.409
		c-0.057,0.038-0.114,0.071-0.171,0.105c0.418,0.744,0.814,1.498,1.191,2.258C95.662,28.697,95.697,28.678,95.734,28.66z
		 M91.131,81.615c0.033,0.025,0.063,0.053,0.094,0.08c0.527-0.688,1.034-1.388,1.521-2.097c-0.023-0.013-0.047-0.024-0.07-0.037
		c-0.231-0.132-0.449-0.275-0.657-0.427c-0.478,0.693-0.974,1.379-1.49,2.053C90.732,81.317,90.934,81.458,91.131,81.615z
		 M9.475,21.264c-0.495,0.691-0.972,1.393-1.429,2.104c0.268,0.168,0.515,0.352,0.744,0.543c0.465-0.725,0.949-1.439,1.455-2.145
		C9.984,21.619,9.727,21.453,9.475,21.264z M79.174,91.982c0.187,0.211,0.365,0.438,0.532,0.68c0.696-0.481,1.384-0.982,2.063-1.504
		c-0.192-0.223-0.368-0.453-0.523-0.686C80.565,90.996,79.874,91.5,79.174,91.982z M60.194,100.793
		c-0.058-0.293-0.092-0.58-0.108-0.861c-0.865,0.162-1.732,0.301-2.603,0.416c0.088,0.27,0.16,0.553,0.214,0.846
		C58.532,101.08,59.364,100.947,60.194,100.793z M15.274,15.803c-0.229-0.189-0.455-0.399-0.671-0.63
		c-0.601,0.608-1.183,1.231-1.747,1.862c0.241,0.204,0.461,0.42,0.661,0.643C14.085,17.04,14.67,16.416,15.274,15.803z
		 M98.472,67.494c0.115,0.044,0.227,0.092,0.338,0.141c0.291-0.833,0.561-1.672,0.808-2.517c-0.103-0.017-0.206-0.032-0.311-0.054
		c-0.184-0.037-0.362-0.085-0.536-0.135c-0.237,0.809-0.496,1.61-0.773,2.408C98.155,67.384,98.313,67.436,98.472,67.494z
		 M72.833,96.66c0.761-0.365,1.517-0.752,2.263-1.158c-0.151-0.254-0.283-0.51-0.396-0.767c-0.759,0.413-1.525,0.806-2.3,1.176
		C72.556,96.146,72.701,96.396,72.833,96.66z M67.842,98.74c-0.106-0.277-0.19-0.553-0.256-0.824
		c-0.82,0.289-1.646,0.559-2.477,0.805c0.123,0.254,0.233,0.523,0.327,0.806C66.244,99.285,67.045,99.023,67.842,98.74z
		 M95.356,74.844c0.074,0.042,0.143,0.086,0.214,0.131c0.415-0.771,0.811-1.549,1.183-2.336c-0.063-0.021-0.127-0.041-0.19-0.064
		c-0.213-0.08-0.413-0.17-0.609-0.266c-0.361,0.76-0.742,1.514-1.144,2.259C94.992,74.651,95.176,74.74,95.356,74.844z
		 M85.267,87.033c0.214,0.182,0.421,0.381,0.621,0.598c0.622-0.592,1.227-1.197,1.813-1.814c-0.229-0.186-0.44-0.381-0.635-0.582
		C86.484,85.845,85.885,86.445,85.267,87.033z M1.169,45.803c0.09-0.887,0.203-1.771,0.341-2.652
		c-0.297,0.004-0.604-0.01-0.917-0.051c-0.128,0.835-0.235,1.672-0.321,2.511C0.585,45.654,0.884,45.721,1.169,45.803z M56.03,1.185
		c0.839,0.087,1.677,0.195,2.512,0.326c0.016-0.101,0.03-0.2,0.051-0.302c0.042-0.201,0.095-0.396,0.151-0.588
		c-0.89-0.14-1.782-0.256-2.677-0.348c0.002,0.161,0.002,0.324-0.005,0.49C56.057,0.906,56.045,1.047,56.03,1.185z M48.109,0.988
		c0.842-0.047,1.685-0.072,2.526-0.075c-0.001-0.131,0-0.262,0.006-0.396C50.649,0.342,50.666,0.17,50.687,0
		c-0.891,0.002-1.78,0.029-2.671,0.078c0.021,0.131,0.041,0.262,0.057,0.396C48.092,0.647,48.103,0.818,48.109,0.988z M2.548,38.152
		c0.224-0.852,0.467-1.697,0.734-2.537c-0.294-0.048-0.593-0.115-0.894-0.208c-0.256,0.805-0.49,1.613-0.704,2.427
		C1.988,37.922,2.276,38.031,2.548,38.152z M0.983,53.557c-0.048-0.9-0.072-1.801-0.071-2.701C0.619,50.91,0.315,50.948,0,50.963
		c0.002,0.844,0.025,1.688,0.069,2.531C0.385,53.492,0.69,53.516,0.983,53.557z M40.271,2.04c0.824-0.179,1.652-0.335,2.483-0.47
		c-0.03-0.161-0.056-0.323-0.074-0.491c-0.016-0.142-0.026-0.281-0.034-0.419c-0.869,0.142-1.736,0.304-2.6,0.49
		c0.03,0.096,0.063,0.189,0.089,0.287C40.19,1.64,40.233,1.84,40.271,2.04z M25.622,7.744c0.732-0.43,1.472-0.838,2.22-1.227
		c-0.12-0.205-0.234-0.418-0.337-0.645c-0.027-0.059-0.049-0.117-0.074-0.178c-0.765,0.397-1.522,0.814-2.271,1.254
		C25.172,6.967,25.184,6.982,25.195,7C25.356,7.245,25.498,7.494,25.622,7.744z M32.71,4.313c0.788-0.308,1.582-0.594,2.382-0.859
		c-0.069-0.186-0.134-0.376-0.188-0.574c-0.027-0.102-0.051-0.204-0.074-0.307c-0.827,0.274-1.65,0.571-2.466,0.89
		c0.027,0.057,0.057,0.111,0.083,0.169C32.549,3.857,32.635,4.085,32.71,4.313z M21.183,10.676
		c-0.182-0.213-0.355-0.443-0.517-0.688c-0.011-0.018-0.021-0.035-0.031-0.052c-0.687,0.507-1.361,1.035-2.027,1.581
		c0.211,0.234,0.398,0.479,0.566,0.725C19.833,11.7,20.503,11.178,21.183,10.676z M5.105,30.791c0.349-0.796,0.72-1.584,1.112-2.365
		c-0.281-0.098-0.565-0.217-0.847-0.361c-0.379,0.756-0.737,1.521-1.076,2.293C4.583,30.485,4.854,30.633,5.105,30.791z
		 M63.831,2.623c0.816,0.219,1.63,0.461,2.438,0.723c0.023-0.07,0.044-0.14,0.07-0.209c0.083-0.219,0.177-0.428,0.276-0.631
		c-0.867-0.281-1.738-0.543-2.616-0.777c-0.023,0.189-0.051,0.379-0.091,0.571C63.886,2.41,63.859,2.517,63.831,2.623z
		 M78.292,9.117c0.708,0.465,1.406,0.951,2.094,1.457c0.025-0.032,0.048-0.066,0.073-0.098c0.166-0.207,0.34-0.398,0.521-0.578
		c-0.745-0.55-1.5-1.078-2.268-1.581c-0.091,0.205-0.19,0.41-0.307,0.612C78.37,8.994,78.331,9.055,78.292,9.117z M11.043,82.461
		c0.257-0.177,0.518-0.327,0.777-0.457c-0.578-0.725-1.134-1.459-1.666-2.205c-0.194,0.22-0.407,0.432-0.646,0.635
		C10.001,81.118,10.513,81.795,11.043,82.461z M1.996,61.23c-0.188-0.889-0.352-1.782-0.49-2.679
		c-0.278,0.103-0.569,0.19-0.878,0.258c0.132,0.833,0.284,1.665,0.458,2.493C1.397,61.256,1.702,61.233,1.996,61.23z M16.387,88.209
		c0.224-0.213,0.455-0.402,0.691-0.57c-0.675-0.621-1.335-1.262-1.981-1.926c-0.156,0.246-0.334,0.488-0.535,0.725
		C15.158,87.046,15.767,87.637,16.387,88.209z M84.568,14.016c0.624,0.572,1.235,1.164,1.836,1.772
		c0.028-0.026,0.054-0.053,0.081-0.078c0.197-0.181,0.4-0.343,0.608-0.493c-0.649-0.662-1.313-1.303-1.989-1.922
		c-0.125,0.191-0.257,0.381-0.404,0.566C84.657,13.915,84.612,13.965,84.568,14.016z M4.175,68.645
		c-0.326-0.854-0.625-1.718-0.902-2.586c-0.256,0.146-0.529,0.282-0.821,0.398c0.259,0.803,0.537,1.602,0.838,2.395
		C3.588,68.758,3.884,68.691,4.175,68.645z M89.995,19.844c0.531,0.67,1.044,1.352,1.536,2.041c0.03-0.021,0.058-0.043,0.089-0.063
		c0.223-0.148,0.449-0.276,0.678-0.393c-0.531-0.748-1.088-1.484-1.665-2.209c-0.152,0.168-0.313,0.335-0.488,0.495
		C90.095,19.761,90.045,19.801,89.995,19.844z M71.318,5.289c0.772,0.347,1.538,0.714,2.295,1.102
		c0.026-0.047,0.048-0.094,0.074-0.14c0.126-0.222,0.263-0.431,0.406-0.628c-0.817-0.42-1.646-0.816-2.48-1.189
		c-0.056,0.201-0.118,0.406-0.195,0.611C71.387,5.129,71.352,5.208,71.318,5.289z M7.48,75.625
		c-0.458-0.799-0.894-1.607-1.304-2.425c-0.228,0.186-0.474,0.361-0.741,0.522c0.381,0.754,0.781,1.5,1.202,2.238
		C6.919,75.824,7.201,75.715,7.48,75.625z"/>
</g>
</svg>
