<?xml version="1.0" encoding="utf-8"?>
<!-- Generator: Adobe Illustrator 16.0.0, SVG Export Plug-In . SVG Version: 6.00 Build 0)  -->
<!DOCTYPE svg PUBLIC "-//W3C//DTD SVG 1.1//EN" "http://www.w3.org/Graphics/SVG/1.1/DTD/svg11.dtd">
<svg version="1.1" id="圖層_1" xmlns="http://www.w3.org/2000/svg" xmlns:xlink="http://www.w3.org/1999/xlink" x="0px" y="0px"
	 width="120.361px" height="120.36px" viewBox="0 0 120.361 120.36" enable-background="new 0 0 120.361 120.36"
	 xml:space="preserve">
<g>
	<linearGradient id="SVGID_1_" gradientUnits="userSpaceOnUse" x1="102.7393" y1="17.6235" x2="17.6245" y2="102.7383">
		<stop  offset="0.229" style="stop-color:#FADDCD"/>
		<stop  offset="0.4914" style="stop-color:#D59D7E"/>
		<stop  offset="1" style="stop-color:#AA6F50"/>
	</linearGradient>
	<path fill="url(#SVGID_1_)" d="M30.945,13.589c-1.487,0.934-3.9-0.232-5.422-2.604c-0.829,0.582-1.639,1.184-2.43,1.8
		c1.748,2.12,2.133,4.694,0.833,5.829c-1.302,1.135-3.802,0.404-5.667-1.619c-0.723,0.7-1.426,1.416-2.108,2.148
		c1.979,1.812,2.716,4.23,1.628,5.531c-1.088,1.303-3.602,1.006-5.738-0.626c-0.601,0.802-1.18,1.615-1.738,2.442
		c2.16,1.48,3.209,3.703,2.354,5.132c-0.855,1.431-3.314,1.556-5.642,0.349c-0.468,0.883-0.911,1.775-1.333,2.679
		c2.287,1.135,3.612,3.119,3.002,4.636c-0.61,1.52-2.946,2.035-5.387,1.267c-0.326,0.945-0.627,1.897-0.905,2.856
		c2.367,0.783,3.925,2.502,3.567,4.068c-0.36,1.573-2.53,2.443-5.016,2.108c-0.176,0.983-0.327,1.972-0.455,2.963
		c2.41,0.427,4.168,1.863,4.061,3.444c-0.108,1.592-2.067,2.781-4.533,2.865c-0.022,0.999-0.021,2,0.006,3.001
		c2.409,0.068,4.326,1.205,4.467,2.767c0.141,1.575-1.577,3.045-3.967,3.527c0.132,0.989,0.288,1.979,0.47,2.966
		c2.365-0.289,4.407,0.534,4.788,2.043c0.381,1.521-1.061,3.229-3.317,4.085c0.284,0.959,0.593,1.912,0.927,2.861
		c2.273-0.636,4.393-0.139,5,1.281c0.612,1.436-0.527,3.336-2.602,4.535c0.429,0.902,0.882,1.799,1.359,2.687
		c2.135-0.968,4.29-0.804,5.106,0.497c0.829,1.32,0.004,3.371-1.85,4.879c0.566,0.835,1.15,1.652,1.751,2.449
		c1.958-1.289,4.112-1.467,5.124-0.309c1.028,1.179,0.526,3.345-1.083,5.128c0.686,0.736,1.388,1.452,2.105,2.147
		c1.736-1.598,3.853-2.119,5.039-1.129c1.207,1.01,1.039,3.25-0.295,5.273c0.791,0.619,1.594,1.217,2.41,1.794
		c1.468-1.88,3.496-2.743,4.832-1.944c1.361,0.815,1.537,3.083,0.51,5.307c0.875,0.489,1.762,0.954,2.657,1.397
		c1.153-2.12,3.039-3.316,4.497-2.731c1.486,0.598,2.01,2.849,1.313,5.232c0.938,0.347,1.885,0.67,2.839,0.971
		c0.796-2.317,2.492-3.831,4.039-3.479c1.584,0.363,2.455,2.559,2.103,5.064c0.979,0.198,1.963,0.371,2.951,0.521
		c0.399-2.468,1.855-4.282,3.463-4.175c1.646,0.113,2.865,2.207,2.871,4.793c0.996,0.045,1.994,0.065,2.993,0.061
		c-0.031-2.559,1.136-4.646,2.769-4.793c1.674-0.148,3.23,1.801,3.606,4.428c0.99-0.11,1.979-0.246,2.967-0.407
		c-0.487-2.581,0.343-4.903,1.962-5.31c1.658-0.417,3.536,1.333,4.291,3.941c0.965-0.266,1.926-0.555,2.881-0.871
		c-0.948-2.517-0.506-5.014,1.056-5.682c1.601-0.682,3.774,0.814,4.915,3.35c0.914-0.414,1.821-0.853,2.721-1.316
		c-1.402-2.37-1.379-4.979,0.083-5.897c1.501-0.94,3.942,0.251,5.461,2.661c0.851-0.559,1.683-1.137,2.495-1.73
		c-1.839-2.144-2.263-4.798-0.937-5.955c1.337-1.166,3.943-0.367,5.821,1.786c0.033,0.037,0.062,0.075,0.093,0.114
		c0.76-0.691,1.498-1.398,2.216-2.121c-0.024-0.021-0.049-0.038-0.074-0.059c-2.192-1.832-3.047-4.42-1.909-5.783
		c1.139-1.359,3.838-0.977,6.028,0.854c0.078,0.064,0.149,0.132,0.222,0.197c0.647-0.81,1.271-1.633,1.873-2.47
		c-0.07-0.039-0.14-0.075-0.21-0.117c-2.452-1.465-3.7-3.888-2.79-5.412c0.911-1.521,3.637-1.566,6.089-0.1
		c0.125,0.075,0.245,0.154,0.364,0.234c0.515-0.908,1.006-1.828,1.473-2.76c-0.116-0.042-0.233-0.082-0.35-0.129
		c-2.652-1.064-4.265-3.262-3.604-4.909c0.662-1.646,3.348-2.118,5.998-1.052c0.172,0.07,0.34,0.145,0.504,0.223
		c0.367-0.986,0.71-1.98,1.026-2.983c-0.158-0.026-0.316-0.057-0.476-0.093c-2.787-0.638-4.724-2.556-4.328-4.285
		c0.396-1.729,2.976-2.615,5.76-1.978c0.221,0.051,0.433,0.112,0.641,0.177c0.212-1.042,0.393-2.091,0.549-3.143
		c-0.195,0-0.394-0.004-0.595-0.018c-2.851-0.193-5.063-1.785-4.944-3.556c0.122-1.771,2.53-3.048,5.38-2.854
		c0.26,0.019,0.511,0.052,0.759,0.092c0.045-1.074,0.063-2.148,0.05-3.226c-0.225,0.04-0.453,0.073-0.688,0.095
		c-2.847,0.255-5.281-0.972-5.44-2.738c-0.157-1.768,2.022-3.406,4.868-3.66c0.287-0.025,0.569-0.033,0.848-0.029
		c-0.127-1.074-0.284-2.146-0.471-3.218c-0.237,0.083-0.48,0.161-0.734,0.226c-2.771,0.697-5.367-0.133-5.801-1.854
		c-0.432-1.721,1.465-3.679,4.234-4.376c0.3-0.074,0.597-0.129,0.889-0.17c-0.297-1.045-0.622-2.085-0.98-3.119
		c-0.234,0.129-0.477,0.252-0.733,0.36c-2.627,1.122-5.321,0.708-6.019-0.923c-0.696-1.633,0.87-3.864,3.498-4.984
		c0.291-0.125,0.582-0.227,0.872-0.314c-0.461-0.982-0.952-1.959-1.472-2.926c-0.213,0.166-0.437,0.326-0.674,0.476
		c-2.42,1.52-5.146,1.532-6.09,0.03c-0.943-1.504,0.255-3.953,2.675-5.471c0.268-0.168,0.539-0.314,0.813-0.446
		c-0.616-0.908-1.254-1.795-1.91-2.659c-0.187,0.197-0.38,0.39-0.592,0.574c-2.151,1.88-4.843,2.318-6.01,0.982
		c-1.167-1.338-0.366-3.943,1.786-5.822c0.236-0.206,0.479-0.393,0.728-0.563c-0.751-0.798-1.519-1.572-2.306-2.322
		c-0.149,0.221-0.31,0.438-0.487,0.65c-1.831,2.193-4.42,3.048-5.782,1.91c-1.361-1.139-0.979-3.838,0.854-6.029
		c0.193-0.232,0.396-0.445,0.606-0.646c-0.863-0.663-1.744-1.299-2.638-1.911c-0.108,0.225-0.224,0.449-0.356,0.672
		c-1.467,2.453-3.89,3.701-5.414,2.791c-1.521-0.912-1.566-3.637-0.1-6.088c0.142-0.238,0.296-0.461,0.455-0.676
		c-0.95-0.512-1.91-1-2.883-1.459c-0.067,0.215-0.14,0.431-0.227,0.646c-1.064,2.651-3.262,4.265-4.909,3.604
		c-1.646-0.662-2.117-3.348-1.052-5.998c0.092-0.227,0.193-0.442,0.3-0.654c-1.006-0.35-2.021-0.674-3.044-0.971
		c-0.031,0.188-0.065,0.379-0.109,0.57c-0.637,2.786-2.555,4.723-4.285,4.328c-1.729-0.397-2.614-2.976-1.977-5.76
		c0.045-0.204,0.102-0.402,0.161-0.596c-1.038-0.186-2.08-0.342-3.128-0.473c-0.002,0.156-0.007,0.314-0.018,0.474
		c-0.192,2.851-1.785,5.063-3.556,4.944c-1.771-0.122-3.048-2.53-2.854-5.381c0.012-0.167,0.029-0.332,0.05-0.494
		c-1.044-0.02-2.088-0.014-3.133,0.021c0.016,0.117,0.032,0.233,0.043,0.354c0.256,2.844-0.971,5.278-2.738,5.438
		c-1.769,0.157-3.405-2.022-3.661-4.866c-0.01-0.125-0.015-0.249-0.021-0.373c-1.021,0.144-2.043,0.315-3.06,0.514
		c0.02,0.072,0.042,0.143,0.061,0.215c0.697,2.771-0.134,5.367-1.854,5.802c-1.722,0.431-3.681-1.464-4.377-4.235
		c-0.019-0.073-0.031-0.147-0.048-0.223c-0.976,0.301-1.946,0.628-2.911,0.981c0.011,0.022,0.021,0.044,0.031,0.065
		c1.121,2.629,0.708,5.322-0.924,6.021c-1.633,0.695-3.864-0.871-4.985-3.498c-0.008-0.022-0.016-0.045-0.025-0.066
		c-0.905,0.445-1.804,0.918-2.695,1.413C32.433,9.976,32.433,12.656,30.945,13.589z M23.344,59.797
		c1.253-0.046,2.305,0.932,2.352,2.185c0.046,1.253-0.932,2.305-2.185,2.352c-1.253,0.046-2.305-0.933-2.351-2.186
		C21.113,60.896,22.091,59.843,23.344,59.797z M41.562,92.166c0.587-1.108,1.96-1.531,3.067-0.945
		c1.108,0.586,1.531,1.959,0.944,3.068c-0.587,1.107-1.959,1.529-3.067,0.943C41.397,94.645,40.976,93.273,41.562,92.166z
		 M97.624,60.609c-1.254,0.046-2.307-0.931-2.353-2.184c-0.047-1.253,0.933-2.306,2.185-2.352c1.252-0.047,2.305,0.932,2.352,2.186
		C99.854,59.511,98.876,60.563,97.624,60.609z M79.405,28.242c-0.587,1.108-1.96,1.531-3.067,0.945
		c-1.109-0.586-1.53-1.961-0.944-3.068s1.959-1.529,3.067-0.943C79.568,25.761,79.991,27.134,79.405,28.242z M76.156,14.751
		l-6.81,12.865c-0.727,1.369-0.199,3.083,1.171,3.809l7.241,3.834c1.37,0.724,3.085,0.197,3.81-1.174l6.85-12.938
		c4.888,3.528,9.197,8.029,12.599,13.45c3.261,5.197,5.395,10.777,6.492,16.459l-14.372,0.529c-1.55,0.057-2.771,1.37-2.715,2.92
		l0.302,8.188c0.059,1.548,1.372,2.77,2.921,2.712l14.506-0.533c-1.168,11.935-6.757,23.325-16.18,31.568l-7.698-12.268
		c-0.823-1.313-2.57-1.714-3.885-0.89l-6.939,4.354c-1.313,0.823-1.713,2.573-0.889,3.886l7.807,12.441
		c-11.481,5.309-24.244,5.736-35.651,1.873l6.905-13.047c0.727-1.369,0.199-3.084-1.172-3.81l-7.241-3.833
		c-1.368-0.725-3.083-0.196-3.809,1.173l-7.014,13.25C27.328,96,22.876,91.394,19.38,85.822c-3.259-5.193-5.393-10.771-6.491-16.449
		l14.941-0.551c1.549-0.057,2.771-1.37,2.714-2.92l-0.302-8.188c-0.057-1.548-1.371-2.77-2.92-2.712l-15.078,0.555
		c1.182-12.096,6.901-23.636,16.553-31.905l7.896,12.584c0.823,1.313,2.571,1.713,3.885,0.889l6.939-4.354
		c1.313-0.823,1.714-2.572,0.89-3.886l-7.93-12.637C52.003,11.06,64.775,10.763,76.156,14.751z M81.829,93.287
		c-1.062,0.666-2.461,0.347-3.127-0.715c-0.666-1.063-0.347-2.463,0.715-3.13c1.063-0.667,2.463-0.345,3.129,0.716
		C83.213,91.22,82.891,92.62,81.829,93.287z M39.137,27.121c1.062-0.666,2.462-0.346,3.128,0.716s0.347,2.462-0.715,3.128
		c-1.063,0.667-2.463,0.346-3.129-0.716C37.754,29.187,38.075,27.787,39.137,27.121z"/>
	<linearGradient id="SVGID_2_" gradientUnits="userSpaceOnUse" x1="102.7393" y1="17.6235" x2="17.6245" y2="102.7383">
		<stop  offset="0.229" style="stop-color:#FADDCD"/>
		<stop  offset="0.4914" style="stop-color:#D59D7E"/>
		<stop  offset="1" style="stop-color:#AA6F50"/>
	</linearGradient>
	<path fill="url(#SVGID_2_)" d="M39.264,116.603c0.938,0.347,1.885,0.67,2.839,0.971c0.115-0.338,0.252-0.655,0.403-0.955
		c-1.015-0.317-2.021-0.664-3.019-1.036C39.437,115.917,39.364,116.258,39.264,116.603z M51.195,119.68
		c0.056-0.35,0.137-0.686,0.233-1.005c-1.042-0.157-2.079-0.339-3.11-0.552c-0.002,0.337-0.025,0.683-0.074,1.036
		C49.223,119.358,50.207,119.531,51.195,119.68z M118.519,71.936c0.221,0.051,0.433,0.112,0.641,0.177
		c0.212-1.042,0.393-2.091,0.549-3.143c-0.195,0-0.394-0.004-0.595-0.018c-0.148-0.011-0.294-0.026-0.438-0.045
		c-0.148,0.99-0.32,1.977-0.518,2.958C118.277,71.887,118.397,71.909,118.519,71.936z M119.549,62.542
		c0.26,0.019,0.511,0.052,0.759,0.092c0.045-1.074,0.063-2.148,0.05-3.226c-0.225,0.04-0.453,0.073-0.688,0.095
		c-0.118,0.01-0.233,0.015-0.349,0.02c0.011,1.005-0.005,2.008-0.045,3.01C119.367,62.538,119.457,62.537,119.549,62.542z
		 M119.098,53.105c0.287-0.025,0.569-0.033,0.848-0.029c-0.127-1.074-0.284-2.146-0.471-3.218c-0.237,0.083-0.48,0.161-0.734,0.226
		c-0.091,0.021-0.182,0.039-0.272,0.06c0.171,0.993,0.316,1.988,0.437,2.985C118.969,53.122,119.032,53.111,119.098,53.105z
		 M33.454,114.102c0.172-0.315,0.361-0.608,0.562-0.88c-0.961-0.473-1.911-0.971-2.847-1.496c-0.1,0.324-0.222,0.652-0.372,0.979
		C31.672,113.194,32.559,113.659,33.454,114.102z M25.455,109.342c0.222-0.284,0.459-0.542,0.702-0.778
		c-0.881-0.619-1.745-1.266-2.595-1.937c-0.146,0.309-0.317,0.617-0.518,0.921C23.836,108.167,24.639,108.765,25.455,109.342z
		 M18.301,103.404c0.268-0.246,0.544-0.463,0.824-0.656c-0.777-0.752-1.537-1.528-2.277-2.328c-0.191,0.285-0.408,0.565-0.652,0.837
		C16.881,101.993,17.583,102.708,18.301,103.404z M116.032,81.052c0.172,0.07,0.34,0.145,0.504,0.223
		c0.367-0.986,0.71-1.98,1.026-2.983c-0.158-0.026-0.316-0.057-0.476-0.093c-0.181-0.042-0.356-0.089-0.529-0.141
		c-0.301,0.951-0.625,1.895-0.975,2.83C115.732,80.939,115.883,80.993,116.032,81.052z M117.174,43.853
		c0.3-0.074,0.597-0.129,0.889-0.17c-0.297-1.045-0.622-2.085-0.98-3.119c-0.234,0.129-0.477,0.252-0.733,0.36
		c-0.073,0.031-0.147,0.058-0.221,0.086c0.329,0.956,0.632,1.917,0.909,2.882C117.083,43.88,117.128,43.865,117.174,43.853z
		 M100.613,104.563c0.033,0.037,0.062,0.075,0.093,0.114c0.76-0.691,1.498-1.398,2.216-2.121c-0.024-0.021-0.049-0.038-0.074-0.059
		c-0.242-0.203-0.466-0.416-0.676-0.635c-0.702,0.706-1.426,1.398-2.17,2.074C100.212,104.131,100.417,104.337,100.613,104.563z
		 M18.26,16.996c-0.723,0.7-1.426,1.416-2.108,2.148c0.276,0.252,0.524,0.518,0.751,0.789c0.695-0.744,1.411-1.475,2.148-2.189
		C18.779,17.518,18.514,17.269,18.26,16.996z M84.493,114.111c0.173,0.284,0.333,0.586,0.476,0.904
		c0.914-0.414,1.821-0.853,2.721-1.316c-0.178-0.301-0.332-0.604-0.464-0.908C86.322,113.255,85.411,113.696,84.493,114.111z
		 M60.522,120.359c-0.005-0.354,0.016-0.695,0.055-1.025c-1.042,0.006-2.08-0.016-3.118-0.065c0.044,0.332,0.069,0.677,0.07,1.03
		C58.525,120.343,59.523,120.364,60.522,120.359z M26.172,11.861c-0.229-0.27-0.446-0.561-0.648-0.875
		c-0.829,0.582-1.639,1.184-2.43,1.8c0.237,0.288,0.447,0.585,0.635,0.887C24.523,13.05,25.338,12.447,26.172,11.861z
		 M112.15,89.667c0.125,0.075,0.245,0.154,0.364,0.234c0.515-0.908,1.006-1.828,1.473-2.76c-0.116-0.042-0.233-0.082-0.35-0.129
		c-0.207-0.083-0.404-0.176-0.597-0.271c-0.447,0.892-0.918,1.771-1.41,2.641C111.805,89.471,111.979,89.565,112.15,89.667z
		 M76.117,118.218c0.965-0.266,1.926-0.555,2.881-0.871c-0.123-0.326-0.222-0.654-0.299-0.977c-0.971,0.321-1.947,0.615-2.928,0.884
		C75.903,117.56,76.021,117.882,76.117,118.218z M69.864,119.586c-0.064-0.345-0.104-0.685-0.124-1.016
		c-1.017,0.165-2.035,0.304-3.055,0.415c0.089,0.322,0.161,0.658,0.212,1.008C67.888,119.883,68.877,119.748,69.864,119.586z
		 M106.967,97.569c0.078,0.064,0.149,0.132,0.222,0.197c0.647-0.81,1.271-1.633,1.873-2.47c-0.07-0.039-0.14-0.075-0.21-0.117
		c-0.229-0.137-0.444-0.284-0.652-0.437c-0.582,0.809-1.185,1.605-1.811,2.388C106.584,97.267,106.778,97.412,106.967,97.569z
		 M92.637,109.634c0.211,0.256,0.41,0.532,0.597,0.828c0.851-0.559,1.683-1.137,2.495-1.73c-0.228-0.265-0.432-0.537-0.616-0.813
		C94.307,108.507,93.481,109.08,92.637,109.634z M3.396,43.824c0.291-1.015,0.611-2.021,0.958-3.018
		c-0.349-0.059-0.702-0.141-1.058-0.253c-0.326,0.945-0.627,1.897-0.905,2.856C2.746,43.527,3.081,43.667,3.396,43.824z
		 M76.736,3.451c0.959,0.279,1.911,0.583,2.855,0.911c0.04-0.112,0.079-0.226,0.124-0.339c0.092-0.227,0.193-0.442,0.3-0.654
		c-1.006-0.35-2.021-0.674-3.044-0.971c-0.031,0.188-0.065,0.379-0.109,0.57C76.825,3.132,76.782,3.294,76.736,3.451z M67.551,1.547
		c0.99,0.124,1.978,0.272,2.959,0.448c0.026-0.153,0.056-0.306,0.091-0.459c0.045-0.204,0.102-0.402,0.161-0.596
		c-1.038-0.186-2.08-0.342-3.128-0.473c-0.002,0.156-0.007,0.314-0.018,0.474C67.602,1.147,67.579,1.349,67.551,1.547z M6.62,35.204
		c0.44-0.944,0.902-1.879,1.392-2.8c-0.332-0.118-0.666-0.26-0.997-0.432c-0.468,0.883-0.911,1.775-1.333,2.679
		C6.018,34.818,6.329,35.004,6.62,35.204z M1.541,52.816c0.135-1.059,0.296-2.113,0.486-3.162c-0.352,0.002-0.713-0.018-1.084-0.067
		c-0.176,0.983-0.327,1.972-0.455,2.963C0.857,52.615,1.207,52.707,1.541,52.816z M58.197,1.115
		c0.998-0.033,1.995-0.039,2.993-0.021c-0.002-0.193,0.003-0.389,0.017-0.588c0.012-0.167,0.029-0.332,0.05-0.494
		c-1.044-0.02-2.088-0.014-3.133,0.021c0.016,0.117,0.032,0.233,0.043,0.354C58.188,0.632,58.196,0.875,58.197,1.115z M39.929,4.662
		c0.943-0.345,1.892-0.664,2.844-0.959c-0.096-0.265-0.184-0.537-0.256-0.822c-0.019-0.073-0.031-0.147-0.048-0.223
		c-0.976,0.301-1.946,0.628-2.911,0.981c0.011,0.022,0.021,0.044,0.031,0.065C39.725,4.025,39.837,4.345,39.929,4.662z
		 M48.911,2.164c0.982-0.191,1.968-0.357,2.955-0.498c-0.041-0.23-0.076-0.465-0.099-0.707c-0.01-0.125-0.015-0.249-0.021-0.373
		c-1.021,0.144-2.043,0.315-3.06,0.514c0.02,0.072,0.042,0.143,0.061,0.215C48.819,1.6,48.871,1.882,48.911,2.164z M34.138,7.137
		c-0.167-0.286-0.32-0.591-0.458-0.909c-0.008-0.022-0.016-0.045-0.025-0.066c-0.905,0.445-1.804,0.918-2.695,1.413
		c0.196,0.317,0.363,0.642,0.507,0.964C32.349,8.046,33.239,7.58,34.138,7.137z M11.156,27.169c0.574-0.854,1.174-1.693,1.795-2.52
		c-0.307-0.175-0.613-0.373-0.91-0.601c-0.601,0.802-1.18,1.615-1.738,2.442C10.612,26.703,10.896,26.931,11.156,27.169z
		 M85.52,6.777c0.904,0.429,1.8,0.881,2.685,1.357c0.043-0.077,0.082-0.154,0.127-0.229c0.142-0.238,0.296-0.461,0.455-0.676
		c-0.95-0.512-1.91-1-2.883-1.459c-0.067,0.215-0.14,0.431-0.227,0.646C85.627,6.541,85.573,6.66,85.52,6.777z M100.99,17.4
		c0.726,0.691,1.437,1.404,2.13,2.139c0.037-0.031,0.07-0.065,0.106-0.098c0.236-0.206,0.479-0.393,0.728-0.563
		c-0.751-0.798-1.519-1.572-2.306-2.322c-0.149,0.221-0.31,0.438-0.487,0.65C101.106,17.273,101.048,17.334,100.99,17.4z
		 M7.146,88.612c0.336-0.151,0.67-0.272,1.002-0.368c-0.521-0.965-1.014-1.938-1.475-2.92C6.4,85.538,6.107,85.74,5.787,85.925
		C6.216,86.828,6.669,87.724,7.146,88.612z M1.098,61.968c-0.031-1.075-0.033-2.15-0.006-3.224
		c-0.344,0.061-0.703,0.101-1.076,0.114c-0.022,0.999-0.021,2,0.006,3.001C0.395,61.871,0.754,61.91,1.098,61.968z M12.154,96.437
		c0.306-0.201,0.615-0.373,0.926-0.518c-0.654-0.865-1.287-1.752-1.9-2.662c-0.234,0.254-0.492,0.498-0.776,0.73
		C10.97,94.823,11.554,95.64,12.154,96.437z M107.265,24.433c0.605,0.799,1.193,1.617,1.764,2.453
		c0.038-0.025,0.073-0.051,0.111-0.074c0.268-0.168,0.539-0.314,0.813-0.446c-0.616-0.908-1.254-1.795-1.91-2.659
		c-0.187,0.197-0.38,0.39-0.592,0.574C107.39,24.334,107.327,24.382,107.265,24.433z M2.066,71.066
		c-0.198-1.064-0.363-2.133-0.503-3.202c-0.329,0.116-0.677,0.216-1.042,0.29c0.132,0.989,0.288,1.979,0.47,2.966
		C1.359,71.074,1.719,71.058,2.066,71.066z M112.354,32.37c0.478,0.894,0.931,1.794,1.358,2.701
		c0.039-0.018,0.076-0.037,0.116-0.054c0.291-0.125,0.582-0.227,0.872-0.314c-0.461-0.982-0.952-1.959-1.472-2.926
		c-0.213,0.166-0.437,0.326-0.674,0.476C112.487,32.294,112.42,32.33,112.354,32.37z M93.676,11.466
		c0.826,0.566,1.641,1.156,2.441,1.768c0.039-0.049,0.074-0.098,0.115-0.146c0.193-0.232,0.396-0.445,0.606-0.646
		c-0.863-0.663-1.744-1.299-2.638-1.911c-0.108,0.225-0.224,0.449-0.356,0.672C93.79,11.293,93.731,11.378,93.676,11.466z
		 M4.441,79.896c-0.365-1.027-0.701-2.062-1.006-3.1c-0.304,0.168-0.627,0.32-0.974,0.451c0.284,0.959,0.593,1.912,0.927,2.861
		C3.745,80.009,4.098,79.941,4.441,79.896z"/>
	<linearGradient id="SVGID_3_" gradientUnits="userSpaceOnUse" x1="88.2021" y1="32.4858" x2="32.7651" y2="87.9229">
		<stop  offset="0.229" style="stop-color:#FADDCD"/>
		<stop  offset="0.4914" style="stop-color:#D59D7E"/>
		<stop  offset="1" style="stop-color:#AA6F50"/>
	</linearGradient>
	<path fill="url(#SVGID_3_)" d="M27.311,61.921c-0.078-2.145-1.881-3.818-4.026-3.74c-2.146,0.08-3.82,1.882-3.741,4.027
		c0.078,2.145,1.881,3.82,4.026,3.74C25.715,65.871,27.39,64.068,27.311,61.921z M23.511,64.333
		c-1.253,0.046-2.305-0.933-2.351-2.186c-0.047-1.252,0.931-2.305,2.184-2.351s2.305,0.932,2.352,2.185
		C25.741,63.235,24.764,64.287,23.511,64.333z M37.05,31.109c1.142,1.818,3.541,2.367,5.359,1.226s2.366-3.539,1.226-5.357
		s-3.539-2.368-5.357-1.228C36.459,26.891,35.909,29.291,37.05,31.109z M42.265,27.836c0.666,1.062,0.347,2.462-0.715,3.128
		c-1.063,0.667-2.463,0.346-3.129-0.716c-0.667-1.062-0.346-2.462,0.716-3.128S41.599,26.775,42.265,27.836z M77.332,93.43
		c1.141,1.819,3.539,2.366,5.357,1.228c1.817-1.143,2.368-3.541,1.228-5.358c-1.142-1.819-3.541-2.368-5.36-1.228
		C76.739,89.214,76.19,91.612,77.332,93.43z M82.546,90.158c0.667,1.063,0.345,2.462-0.717,3.129
		c-1.062,0.666-2.461,0.347-3.127-0.715c-0.666-1.063-0.347-2.463,0.715-3.13C80.479,88.775,81.88,89.097,82.546,90.158z
		 M45.385,89.791c-1.896-1.004-4.248-0.28-5.253,1.617c-1.004,1.897-0.279,4.25,1.617,5.254s4.249,0.28,5.253-1.617
		C48.007,93.148,47.283,90.795,45.385,89.791z M42.506,95.232c-1.108-0.587-1.53-1.959-0.944-3.066
		c0.587-1.108,1.96-1.531,3.067-0.945c1.108,0.586,1.531,1.959,0.944,3.068C44.986,95.396,43.614,95.818,42.506,95.232z
		 M75.581,30.617c1.898,1.003,4.248,0.28,5.253-1.617s0.28-4.25-1.615-5.254c-1.898-1.004-4.251-0.281-5.254,1.616
		C72.96,27.259,73.685,29.611,75.581,30.617z M78.461,25.175c1.107,0.586,1.53,1.959,0.944,3.066
		c-0.587,1.108-1.96,1.531-3.067,0.945c-1.109-0.586-1.53-1.961-0.944-3.068S77.353,24.589,78.461,25.175z M93.655,58.486
		c0.08,2.145,1.882,3.818,4.027,3.74c2.146-0.079,3.82-1.882,3.742-4.026c-0.08-2.146-1.883-3.821-4.027-3.742
		C95.252,54.537,93.577,56.34,93.655,58.486z M97.456,56.074c1.252-0.047,2.305,0.932,2.352,2.186
		c0.046,1.252-0.932,2.304-2.184,2.35c-1.254,0.046-2.307-0.931-2.353-2.184C95.225,57.172,96.204,56.12,97.456,56.074z"/>
</g>
</svg>
