<?xml version="1.0" encoding="utf-8"?>
<!-- Generator: Adobe Illustrator 16.0.0, SVG Export Plug-In . SVG Version: 6.00 Build 0)  -->
<!DOCTYPE svg PUBLIC "-//W3C//DTD SVG 1.1//EN" "http://www.w3.org/Graphics/SVG/1.1/DTD/svg11.dtd">
<svg version="1.1" id="圖層_1" xmlns="http://www.w3.org/2000/svg" xmlns:xlink="http://www.w3.org/1999/xlink" x="0px" y="0px"
	 width="100px" height="100px" viewBox="0 0 80.521 80.314" enable-background="new 0 0 80.521 80.314" xml:space="preserve">
<g>
	<linearGradient id="SVGID_1_" gradientUnits="userSpaceOnUse" x1="68.3418" y1="11.9502" x2="12.1969" y2="68.0951">
		<stop  offset="0.229" style="stop-color:#FADDCD"/>
		<stop  offset="0.4914" style="stop-color:#D59D7E"/>
		<stop  offset="1" style="stop-color:#AA6F50"/>
	</linearGradient>
	<path fill="url(#SVGID_1_)" stroke="#3C3C3C" stroke-miterlimit="10" d="M10.642,19.767c-0.014,0.021-0.026,0.041-0.04,0.062
		l-3.834-1.15L5.924,20.13L5.08,21.582l2.894,2.76c-0.818,1.674-1.498,3.389-2.037,5.131l-3.991,0.03l-0.379,1.636l-0.379,1.637
		l3.574,1.781c-0.283,1.828-0.422,3.668-0.422,5.503l-3.813,1.208l0.121,1.676l0.12,1.674l3.951,0.65
		c0.265,1.82,0.669,3.62,1.209,5.381l-3.289,2.279l0.609,1.565l0.609,1.565l3.96-0.543c0.785,1.656,1.7,3.259,2.742,4.791
		l-2.465,3.141l1.043,1.316l1.044,1.316l3.621-1.685c1.231,1.339,2.579,2.597,4.039,3.761l-1.434,3.735l1.385,0.95l1.385,0.949
		l2.97-2.682c1.611,0.943,3.271,1.749,4.962,2.416l-0.268,3.984l1.604,0.5l1.604,0.5l2.043-3.431
		c1.805,0.421,3.629,0.698,5.457,0.835l0.919,3.89l1.68,0.005l1.679,0.005l0.943-3.89c1.838-0.129,3.661-0.4,5.455-0.807
		l2.029,3.451l1.605-0.49l1.606-0.49l-0.245-3.992c1.712-0.66,3.379-1.452,4.982-2.375l2.948,2.693l1.39-0.941l1.391-0.942
		l-1.407-3.735c1.431-1.13,2.786-2.381,4.053-3.748l3.616,1.707l1.051-1.309l1.051-1.311l-2.453-3.162
		c0.015-0.021,0.028-0.04,0.043-0.061c1.044-1.521,1.954-3.096,2.734-4.707l3.956,0.564l0.618-1.561l0.618-1.562l-3.269-2.294
		c0.557-1.771,0.971-3.57,1.244-5.38l3.944-0.626l0.13-1.674l0.131-1.674l-3.805-1.23c0.008-1.844-0.128-3.684-0.401-5.502
		l3.594-1.764l-0.368-1.639l-0.369-1.639l-4.002-0.055c-0.532-1.758-1.196-3.479-1.995-5.145l2.908-2.739l-0.836-1.456l-0.835-1.457
		L70.053,20c-1.021-1.516-2.167-2.963-3.433-4.326l1.971-3.475l-1.228-1.146l-1.228-1.145l-3.335,2.207
		c-0.711-0.572-1.45-1.121-2.216-1.646c-0.765-0.525-1.544-1.016-2.333-1.475l0.859-3.906l-1.511-0.732L56.09,3.623l-2.533,3.089
		c-1.728-0.69-3.489-1.239-5.271-1.646l-0.329-3.979l-1.66-0.255l-1.659-0.255l-1.51,3.698C41.286,4.13,39.441,4.13,37.61,4.267
		l-1.491-3.715l-1.661,0.246l-1.661,0.244l-0.354,3.988c-1.794,0.4-3.559,0.936-5.276,1.606l-2.518-3.106l-1.515,0.724l-1.516,0.725
		l0.836,3.905c-1.59,0.906-3.119,1.939-4.571,3.096l-3.316-2.223l-1.234,1.139l-1.234,1.139l1.951,3.487
		C12.826,16.83,11.686,18.246,10.642,19.767z M13.705,23.746l2.166,1.486L11.66,39.489L9.032,39.56
		C9.134,34.125,10.654,28.66,13.705,23.746z M36.054,37.319c1.572-2.291,4.714-2.876,7.005-1.304
		c2.291,1.571,2.876,4.714,1.305,7.004c-1.572,2.291-4.715,2.877-7.005,1.305C35.067,42.751,34.482,39.61,36.054,37.319z
		 M31.295,45.19l-12.162,9.349l-4.343-12.23l15.338-0.414C30.324,43.044,30.717,44.162,31.295,45.19z M33.065,47.49
		c0.413,0.402,0.864,0.777,1.355,1.115c0.492,0.337,1.004,0.623,1.528,0.863l-4.346,14.715l-10.702-7.344L33.065,47.49z
		 M38.732,50.292c1.168,0.17,2.351,0.133,3.495-0.098l5.134,14.459l-12.974,0.351L38.732,50.292z M44.964,49.226
		c1.021-0.535,1.962-1.248,2.772-2.132l12.651,8.679l-10.291,7.91L44.964,49.226z M49.379,44.701
		c0.532-1.074,0.859-2.209,0.991-3.354l15.336-0.414L62.029,53.38L49.379,44.701z M50.289,38.445
		c-0.197-1.15-0.589-2.268-1.167-3.296L61.284,25.8l4.343,12.23L50.289,38.445z M47.352,32.849
		c-0.413-0.403-0.864-0.777-1.355-1.115c-0.492-0.338-1.004-0.623-1.528-0.863l4.346-14.715l10.702,7.343L47.352,32.849z
		 M41.685,30.046c-1.168-0.17-2.351-0.133-3.496,0.098l-5.133-14.46l12.974-0.351L41.685,30.046z M35.453,31.113
		c-1.021,0.535-1.963,1.248-2.772,2.131l-12.651-8.679l10.29-7.909L35.453,31.113z M31.038,35.638
		c-0.532,1.074-0.859,2.209-0.991,3.354l-15.336,0.414l3.677-12.447L31.038,35.638z M9.113,42.46l2.626-0.07l4.973,14.009
		l-2.088,1.604C11.399,53.376,9.524,47.989,9.113,42.46z M22.568,65.88c-2.354-1.615-4.415-3.497-6.175-5.576l2.088-1.604
		l12.258,8.409l-0.746,2.525C27.421,68.742,24.923,67.496,22.568,65.88z M32.777,70.458l0.746-2.526l14.859-0.401l0.879,2.475
		C43.957,71.612,38.255,71.801,32.777,70.458z M51.998,69.037l-0.88-2.477L62.904,57.5l2.166,1.486
		C61.583,63.601,57.032,66.986,51.998,69.037z M66.712,56.593l-2.165-1.486l4.21-14.257l2.628-0.071
		C71.283,46.214,69.763,51.679,66.712,56.593z M71.304,37.877l-2.625,0.071L63.705,23.94l2.088-1.604
		C69.018,26.962,70.893,32.35,71.304,37.877z M57.849,14.458c2.354,1.615,4.415,3.496,6.175,5.575l-2.088,1.604l-12.258-8.41
		l0.746-2.524C52.996,11.597,55.494,12.843,57.849,14.458z M47.64,9.88l-0.745,2.526l-14.86,0.401l-0.879-2.475
		C36.461,8.727,42.162,8.538,47.64,9.88z M28.419,11.302l0.88,2.477l-11.786,9.06l-2.166-1.486
		C18.834,16.738,23.385,13.353,28.419,11.302z"/>
</g>
</svg>
