<?xml version="1.0" encoding="utf-8"?>
<!-- Generator: Adobe Illustrator 16.0.0, SVG Export Plug-In . SVG Version: 6.00 Build 0)  -->
<!DOCTYPE svg PUBLIC "-//W3C//DTD SVG 1.1//EN" "http://www.w3.org/Graphics/SVG/1.1/DTD/svg11.dtd">
<svg version="1.1" id="圖層_1" xmlns="http://www.w3.org/2000/svg" xmlns:xlink="http://www.w3.org/1999/xlink" x="0px" y="0px"
	 width="100px" height="100px" viewBox="0 0 166.729 166.725" enable-background="new 0 0 166.729 166.725"
	 xml:space="preserve">
<g>
	
		<linearGradient id="SVGID_1_" gradientUnits="userSpaceOnUse" x1="142.3203" y1="24.4092" x2="24.413" y2="142.3165" gradientTransform="matrix(0.9999 -0.0136 0.0136 0.9999 -1.1295 1.145)">
		<stop  offset="0.229" style="stop-color:#FADDCD"/>
		<stop  offset="0.4914" style="stop-color:#D59D7E"/>
		<stop  offset="1" style="stop-color:#AA6F50"/>
	</linearGradient>
	<path fill="url(#SVGID_1_)" d="M41.992,19.38c-2.047,1.323-5.41-0.248-7.564-3.503c-1.135,0.824-2.247,1.67-3.331,2.539
		c2.466,2.907,3.048,6.465,1.266,8.061c-1.781,1.595-5.257,0.627-7.88-2.14c-0.987,0.988-1.948,1.993-2.877,3.021
		c2.773,2.467,3.841,5.807,2.357,7.627c-1.482,1.826-4.971,1.461-7.959-0.757c-0.819,1.123-1.606,2.257-2.361,3.414
		c3.018,2.011,4.516,5.069,3.355,7.063c-1.159,2-4.562,2.218-7.806,0.594c-0.634,1.23-1.23,2.476-1.798,3.733
		c3.188,1.527,5.063,4.254,4.246,6.363c-0.816,2.121-4.043,2.875-7.439,1.856c-0.432,1.318-0.832,2.643-1.2,3.972
		c3.296,1.044,5.485,3.394,5.02,5.573c-0.469,2.185-3.458,3.429-6.907,3.012c-0.225,1.368-0.416,2.741-0.571,4.113
		c3.345,0.545,5.807,2.506,5.686,4.698c-0.119,2.203-2.811,3.891-6.226,4.052c-0.01,1.382,0.01,2.769,0.068,4.155
		c3.337,0.052,6.013,1.592,6.237,3.75c0.224,2.175-2.127,4.249-5.427,4.958c0.201,1.368,0.435,2.74,0.706,4.101
		c3.272-0.446,6.114,0.656,6.67,2.741c0.556,2.097-1.407,4.491-4.518,5.72c0.411,1.319,0.856,2.637,1.339,3.944
		c3.135-0.92,6.081-0.272,6.948,1.682c0.878,1.977-0.668,4.63-3.517,6.331c0.609,1.242,1.254,2.471,1.934,3.694
		c2.939-1.381,5.925-1.193,7.081,0.591c1.175,1.813,0.07,4.672-2.47,6.793c0.802,1.147,1.625,2.271,2.474,3.36
		c2.688-1.819,5.667-2.106,7.092-0.521c1.445,1.608,0.79,4.621-1.405,7.122c0.965,1.007,1.95,1.986,2.957,2.935
		c2.375-2.246,5.297-3.013,6.961-1.66c1.689,1.376,1.499,4.48-0.311,7.308c1.106,0.844,2.229,1.655,3.372,2.441
		c2-2.629,4.792-3.866,6.658-2.785c1.901,1.104,2.185,4.241,0.806,7.338c1.219,0.666,2.457,1.291,3.706,1.887
		c1.557-2.957,4.147-4.648,6.179-3.868c2.068,0.798,2.837,3.906,1.916,7.22c1.307,0.464,2.623,0.893,3.95,1.293
		c1.057-3.225,3.378-5.354,5.528-4.896c2.202,0.474,3.447,3.501,3.008,6.976c1.359,0.256,2.727,0.479,4.097,0.667
		c0.509-3.423,2.492-5.967,4.718-5.849c2.283,0.124,4.012,3,4.069,6.583c1.382,0.044,2.764,0.054,4.146,0.03
		c-0.09-3.542,1.488-6.458,3.743-6.69c2.319-0.238,4.511,2.432,5.082,6.064c1.368-0.173,2.735-0.381,4.102-0.624
		c-0.725-3.562,0.384-6.793,2.616-7.391c2.291-0.604,4.921,1.779,6.019,5.381c1.33-0.385,2.654-0.805,3.973-1.264
		c-1.36-3.467-0.794-6.932,1.354-7.89c2.205-0.976,5.242,1.058,6.872,4.55c1.26-0.59,2.506-1.215,3.744-1.875
		c-1.987-3.257-2.006-6.869,0.003-8.175c2.061-1.329,5.464,0.275,7.614,3.582c1.17-0.79,2.312-1.602,3.423-2.443
		c-2.585-2.934-3.223-6.6-1.407-8.23c1.829-1.642,5.455-0.579,8.098,2.366c0.044,0.051,0.085,0.102,0.129,0.153
		c1.042-0.966,2.048-1.966,3.029-2.977c-0.035-0.028-0.07-0.05-0.104-0.079c-3.07-2.498-4.306-6.064-2.755-7.977
		c1.55-1.902,5.298-1.425,8.368,1.073c0.109,0.084,0.208,0.175,0.31,0.265c0.882-1.13,1.732-2.283,2.547-3.452
		c-0.098-0.056-0.193-0.106-0.292-0.162c-3.424-1.982-5.2-5.313-3.968-7.444c1.231-2.121,5.009-2.236,8.433-0.253
		c0.176,0.101,0.344,0.207,0.512,0.32c0.693-1.271,1.357-2.553,1.985-3.851c-0.162-0.055-0.326-0.11-0.486-0.171
		c-3.695-1.423-5.969-4.442-5.086-6.735c0.887-2.288,4.598-2.992,8.292-1.569c0.235,0.095,0.473,0.194,0.7,0.3
		c0.491-1.371,0.946-2.753,1.364-4.152c-0.221-0.032-0.438-0.075-0.66-0.123c-3.872-0.824-6.591-3.447-6.074-5.851
		c0.516-2.403,4.072-3.679,7.941-2.849c0.305,0.07,0.599,0.146,0.889,0.234c0.273-1.448,0.506-2.902,0.701-4.361
		c-0.27,0.004-0.545,0.001-0.826-0.018c-3.953-0.209-7.043-2.375-6.914-4.83c0.136-2.456,3.447-4.272,7.397-4.057
		c0.359,0.024,0.709,0.065,1.054,0.112c0.043-1.485,0.045-2.976,0.009-4.466c-0.311,0.056-0.627,0.112-0.95,0.145
		c-3.938,0.404-7.333-1.247-7.59-3.691c-0.251-2.444,2.739-4.755,6.675-5.165c0.397-0.04,0.787-0.051,1.171-0.05
		c-0.192-1.488-0.429-2.969-0.708-4.451c-0.33,0.119-0.664,0.233-1.017,0.324c-3.82,1.021-7.436-0.083-8.067-2.459
		c-0.632-2.375,1.957-5.123,5.784-6.138c0.411-0.109,0.822-0.189,1.224-0.252c-0.431-1.445-0.9-2.877-1.415-4.303
		c-0.321,0.182-0.657,0.359-1.01,0.512c-3.619,1.604-7.358,1.081-8.352-1.164c-0.997-2.251,1.131-5.37,4.749-6.973
		c0.398-0.178,0.803-0.321,1.203-0.452c-0.658-1.35-1.358-2.694-2.096-4.019c-0.29,0.228-0.596,0.455-0.926,0.667
		c-3.321,2.155-7.095,2.223-8.431,0.161c-1.335-2.069,0.278-5.479,3.599-7.628c0.37-0.24,0.742-0.446,1.119-0.634
		c-0.872-1.25-1.771-2.464-2.696-3.65c-0.254,0.279-0.52,0.546-0.808,0.808c-2.946,2.643-6.666,3.301-8.308,1.472
		c-1.642-1.829-0.582-5.455,2.363-8.098c0.323-0.286,0.657-0.548,0.999-0.793c-1.057-1.086-2.135-2.149-3.237-3.172
		c-0.203,0.312-0.421,0.613-0.664,0.909c-2.495,3.073-6.064,4.308-7.972,2.758c-1.906-1.551-1.431-5.301,1.067-8.368
		c0.265-0.324,0.542-0.626,0.827-0.905c-1.208-0.901-2.44-1.767-3.69-2.598c-0.144,0.312-0.301,0.629-0.479,0.94
		c-1.988,3.421-5.317,5.198-7.447,3.966c-2.123-1.232-2.238-5.009-0.253-8.43c0.193-0.335,0.401-0.647,0.618-0.948
		c-1.325-0.687-2.665-1.346-4.021-1.963c-0.09,0.299-0.186,0.599-0.303,0.898c-1.423,3.695-4.436,5.972-6.73,5.085
		c-2.293-0.886-2.997-4.597-1.571-8.291c0.125-0.312,0.259-0.617,0.403-0.906c-1.399-0.468-2.813-0.896-4.237-1.29
		c-0.036,0.259-0.081,0.523-0.138,0.793c-0.83,3.87-3.45,6.588-5.854,6.071s-3.679-4.072-2.848-7.941
		c0.062-0.282,0.132-0.552,0.214-0.823c-1.441-0.239-2.889-0.437-4.342-0.6c-0.003,0.218-0.006,0.436-0.018,0.66
		c-0.212,3.953-2.377,7.043-4.829,6.917c-2.456-0.139-4.27-3.451-4.054-7.397c0.011-0.235,0.033-0.465,0.059-0.688
		c-1.447-0.009-2.895,0.022-4.341,0.087C79.4,0.25,79.43,0.415,79.446,0.575c0.409,3.939-1.245,7.332-3.689,7.589
		c-2.447,0.251-4.758-2.739-5.161-6.671c-0.02-0.172-0.028-0.344-0.039-0.516c-1.414,0.214-2.822,0.475-4.229,0.769
		c0.029,0.097,0.06,0.194,0.087,0.297c1.019,3.827-0.082,7.436-2.458,8.07c-2.374,0.629-5.126-1.959-6.142-5.787
		c-0.027-0.097-0.049-0.2-0.07-0.303c-1.344,0.431-2.686,0.902-4.014,1.413c0.015,0.029,0.029,0.057,0.045,0.091
		c1.603,3.619,1.079,7.358-1.168,8.357c-2.248,0.994-5.367-1.137-6.971-4.755c-0.011-0.028-0.021-0.057-0.035-0.091
		c-1.246,0.636-2.484,1.307-3.707,2.011C43.981,14.348,44.032,18.062,41.992,19.38z M25.994,54.018
		c0.969-1.888,3.283-2.637,5.171-1.67c1.888,0.966,2.633,3.283,1.667,5.171c-0.969,1.888-3.281,2.636-5.168,1.67
		C25.776,58.223,25.027,55.906,25.994,54.018z M24.927,104.665c-2.508,1.622-4.309,3.922-5.343,6.505
		c-6.9-15.815-7.499-33.229-2.471-48.971c1.286,2.465,3.311,4.57,5.972,5.933c3.563,1.825,7.539,1.949,11.028,0.692
		c-3.244,10.993-2.819,23.009,1.71,34.041C32.227,101.974,28.286,102.498,24.927,104.665z M61.188,49.072
		c14.673-9.488,33.143-8.375,46.429,1.396c-7.082,5.434-15.827,8.861-25.421,9.342c-9.59,0.486-18.633-2.039-26.227-6.734
		C57.578,51.626,59.313,50.284,61.188,49.072z M29.246,118.416c-1.154-1.779-0.642-4.159,1.137-5.313
		c1.781-1.148,4.159-0.641,5.313,1.143c1.15,1.779,0.641,4.159-1.141,5.307C32.773,120.707,30.396,120.195,29.246,118.416z
		 M49.056,105.602c-5.324-8.234-7.311-17.672-6.299-26.715c8.249,3.419,15.583,9.281,20.795,17.345
		c5.218,8.063,7.553,17.152,7.281,26.076C62.172,119.521,54.385,113.842,49.056,105.602z M123.365,74.818
		c3.463,16.125-3.102,33.43-17.773,42.917c-1.876,1.212-3.813,2.248-5.793,3.118c-1.167-8.853,0.239-18.136,4.617-26.686
		C108.794,85.617,115.503,79.047,123.365,74.818z M31.892,130.195c2.773,0.123,5.609-0.581,8.119-2.203
		c3.358-2.167,5.454-5.549,6.111-9.199c8.207,8.659,18.989,13.981,30.347,15.529c-2.578,2.667-4.095,6.345-3.895,10.343
		c0.148,2.984,1.241,5.693,2.959,7.877C59.118,150.668,43.477,142.982,31.892,130.195z M86.64,147.799
		c-2.12,0.11-3.923-1.522-4.032-3.643c-0.103-2.114,1.526-3.919,3.644-4.028c2.119-0.104,3.925,1.523,4.028,3.643
		C90.388,145.891,88.756,147.69,86.64,147.799z M131.036,123.403c2.665,1.362,5.562,1.77,8.314,1.371
		c-4.847,6.555-10.924,12.371-18.175,17.062s-15.051,7.848-23.019,9.572c1.496-2.342,2.312-5.15,2.159-8.141
		c-0.201-3.993-2.075-7.493-4.899-9.891c5.494-1.319,10.866-3.565,15.884-6.81c5.017-3.245,9.27-7.224,12.729-11.691
		C125.056,118.434,127.479,121.582,131.036,123.403z M140.784,112.79c-0.97,1.888-3.281,2.63-5.168,1.664
		c-1.889-0.966-2.637-3.278-1.671-5.166c0.967-1.888,3.283-2.636,5.172-1.67C141.005,108.584,141.75,110.902,140.784,112.79z
		 M141.851,62.137c2.511-1.622,4.314-3.917,5.343-6.494c6.903,15.809,7.496,33.223,2.471,48.965
		c-1.283-2.465-3.308-4.57-5.969-5.933c-3.562-1.826-7.542-1.949-11.031-0.692c3.247-10.993,2.819-23.009-1.707-34.041
		C134.555,64.833,138.492,64.31,141.851,62.137z M137.535,48.392c1.15,1.779,0.641,4.159-1.141,5.307
		c-1.781,1.154-4.155,0.641-5.31-1.137c-1.153-1.784-0.642-4.159,1.138-5.313C134.007,46.101,136.381,46.607,137.535,48.392z
		 M95.051,75.864c4.167,6.438,2.32,15.04-4.117,19.204c-6.444,4.164-15.04,2.321-19.207-4.124c-4.167-6.438-2.32-15.04,4.12-19.204
		C82.289,67.576,90.887,69.419,95.051,75.864z M134.874,36.595c-2.768-0.111-5.598,0.598-8.107,2.22
		c-3.358,2.167-5.454,5.549-6.111,9.193c-8.204-8.659-18.986-13.976-30.343-15.523c2.575-2.667,4.095-6.345,3.891-10.343
		c-0.148-2.985-1.24-5.699-2.959-7.877C107.657,16.139,123.292,23.82,134.874,36.595z M80.139,19.009
		c2.119-0.11,3.925,1.522,4.031,3.643c0.105,2.114-1.523,3.919-3.643,4.028c-2.12,0.104-3.922-1.529-4.032-3.643
		C76.393,20.917,78.021,19.112,80.139,19.009z M68.624,15.394c-1.496,2.348-2.314,5.156-2.163,8.147
		c0.201,3.992,2.077,7.493,4.902,9.885c-5.497,1.325-10.866,3.571-15.884,6.815c-5.019,3.245-9.271,7.218-12.73,11.691
		c-1.027-3.558-3.448-6.706-7.005-8.527c-2.664-1.362-5.563-1.77-8.314-1.371c4.844-6.556,10.924-12.377,18.175-17.063
		C52.856,20.281,60.652,17.124,68.624,15.394z"/>
	
		<linearGradient id="SVGID_2_" gradientUnits="userSpaceOnUse" x1="142.3203" y1="24.4092" x2="24.413" y2="142.3165" gradientTransform="matrix(0.9999 -0.0136 0.0136 0.9999 -1.1295 1.145)">
		<stop  offset="0.229" style="stop-color:#FADDCD"/>
		<stop  offset="0.4914" style="stop-color:#D59D7E"/>
		<stop  offset="1" style="stop-color:#AA6F50"/>
	</linearGradient>
	<path fill="url(#SVGID_2_)" d="M55.459,161.909c1.307,0.464,2.623,0.893,3.95,1.293c0.154-0.472,0.337-0.911,0.541-1.332
		c-1.413-0.422-2.813-0.879-4.201-1.376C55.687,160.96,55.59,161.431,55.459,161.909z M72.042,165.948
		c0.073-0.482,0.175-0.948,0.307-1.397c-1.447-0.198-2.889-0.431-4.32-0.704c0.004,0.464-0.021,0.946-0.083,1.435
		C69.305,165.538,70.672,165.76,72.042,165.948z M164.395,98.543c0.305,0.07,0.599,0.146,0.889,0.234
		c0.273-1.448,0.506-2.902,0.701-4.361c-0.27,0.004-0.545,0.001-0.826-0.018c-0.204-0.008-0.407-0.029-0.608-0.049
		c-0.185,1.373-0.404,2.74-0.66,4.102C164.059,98.479,164.223,98.511,164.395,98.543z M165.642,85.512
		c0.359,0.024,0.709,0.065,1.054,0.112c0.043-1.485,0.045-2.976,0.009-4.466c-0.311,0.056-0.627,0.112-0.95,0.145
		c-0.166,0.014-0.323,0.021-0.481,0.035c0.03,1.387,0.026,2.78-0.01,4.168C165.393,85.51,165.516,85.508,165.642,85.512z
		 M164.839,72.447c0.397-0.04,0.787-0.051,1.171-0.05c-0.192-1.488-0.429-2.969-0.708-4.451c-0.33,0.119-0.664,0.233-1.017,0.324
		c-0.125,0.036-0.251,0.061-0.376,0.091c0.256,1.373,0.479,2.745,0.663,4.124C164.661,72.478,164.75,72.459,164.839,72.447z
		 M47.364,158.557c0.231-0.439,0.486-0.849,0.76-1.226c-1.339-0.641-2.663-1.311-3.969-2.021c-0.131,0.449-0.297,0.904-0.497,1.36
		C44.877,157.335,46.115,157.96,47.364,158.557z M36.194,152.116c0.302-0.399,0.627-0.759,0.957-1.09
		c-1.229-0.843-2.439-1.721-3.63-2.634c-0.198,0.427-0.427,0.86-0.699,1.283C33.929,150.519,35.052,151.329,36.194,152.116z
		 M26.172,144.026c0.365-0.349,0.745-0.652,1.131-0.927c-1.091-1.023-2.157-2.086-3.198-3.178c-0.262,0.393-0.557,0.787-0.89,1.17
		C24.18,142.099,25.165,143.077,26.172,144.026z M161.123,111.217c0.235,0.095,0.473,0.194,0.7,0.3
		c0.491-1.371,0.946-2.753,1.364-4.152c-0.221-0.032-0.438-0.075-0.66-0.123c-0.25-0.048-0.495-0.114-0.733-0.18
		c-0.401,1.324-0.829,2.637-1.299,3.939C160.705,111.068,160.912,111.14,161.123,111.217z M162.002,59.673
		c0.411-0.109,0.822-0.189,1.224-0.252c-0.431-1.445-0.9-2.877-1.415-4.303c-0.321,0.182-0.657,0.359-1.01,0.512
		c-0.101,0.047-0.203,0.083-0.304,0.125c0.472,1.318,0.911,2.642,1.316,3.973C161.876,59.708,161.936,59.691,162.002,59.673z
		 M140.21,144.076c0.044,0.051,0.085,0.102,0.129,0.153c1.042-0.966,2.048-1.966,3.029-2.977c-0.035-0.028-0.07-0.05-0.104-0.079
		c-0.339-0.276-0.652-0.57-0.949-0.87c-0.959,0.993-1.945,1.964-2.964,2.918C139.646,143.487,139.931,143.765,140.21,144.076z
		 M24.482,24.336c-0.987,0.988-1.948,1.993-2.877,3.021c0.383,0.344,0.734,0.707,1.053,1.075c0.948-1.045,1.927-2.067,2.934-3.073
		C25.212,25.055,24.837,24.716,24.482,24.336z M118.061,157.604c0.245,0.392,0.472,0.808,0.675,1.246
		c1.26-0.59,2.506-1.215,3.744-1.875c-0.252-0.415-0.472-0.831-0.661-1.252C120.577,156.388,119.324,157.013,118.061,157.604z
		 M84.975,166.712c-0.013-0.487,0.009-0.964,0.058-1.423c-1.442,0.031-2.881,0.016-4.32-0.033c0.068,0.464,0.11,0.939,0.117,1.426
		C82.211,166.727,83.593,166.736,84.975,166.712z M35.345,17.08c-0.32-0.374-0.63-0.771-0.917-1.203
		c-1.135,0.824-2.247,1.67-3.331,2.539c0.339,0.397,0.635,0.806,0.897,1.214C33.086,18.756,34.201,17.903,35.345,17.08z
		 M155.906,123.224c0.176,0.101,0.344,0.207,0.512,0.32c0.693-1.271,1.357-2.553,1.985-3.851c-0.162-0.055-0.326-0.11-0.486-0.171
		c-0.288-0.111-0.563-0.239-0.831-0.367c-0.602,1.247-1.239,2.471-1.904,3.689C155.423,122.961,155.666,123.084,155.906,123.224z
		 M106.536,163.454c1.33-0.385,2.654-0.805,3.973-1.264c-0.175-0.45-0.319-0.901-0.431-1.347c-1.342,0.466-2.688,0.891-4.041,1.282
		C106.227,162.546,106.396,162.991,106.536,163.454z M97.901,165.463c-0.098-0.474-0.159-0.943-0.19-1.402
		c-1.407,0.249-2.814,0.457-4.223,0.631c0.127,0.446,0.233,0.909,0.312,1.395C95.168,165.914,96.535,165.705,97.901,165.463z
		 M148.877,134.27c0.109,0.084,0.208,0.175,0.31,0.265c0.882-1.13,1.732-2.283,2.547-3.452c-0.098-0.056-0.193-0.106-0.292-0.162
		c-0.319-0.185-0.62-0.382-0.91-0.59c-0.793,1.129-1.612,2.247-2.466,3.341C148.341,133.858,148.613,134.055,148.877,134.27z
		 M129.255,151.248c0.298,0.352,0.577,0.732,0.842,1.135c1.17-0.79,2.312-1.602,3.423-2.443c-0.32-0.362-0.605-0.731-0.869-1.112
		C131.547,149.657,130.414,150.464,129.255,151.248z M4.401,61.782c0.388-1.41,0.81-2.814,1.272-4.202
		c-0.482-0.074-0.978-0.176-1.473-0.33c-0.432,1.318-0.832,2.643-1.2,3.972C3.495,61.381,3.963,61.57,4.401,61.782z M105.225,4.472
		c1.332,0.372,2.659,0.772,3.976,1.207c0.049-0.155,0.102-0.311,0.162-0.472c0.125-0.312,0.259-0.617,0.403-0.906
		c-1.399-0.468-2.813-0.896-4.237-1.29c-0.036,0.259-0.081,0.523-0.138,0.793C105.343,4.029,105.285,4.253,105.225,4.472z
		 M92.467,2.009c1.372,0.153,2.745,0.341,4.106,0.563c0.032-0.207,0.07-0.419,0.116-0.638c0.062-0.282,0.132-0.552,0.214-0.823
		c-1.441-0.239-2.889-0.437-4.342-0.6c-0.003,0.218-0.006,0.436-0.018,0.66C92.528,1.452,92.5,1.733,92.467,2.009z M8.702,49.782
		c0.597-1.321,1.215-2.62,1.88-3.907c-0.467-0.159-0.928-0.349-1.39-0.577c-0.634,1.23-1.23,2.476-1.798,3.733
		C7.861,49.254,8.298,49.506,8.702,49.782z M2.003,74.272c0.163-1.47,0.37-2.935,0.614-4.389c-0.487,0.007-0.989-0.015-1.504-0.077
		c-0.225,1.368-0.416,2.741-0.571,4.113C1.051,74.004,1.537,74.124,2.003,74.272z M79.499,1.589
		c1.387-0.065,2.766-0.095,4.147-0.091c-0.008-0.264-0.002-0.533,0.015-0.809c0.011-0.235,0.033-0.465,0.059-0.688
		c-1.447-0.009-2.895,0.022-4.341,0.087C79.4,0.25,79.43,0.415,79.446,0.575C79.482,0.919,79.494,1.257,79.499,1.589z M54.267,6.847
		c1.297-0.499,2.607-0.958,3.92-1.384c-0.138-0.365-0.266-0.742-0.371-1.136c-0.027-0.097-0.049-0.2-0.07-0.303
		c-1.344,0.431-2.686,0.902-4.014,1.413c0.015,0.029,0.029,0.057,0.045,0.091C53.971,5.968,54.132,6.407,54.267,6.847z
		 M66.657,3.215c1.358-0.282,2.722-0.53,4.085-0.744c-0.061-0.32-0.114-0.646-0.146-0.978c-0.02-0.172-0.028-0.344-0.039-0.516
		c-1.414,0.214-2.822,0.475-4.229,0.769c0.029,0.097,0.06,0.194,0.087,0.297C66.521,2.438,66.598,2.826,66.657,3.215z
		 M46.289,10.383c-0.235-0.392-0.453-0.813-0.651-1.252c-0.011-0.028-0.021-0.057-0.035-0.091c-1.246,0.636-2.484,1.307-3.707,2.011
		c0.278,0.438,0.517,0.881,0.72,1.326C43.831,11.678,45.054,11.014,46.289,10.383z M14.836,38.565
		c0.778-1.191,1.593-2.366,2.438-3.524c-0.428-0.235-0.855-0.505-1.27-0.814c-0.819,1.123-1.606,2.257-2.361,3.414
		C14.073,37.928,14.471,38.237,14.836,38.565z M117.453,8.914c1.261,0.579,2.51,1.187,3.746,1.829
		c0.056-0.109,0.108-0.213,0.17-0.317c0.193-0.335,0.401-0.647,0.618-0.948c-1.325-0.687-2.665-1.346-4.021-1.963
		c-0.09,0.299-0.186,0.599-0.303,0.898C117.598,8.585,117.526,8.747,117.453,8.914z M139.084,23.335
		c1.018,0.943,2.018,1.921,2.99,2.923c0.048-0.046,0.094-0.093,0.145-0.139c0.323-0.286,0.657-0.548,0.999-0.793
		c-1.057-1.086-2.135-2.149-3.237-3.172c-0.203,0.312-0.421,0.613-0.664,0.909C139.243,23.161,139.164,23.243,139.084,23.335z
		 M10.443,123.746c0.465-0.212,0.923-0.391,1.38-0.528c-0.737-1.326-1.438-2.664-2.099-4.019c-0.374,0.303-0.777,0.589-1.215,0.854
		C9.119,121.293,9.764,122.522,10.443,123.746z M1.563,86.959c-0.066-1.489-0.087-2.979-0.069-4.471
		c-0.478,0.093-0.972,0.157-1.491,0.181c-0.01,1.382,0.01,2.769,0.068,4.155C0.586,86.835,1.086,86.88,1.563,86.959z M17.528,134.49
		c0.418-0.28,0.845-0.527,1.271-0.733c-0.921-1.186-1.818-2.4-2.684-3.65c-0.318,0.354-0.669,0.697-1.062,1.023
		C15.856,132.277,16.68,133.401,17.528,134.49z M147.907,32.96c0.854,1.095,1.685,2.213,2.488,3.36
		c0.054-0.029,0.103-0.07,0.152-0.099c0.37-0.24,0.742-0.446,1.119-0.634c-0.872-1.25-1.771-2.464-2.696-3.65
		c-0.254,0.279-0.52,0.546-0.808,0.808C148.078,32.821,147.992,32.885,147.907,32.96z M3.076,99.539
		c-0.296-1.469-0.545-2.945-0.76-4.426c-0.454,0.167-0.931,0.311-1.436,0.42c0.201,1.368,0.435,2.74,0.706,4.101
		C2.096,99.564,2.595,99.535,3.076,99.539z M155.107,43.858c0.676,1.229,1.32,2.464,1.931,3.711c0.052-0.023,0.103-0.053,0.16-0.076
		c0.398-0.178,0.803-0.321,1.203-0.452c-0.658-1.35-1.358-2.694-2.096-4.019c-0.29,0.228-0.596,0.455-0.926,0.667
		C155.289,43.747,155.198,43.8,155.107,43.858z M128.84,15.254c1.156,0.77,2.294,1.574,3.414,2.401
		c0.055-0.063,0.103-0.133,0.158-0.203c0.265-0.324,0.542-0.626,0.827-0.905c-1.208-0.901-2.44-1.767-3.69-2.598
		c-0.144,0.312-0.301,0.629-0.479,0.94C128.993,15.011,128.918,15.132,128.84,15.254z M6.532,111.726
		c-0.524-1.42-1.013-2.841-1.451-4.274c-0.421,0.235-0.865,0.453-1.342,0.643c0.411,1.319,0.856,2.637,1.339,3.944
		C5.568,111.894,6.058,111.795,6.532,111.726z"/>
</g>
</svg>
